<svg id="7527fa97-0004-46de-ba63-63c0a6fd5969" data-name="svg2" xmlns="http://www.w3.org/2000/svg" viewBox="0 0 891 270.1">
  <title>aleister-signature</title>
  <g id="f3875ae4-32ff-4939-abc4-d4042248536d" data-name="layer1">
    <path id="a5affeea-1933-4793-90bd-91c323a182ec" data-name="path2996" d="M448.6,268.9c-4.9-2.2-10.6-7.7-13.3-13.2-1.5-3-1.9-5.6-1.7-10.7,0.4-9.5,1.9-20.3,3.2-22.7a25.4,25.4,0,0,0,1.8-5.9c0.6-3.6,12.7-28.7,18.9-39.6,1.4-2.5,3.4-6.3,4.5-8.6,2.5-5.4,14.8-25.9,18.1-30.4,4.8-6.4,8.6-13.3,15-27.5s10-20.3,13.7-23.7l6.1-5.4c2.3-2,4.3-4.1,4.3-4.6s12.3-19.6,20-29.3A201.2,201.2,0,0,1,555,30.1l8.7-8.2h-3.4c-4.2,0-25,3.2-42.5,6.5-7.1,1.4-17.3,2.9-22.5,3.3s-18.7,2.1-30,3.5l-33.5,4.2c-33.5,4-47.5,6.6-50.2,9.2a100.8,100.8,0,0,0-6.8,9.6,120.7,120.7,0,0,1-11.2,14.4c-7,7.4-8.2,10.8-8.2,22.9,0,6.2.4,8.4,1.8,10.2,3.2,3.9,5.2,2,5-4.8-0.2-8.6,2.9-15,11.1-22.4s12.9-10,20.4-10.6c5-.5,6.2-0.3,7.3,1.3s1.7,5.3-.7,11.6c-3.8,9.7-4.6,11.3-9.9,18.3-3.7,4.9-4.8,7.1-3.9,7.7,4,2.5,18.7-8.9,22.3-17.3,2.1-4.9,4.6-13.7,4.6-16.2s2.6-6.3,7.8-8.8,6.4-2.2,15.7-2.2c12.3,0,16.1,1.1,17.5,5s1,4.3-6.8,17c-6,9.7-6.7,11.5-6.7,16.2s0.4,5.6,1.4,6.3,18,0.6,24-1a70.5,70.5,0,0,0,10.6-4.2c5.1-2.5,6.5-2.8,8.3-1.9a3.9,3.9,0,0,1,2.2,2.7c0,3.6-2.2,5.4-9.3,7.4a97.6,97.6,0,0,0-11.3,4,20.3,20.3,0,0,1-5.7,1.9,2.8,2.8,0,0,0-2.2.9c-1,1.6-14.2,4.1-21.9,4.1s-7.6-.1-10.1-3.1c-4.7-5.6-2.9-14,5.8-27.3,6.9-10.4,8-13.1,6.6-15.7s-2.1-1.9-6.8-1.9c-7,0-8.3,1.1-11,9.8-3.3,10.6-14.5,23.8-24.1,28.4l-8,4c-5.3,3.1-8.5,3.8-16.7,3.8-5.2,0-10.8.6-13.7,1.5a35.6,35.6,0,0,1-8.6,1.5c-7.4,0-12-7.9-12-20.7,0-6.6-.8-7.6-3.9-5s-14,8.6-19.1,10.2a53,53,0,0,0-10.1,4.6c-6.6,4.2-8.9,3.8-13.8-2-3.3-4-4.1-5.7-4.1-8.9s-0.4-4.3-1-4.6-3.6.1-6.9,0.9c-9.8,2.6-12.2,1.8-15.6-4.7-0.6-1.2-1.8-2.1-2.6-1.9l-9.4,2.8a46.3,46.3,0,0,1-24.2.8c-2.4-.5-5.9.2-13.3,2.5-11.9,3.8-17.7,3.7-25.4-.7-3.9-2.2-5.2-3.7-7.4-8.5s-3.3-5.8-4.2-5.8a41.2,41.2,0,0,0-7.6,2c-5.8,1.9-6.2,2.3-7.8,6.8-0.9,2.6-3.5,9.4-5.7,15.2-8,20.9-10.8,29.6-10.9,32.9,0,0.9-1.1,3.8-2.4,6.5a71.2,71.2,0,0,0-4,10.2c-0.9,3-1.8,6-2.1,6.7s1.6,2.8,5,5.2,5.7,4.7,6.1,6.4a58.2,58.2,0,0,0,2.9,10.1l2.1,6c0.5,1.3.6,1.3,1.4,0a9.1,9.1,0,0,0,1-4c0.1-7.1,12.4-25.8,22.4-34.1,8.1-6.6,15.6-11.9,17.1-11.9a16.9,16.9,0,0,0,4.5-2.2c13.1-8.2,33.5-11.3,41.6-6.2,6.6,4.1,7,4.9,6.9,12.7s-1.7,9.8-7.6,2.7c-8-9.5-16.6-11.1-31.9-5.9s-23.2,10.4-33.5,23.2c-7.9,9.8-7.2,20.3,1.6,24.8,3.1,1.6,6.2,2.1,14.2,2.2s20.2-.6,26.1-1.8l7.4-1.5a54.5,54.5,0,0,0,8.6-2.4c1.9-.8,3.6-1.2,3.9-0.8s8.6-1,14.7-2.9a75.3,75.3,0,0,1,7.5-1.8c2.2-.4,11.2-2.6,20-4.9s19.8-5,24.5-6,11.9-2.8,16-4a126,126,0,0,1,13-2.9,133,133,0,0,0,14.5-3.5c5-1.5,12.6-3.4,17-4.2s9.5-2,11.4-2.6,10.9-2.8,20.1-4.9c2.5-.5,8.3-1.4,13-1.9,7.6-.8,8.8-0.7,11,0.9s2.5,2.5,2.4,7.7-0.4,6.1-3.5,8.6-7.5,3.6-8.6.1-1.3-2.7-7.8-3a40.9,40.9,0,0,0-11.9,1.2,106.2,106.2,0,0,1-11.5,2.5c-7.7,1.2-18.7,3.7-22.5,5.1a22.4,22.4,0,0,1-6.5,1c-2.1,0-4.1.4-4.5,0.9s-3.2,1.4-6.3,2a90.5,90.5,0,0,0-9.7,2.5,91.8,91.8,0,0,1-11,2.6,144,144,0,0,0-14.5,3.5c-4.1,1.3-9.3,2.6-11.5,3A26.8,26.8,0,0,0,286,184c-1.7.9-9.5,2.7-14.8,3.4-1.4.2-5.2,1-8.5,1.9s-7.6,1.7-9.5,2a63.2,63.2,0,0,0-8.5,2,67.8,67.8,0,0,1-8.5,2.1c-1.9.3-5.1,0.9-7,1.4l-12,2.6c-32.2,6.3-42.7,6.9-50.6,3-4.9-2.5-11.4-7.9-11.4-9.6a0.9,0.9,0,0,0-1-.9c-0.6,0-1,1.7-1,3.8,0,8.7-5.6,21.2-12.6,27.9-4.2,4.1-14.3,10-18.4,10.7-7.2,1.3-11.1-4.4-11.2-15.9,0-6.4,4.2-29,6.9-36.7,1.6-4.6,1.6-4.8-.6-7.2s-2.3-2.5-.5-6.1c1-2,2.9-4.2,4.2-4.8s6.2-8.1,6.2-11.5a13.6,13.6,0,0,1,2-4.9,13.7,13.7,0,0,0,2-4.7c0-1.8,4.1-14.2,8.2-25,7.9-20.8,9.3-24.1,10.6-25.7a4.9,4.9,0,0,0,1-3.5c-0.3-1.5-1.2-1.8-5.3-1.7-22.1.7-43.8,0.5-48.5-.5-3-.6-9.1-1.6-13.5-2.2A62.6,62.6,0,0,1,70,80.1c-3.1-1.4-6.4-2.3-7.2-2s-1.7,2.3-2.1,4.5c-0.7,3.9,1.1,30.8,2.2,32.5s2.6,18.5,2.6,25.7c0.1,14.4-5.4,39.2-11,49.6C45,208,24.7,221.6,9.3,220.7c-4.9-.3-5.7-0.7-7.6-3.6s-2.2-6.2.8-13.3,13.6-15,24.5-19.4c5.1-2.1,6.7-2.3,9.1-1.5s4.6,4.2,2.2,7.1-3.4,2.4-8,2.9c-6.8.8-14.2,4.9-14.9,8.3-1,5,7.5,7.3,15.2,4.1,10.2-4.3,18.7-18.4,21.2-35.1a56.1,56.1,0,0,1,2-8.4c0.7-2,1.3-8.5,1.4-14.5,0.1-9.9-.5-14.7-4-32.4-1.9-9.6-.1-33,3-38.8,0.5-1,2.3-4.7,3.9-8.3C62,59.3,72.9,48.1,87.2,38.2c5.7-4,21.6-11.8,29.6-14.5a119,119,0,0,0,12.5-5.3,55,55,0,0,1,9-3.8c1.4-.3,7.9-2.4,14.5-4.7,10.5-3.7,12.8-4.1,18.7-3.8,7.6,0.4,9.7,1.7,12.8,8.3,1.4,2.9,2,6.2,2,10.7,0,6.7-1.2,10.3-11.9,35.7-1.7,4-3.1,7.5-3.1,7.8s1.5,0.4,3.4.4c4.1,0,6-1.7,7.6-6.7a62.4,62.4,0,0,1,12.7-21.8l7.3-8c3-3.5,12.6-9.5,20.7-13.1s8.4-3.4,13.8-2.8c7.4,0.8,8.7,1.4,10.9,5.7,3.8,7.1-1.2,17.1-13.7,27.5-7.3,6.1-10.5,8.4-20.8,15.3-1.4.9-5.3,3.1-8.7,4.8-6.7,3.4-7.3,4.7-4.2,9.1s9.4,6,16.1,6,6.5-.9,8-7.8,4.1-10.6,11.5-16.5c14.2-11.5,29.3-14.2,32-5.8,1.1,3.5-6.3,12.6-17.2,21-2.3,1.8-4.2,3.8-4.2,4.6s4.4,2.6,10.2,1.4c4.2-.9,6.1-2,9.1-5.3C277.4,63.6,277.2,63.7,280,64s4,3.4,1.8,7.7-2.1,10.7-.4,11.7a13.9,13.9,0,0,0,5,.7q9.2,0,30-16.4c3.9-3.1,7.8-4.2,9.8-2.9s0.8,12.4-4.4,23c-1.5,2.9-2.4,5.6-2.2,5.8s9.3-2.2,14.3-5.3,7.5-5.8,10.2-13.4a118.5,118.5,0,0,1,5.5-12.4c3.8-7.4,4.2-9,2.6-10s-7.8,1.4-9.2,3.4-3.6,3.3-6,2a29.7,29.7,0,0,0-7.7-2c-3-.4-5.8-1.2-6.4-1.7s0.2-5.9,5-8.9,5.6-3,17.7-3.6c14.3-.7,16-1.3,20.1-7.4,8.6-12.6,17.5-22.2,20.8-22.2s5.3,1.4,3.8,6.7c-4,14.2-3.4,15.8,4.9,14.4l9.5-1.4c11.3-1.3,29.2-3.8,30.5-4.3a32.9,32.9,0,0,1,6-.9L454.7,25l32.9-3.6c13.1-1.4,24.2-2.8,24.6-3a66.5,66.5,0,0,1,9.1-1,70.9,70.9,0,0,0,9-1c0.3-.2,7.8-1.6,16.5-3,25.5-4.2,26.6-4.4,33.1-6a84.2,84.2,0,0,0,9.8-3c2.8-1.2,4.3-1.3,6.8-.4s4.8,0.6,11.2-1c15.3-4,34.2-3.7,35.8.5,2.3,6-20,18.3-39.2,21.5-7.8,1.3-14.3.4-18.5-2.5-2.7-1.9-7-1.8-8.6.1a4,4,0,0,1-2.2,1.5c-2.4,0-15.7,11.4-19.8,16.9l-8.1,10.8a79.8,79.8,0,0,0-5.5,8.2c-1,1.9-3.2,5.4-4.7,7.7s-2.6,4.6-2.2,5.1,2.9,1.7,5.8,2.6a25.9,25.9,0,0,1,7.7,3.9c3,2.7,6.1,9.5,6.5,14.2s1.7,5.9,5.2,4.1a75.3,75.3,0,0,1,7.7-3.2c7.7-3.4,3-1.8,11.7-4.4,11.8-3.4,7-2.6,14-4s25.3-2.3,28.2-1.1,3,0.7,4.8-1.1a8.2,8.2,0,0,0,2-2.9,47.1,47.1,0,0,1,2-6.1c1.6-4.2,2.8-5.8,5.9-7.5,4.9-2.8,6.3-2.7,9.8.2s2.8,3,2.9,9.8c0.1,4,.3,7.5.5,7.8s2.7-.4,5.6-1.3,5.7-1.5,6.3-1.1,1.2,7.2-.4,12.7c-2.4,7.9,1.3,7.6,6.2-.5s5.8-12.7,4.4-18.8-1.5-8.9.8-12.9c1.1-1.9,3.4-6.4,5.1-10l3.9-8c1.1-2.2,9.1-5,11.3-3.9s2.2,4.1-.9,9.9-4.1,12.5-1.6,17.5c3.6,7,8,9.5,17,9.6,6.6,0.1,8.3-1.3,8.3-6.6,0-12.6,5.6-28.2,13.5-37.6,1.9-2.3,3.5-4.5,3.5-5,0-2.1,16.2-17.1,21.1-19.5a54.7,54.7,0,0,0,6.9-4c1.5-1.2,3.1-1.8,9.9-3.5,3.9-1,7.5.1,11,3.3s4.1,5.8,3.1,13.3-1.7,8-7.6,16.6c-3.6,5.4-8.4,11.5-10.5,13.5l-10.1,9.8a100.2,100.2,0,0,1-8.7,7.8l-7.7,5.2c-2.9,1.9-5.2,4.1-5.2,4.8s5.9,7.2,10.9,9.8,21.7,4.7,28.3,3.3l4.4-.9,0.6-6.5c1-10.5,2.6-14.3,9.1-21.3s14.8-12.2,23.4-13.8c6.1-1.1,7.4-.6,10.5,4.4,1.5,2.5,1.6,3.4.5,7.5-2.2,8.2-4.2,11.8-9.9,17.8-3.1,3.2-5.6,6.2-5.6,6.6,0,2.6,13.7-1.2,17.1-4.8,5.1-5.5,12.7-7.8,16.4-5.1,1.5,1.1,1.6,1.7.7,3.4a6.3,6.3,0,0,1-2.6,2.6c-1.9.7-5.1,7.1-6,12-0.5,2.8-.3,4.5,1,6.4s2.1,2.5,6.3,2,9-2.2,23.1-9c5.9-2.9,10.2-4.2,14.2-4.5s5.8-.3,9.8,3.5,4.2,4.4,4.7,9.9-2,15.1-7.9,25.3c-4.8,8.4-14.6,17.6-26.6,24.8a24.6,24.6,0,0,0-5.2,4.1c-1.7,2.1-14.4,9.2-16.5,9.2a4,4,0,0,0-2.5,1.5c-0.7.8-3.6,2.1-6.4,3s-6,2.4-7,3.4a11.1,11.1,0,0,1-5.5,2.5c-2.1.3-4.4,1.3-5.1,2.1a4.8,4.8,0,0,1-3.3,1.5c-1.1,0-5.9,1.6-10.6,3.4a115.9,115.9,0,0,1-13.6,4.6,27.2,27.2,0,0,0-7.5,2.8c-2.3,1.5-5.1,2.4-16.5,5.3l-8,2a163.7,163.7,0,0,1-20,3.8c-3.8.5-9.2,1.5-12,2.1s-6.3,1.3-8,1.5l-12.5,1.8c-24.4,3.7-43.6,4.2-68.4,1.7-10.8-1.1-26.2-4.1-30.1-6l-12.5-5.1c-5.8-2.3-11-4.5-11.5-4.9a24.4,24.4,0,0,0-5-2,20.8,20.8,0,0,1-5.5-2.5c-4.5-3.8-23-11.6-25.8-10.8-1,.3-2.6-0.4-3.7-1.7s-1.8-2.4-.5-4.8c2.5-4.5,11.2-8.1,25-10.2,9.9-1.5,22.8-3.9,29.2-5.5,3.4-.8,9.2-2,12.8-2.5,7.3-1.1,15.6-2.9,27.8-6,25.5-6.4,60.9-12.9,71.3-13a37.1,37.1,0,0,0,8.5-1c1.6-.5,11-1.2,20.9-1.5s21-.9,24.8-1.2c5.6-.5,7.1-0.3,8.7,1.1s1.7,2.2.9,4.6-2.6,3.6-7.6,6-7.2,3.1-17.2,2.9-37.1,1.4-52.5,3.3c-5,.6-11.6,1.3-14.8,1.5s-6.7.8-7.7,1.4a13.8,13.8,0,0,1-5.3,1c-1.9,0-8.3,1.1-14.3,2.4s-13.6,2.7-16.9,3.1-12.5,2.2-20.5,4-20.7,4.6-28.3,6.1-14.1,3.2-14.4,3.8,7,7.6,18.7,13.3c14.1,6.9,24.6,10.5,37,12.8,5.2,1,11,2.2,13,2.7,5.7,1.6,35,2.2,46.7.9l17.7-1.7a53.8,53.8,0,0,0,9-1.4c2-.7,10.6-2.2,32-5.5a230.9,230.9,0,0,0,42.5-11c5.2-2,10.6-3.9,12-4.2a15.1,15.1,0,0,0,4.9-2.4,8.6,8.6,0,0,1,3.9-1.9c0.8,0,4.8-1.8,8.8-4s7.8-4,8.4-4,18.2-8.1,23-11.4c2.5-1.7,8.1-6.2,12.5-10,6.2-5.4,8.8-8.5,11.7-14,7.1-13.6,8.5-24.6,3.5-28.1-3.2-2.3-4.9-1.9-11.3,2.5-3.2,2.2-6.8,4-7.9,4a5,5,0,0,0-3,.9c-1.7,1.7-12.9,5.1-18.5,5.7-9.7,1-14.9-3.3-14.9-12.3,0-2.9-.4-5.5-0.9-5.8s-4.3.1-8.6,0.9a88.3,88.3,0,0,1-13.4,1.5,49.3,49.3,0,0,0-11.2,1.5,98.2,98.2,0,0,1-32.7,3.2c-13.2-1.1-19.5-3.7-26-10.4l-5.2-5.5L709.5,87c-4.8,1.9-7.8,2.3-17.6,2.4H680l-2,3.9c-2.5,4.9-11.2,13.4-16.9,16.6a63.6,63.6,0,0,1-9.9,4.2c-4.2,1.3-6.1,2.6-7.9,5.3s-9.1,7.7-12.4,7.2-2.2-1-2.3-4.7a66.2,66.2,0,0,1,1.8-12.5c3.6-15.6,3.6-15.6,2.4-15.6s-2.5,2.8-4.1,6.2a42.5,42.5,0,0,1-17.9,18.7c-7,3.6-8.6,3-8.6-3.5,0-2.8,1-6.2,3-10.1,5.3-10.1,3.3-12.5-9.2-10.5-4.6.7-10.8,1.9-13.9,2.7-5.3,1.3-23.2,8.7-25.5,10.5-0.6.5-1.7,3.5-2.4,6.6-1.9,8.5-5.3,15.1-10.7,20.9l-8.5,9.3c-3.4,3.8-4,4.1-7.9,3.8s-4.4-.6-5.2-3.8-0.4-10.4,1.8-17.9c1.3-4.4,2.9-6.7,9.1-12.7l7.5-7.3-1-5.6c-3.1-16.9-13.6-19.7-20.6-5.6a46.7,46.7,0,0,1-3.7,6c-5.5,7.3-10.2,15.1-17.7,29.9-4.4,8.7-9.2,29.1-11.6,49.1-1.2,10.3-2.6,22.9-3.1,28.4a84.4,84.4,0,0,1-2.5,13c-1.1,3.9-2.4,9.2-2.9,11.6s-1.4,6.5-2,9-1.5,7.3-1.9,10.8c-0.9,7.2-2.3,9.1-9.5,13.1s-10.2,4.3-15.2,2.1h0Zm12.1-24.1c0.9-2.8,2.3-7.6,3.1-10.7l2.3-9.2c1.5-5.9,5.1-26.9,6.5-38.5a121.1,121.1,0,0,1,2-12.7c0.4-1,.2-1.7-0.4-1.7s-9.3,16.3-13.6,26.5c-8.3,19.8-11.6,42.2-7.1,48.8,2.9,4.3,5.2,3.6,7.2-2.3h0ZM135,218.1c5.2-7.3,6.6-11.6,6.5-19.2a57.3,57.3,0,0,0-1.2-11.7c-1.9-6.8-7.7-12.4-9.6-9.4-0.9,1.4-5.5,32-5,33.3s0.9,3.1,1.5,5.5,1.5,4.3,3.5,4.3a5.8,5.8,0,0,0,4.3-2.7h0Zm401.5-89.6c2.1-3.2,3.3-9.6,1.8-9.6s-5.1,6.1-5.1,9.3S534.5,131.6,536.5,128.5ZM383.1,95.9c5.6-7,8.7-15.9,6.1-17.5s-8.2,1.8-11,5.8-3.7,8.6-2,13.2,3.2,3.2,6.9-1.4h0Zm-73.9-5.2c2-3.3,2.6-8.2,1.1-9.2s-10.1,4.9-10.1,5.9a17.9,17.9,0,0,0,1.5,3.5c2,3.9,5,3.8,7.5-.3h0ZM801.5,75.9c3.4-2.7,6.7-9.8,6.7-14.3s-0.3-3.7-2.1-3.7c-4.5,0-11.8,12.2-10.5,17.5,0.8,3,2.5,3.1,5.9.5h0ZM248.4,69c7.2-6.7,7.2-8.7.2-7.9-5.4.6-9.9,4.5-10.6,9.1-1,6.7,2.5,6.3,10.4-1.2h0Zm-91,2.1c3.9-3.4,13.8-26.6,13.8-32.6a8.5,8.5,0,0,1,1.2-3.7c0.9-1.5.9-3.2-.1-7.5-1.4-6.4-3.5-8.1-11.7-9.1-4.1-.5-6.8,0-16.4,3.4C133.1,25.6,116,32.5,97.9,40.4c-8,3.5-22.6,13.5-23.4,15.9-0.2.6,1.3,1.9,3.3,3a25,25,0,0,1,6.1,4.9c2.1,2.5,4,3.3,11.1,4.8,9.3,2,27.7,4,29.6,3.2s3-.1,5.2.4c6.1,1.3,25.6.2,27.6-1.5h0ZM739,64.5c2.1-1.3,8.2-7.3,13.8-13.2,14.6-15.8,19.5-24.2,19.5-33.3,0-4-.4-5.2-2.1-6.1s-9.6.8-14.8,4.7-12.8,12.3-14.7,16.4a54.1,54.1,0,0,1-3.4,6c-2.5,3.6-5.2,12.6-5.8,19.2-0.9,9.4.7,10.7,7.5,6.5h0ZM206.4,59.2c9.2-3.3,23.1-12.4,26.9-17.7,5.2-7.2,3.2-13.7-4.3-13.7-4.9,0-16.5,4.9-21.8,9.1s-11.7,16-11.1,23.6c0.1,1.8,2.1,1.6,10.3-1.4h0ZM624.1,11.7c7.2-3.1,4.2-4.2-7.8-3.1s-15.8,3.3-7.8,5.3c4.2,1,10,.2,15.7-2.2h0ZM289.2,48.9a9.5,9.5,0,0,0-4.2-1c-3.3,0-5.3-3.1-3.9-5.8s7-7.4,10.9-7.9,4.2-.2,6.1,2.2c3.1,4,2.8,7.8-.9,10.9s-5.5,3.2-7.9,1.6h0Z" transform="translate(0 0)" fill="#888d9a"/>
  </g>
</svg>
