<svg id="6087c6ac-1c45-4fac-92fe-decfa3a1c65c" data-name="Lamen" xmlns="http://www.w3.org/2000/svg" xmlns:xlink="http://www.w3.org/1999/xlink" viewBox="0 0 427.5 712.4">
  <defs>
    <linearGradient id="f7ebd9a3-64af-43bc-81af-04e944d6ccf2" data-name="Gold Dust" x1="235.4" y1="499.94" x2="355.75" y2="499.94" gradientUnits="userSpaceOnUse">
      <stop offset="0" stop-color="#ff7300"/>
      <stop offset="0.18" stop-color="#f97c01"/>
      <stop offset="0.47" stop-color="#ea9602"/>
      <stop offset="0.55" stop-color="#e59e03"/>
      <stop offset="0.87" stop-color="#e5c500"/>
      <stop offset="0.99" stop-color="#bf6f00"/>
    </linearGradient>
    <linearGradient id="bcf44b49-0a71-48b3-8d3d-83a071591178" x1="72.67" y1="501.1" x2="192.81" y2="501.1" xlink:href="#f7ebd9a3-64af-43bc-81af-04e944d6ccf2"/>
    <linearGradient id="f628ab4a-4651-427b-adb5-7b105067ed6e" x1="32.05" y1="354.84" x2="107" y2="354.84" xlink:href="#f7ebd9a3-64af-43bc-81af-04e944d6ccf2"/>
    <linearGradient id="fc9f5415-2102-4c9e-8978-ac05acb2b2fe" x1="322.1" y1="353.74" x2="395.42" y2="353.74" xlink:href="#f7ebd9a3-64af-43bc-81af-04e944d6ccf2"/>
    <linearGradient id="0a4790d2-1522-409f-8db1-d0e9d8f785a3" x1="46" y1="211.84" x2="160.8" y2="211.84" xlink:href="#f7ebd9a3-64af-43bc-81af-04e944d6ccf2"/>
    <linearGradient id="b4421c69-e418-48eb-9fb7-61ec87a65fc5" x1="266.8" y1="210.84" x2="381.1" y2="210.84" xlink:href="#f7ebd9a3-64af-43bc-81af-04e944d6ccf2"/>
    <linearGradient id="69bdc001-677d-4b58-ba36-29906432cdde" x1="156.6" y1="274.74" x2="205.7" y2="274.74" xlink:href="#f7ebd9a3-64af-43bc-81af-04e944d6ccf2"/>
    <linearGradient id="ccc3ce1c-2957-4bfd-8c0e-6e585eac7d18" x1="222.8" y1="274.74" x2="271.5" y2="274.74" xlink:href="#f7ebd9a3-64af-43bc-81af-04e944d6ccf2"/>
    <linearGradient id="a208a87a-5f00-49c4-af14-acf537289418" x1="93" y1="254.74" x2="163.9" y2="254.74" xlink:href="#f7ebd9a3-64af-43bc-81af-04e944d6ccf2"/>
    <linearGradient id="d9608721-4112-4c4a-94c9-90451933ac23" x1="264.8" y1="254.28" x2="335.3" y2="254.28" xlink:href="#f7ebd9a3-64af-43bc-81af-04e944d6ccf2"/>
    <linearGradient id="991218dd-450a-48bb-9ce0-ba5887793481" x1="87.1" y1="142.84" x2="176.2" y2="142.84" xlink:href="#f7ebd9a3-64af-43bc-81af-04e944d6ccf2"/>
    <linearGradient id="0cf46d8b-c24c-46e9-8d14-32c18876d583" x1="252" y1="142.61" x2="340.3" y2="142.61" xlink:href="#f7ebd9a3-64af-43bc-81af-04e944d6ccf2"/>
    <linearGradient id="bad6abf3-a9a1-4f6f-861f-41f7214dfea9" x1="134.9" y1="100.44" x2="189.1" y2="100.44" xlink:href="#f7ebd9a3-64af-43bc-81af-04e944d6ccf2"/>
    <linearGradient id="4dfcd564-1336-42a6-bb93-e67e77f995aa" x1="240.07" y1="100.79" x2="292.9" y2="100.79" xlink:href="#f7ebd9a3-64af-43bc-81af-04e944d6ccf2"/>
    <linearGradient id="616a7432-f33e-4520-a714-3b9c1ab3a6b8" x1="179.8" y1="71.79" x2="204.91" y2="71.79" xlink:href="#f7ebd9a3-64af-43bc-81af-04e944d6ccf2"/>
    <linearGradient id="8930758a-44a5-477e-83c9-d675fc059e5e" x1="223.78" y1="71.94" x2="248.1" y2="71.94" xlink:href="#f7ebd9a3-64af-43bc-81af-04e944d6ccf2"/>
    <linearGradient id="4f1ecee3-5f93-4a73-9920-9a96aa6a0b2b" x1="-74.65" y1="1253.32" x2="118.34" y2="1253.32" gradientTransform="matrix(1, 0, 0, -1, 191.95, 1583.74)" gradientUnits="userSpaceOnUse">
      <stop offset="0" stop-color="#c7b9b8"/>
      <stop offset="0.14" stop-color="#cbbfbe"/>
      <stop offset="0.34" stop-color="#d7cfcd"/>
      <stop offset="0.51" stop-color="#e7e5e2"/>
      <stop offset="0.61" stop-color="#d0cecc"/>
      <stop offset="0.8" stop-color="#969394"/>
      <stop offset="1" stop-color="#575257"/>
    </linearGradient>
    <linearGradient id="409dc057-dc95-410e-9745-4f3916011f92" x1="-75.38" y1="1253.32" x2="119.19" y2="1253.32" gradientTransform="matrix(1, 0, 0, -1, 191.95, 1583.74)" gradientUnits="userSpaceOnUse">
      <stop offset="0" stop-color="#ff7300"/>
      <stop offset="0.18" stop-color="#f97c01"/>
      <stop offset="0.47" stop-color="#ea9602"/>
      <stop offset="0.55" stop-color="#e59e03"/>
      <stop offset="0.87" stop-color="#e5c500"/>
      <stop offset="0.99" stop-color="#bf6f00"/>
    </linearGradient>
    <linearGradient id="0bdff32b-d0af-489a-ba71-7e03d3e2224d" x1="67.65" y1="1267.85" x2="91.6" y2="1267.85" xlink:href="#4f1ecee3-5f93-4a73-9920-9a96aa6a0b2b"/>
    <linearGradient id="4419854a-bce3-430b-b869-cd216c437c50" x1="67.15" y1="1267.73" x2="92.1" y2="1267.73" xlink:href="#409dc057-dc95-410e-9745-4f3916011f92"/>
    <linearGradient id="a0f89462-3ceb-4538-a677-bc601d4635f2" x1="-47.52" y1="1268.47" x2="-24.38" y2="1268.47" xlink:href="#4f1ecee3-5f93-4a73-9920-9a96aa6a0b2b"/>
    <linearGradient id="271cc218-5c0e-42fd-9688-6aba8db15849" x1="-48.02" y1="1268.4" x2="-23.82" y2="1268.4" xlink:href="#409dc057-dc95-410e-9745-4f3916011f92"/>
    <linearGradient id="cd678590-972f-44b8-aa1c-b6b1f0e4c989" x1="-26.12" y1="1255.55" x2="-6.42" y2="1255.55" xlink:href="#4f1ecee3-5f93-4a73-9920-9a96aa6a0b2b"/>
    <linearGradient id="76f9838a-a0d8-42c3-b37d-8875d655e2db" x1="-26.62" y1="1255.55" x2="-5.92" y2="1255.55" xlink:href="#409dc057-dc95-410e-9745-4f3916011f92"/>
    <linearGradient id="7f13d860-9a22-44ba-b5b8-0449e72453ff" x1="-80.65" y1="1284.4" x2="-54.67" y2="1284.4" xlink:href="#4f1ecee3-5f93-4a73-9920-9a96aa6a0b2b"/>
    <linearGradient id="baa7bfe4-909f-447a-a4b7-24d46f9fb962" x1="-81.22" y1="1284.08" x2="-54.17" y2="1284.08" xlink:href="#409dc057-dc95-410e-9745-4f3916011f92"/>
    <linearGradient id="3c23acfa-7eb7-4093-aa98-f45bfd6288f5" x1="50.09" y1="1255.73" x2="69.59" y2="1255.73" xlink:href="#4f1ecee3-5f93-4a73-9920-9a96aa6a0b2b"/>
    <linearGradient id="77bbd470-4424-473d-97cc-13d50f05b364" x1="49.59" y1="1255.69" x2="70.09" y2="1255.69" xlink:href="#409dc057-dc95-410e-9745-4f3916011f92"/>
    <linearGradient id="bfa69358-e7a6-44a8-9298-6f3d32ebe961" x1="97.05" y1="1284.92" x2="124.75" y2="1284.92" xlink:href="#4f1ecee3-5f93-4a73-9920-9a96aa6a0b2b"/>
    <linearGradient id="1f3d392a-6448-49f1-8e37-b06045713b53" x1="96.55" y1="1284.89" x2="125.3" y2="1284.89" xlink:href="#409dc057-dc95-410e-9745-4f3916011f92"/>
    <linearGradient id="a6f79245-d182-4ee4-a7fa-3307fd863f3a" x1="-138.14" y1="1301.65" x2="-88.41" y2="1301.65" xlink:href="#4f1ecee3-5f93-4a73-9920-9a96aa6a0b2b"/>
    <linearGradient id="5f549b80-9645-4c34-a96d-d8e8e7768375" x1="-138.94" y1="1301.59" x2="-87.82" y2="1301.59" xlink:href="#409dc057-dc95-410e-9745-4f3916011f92"/>
    <linearGradient id="a51bc30e-2b2e-4922-909d-34f1f5ff927f" x1="-112.74" y1="1295.58" x2="-78.06" y2="1295.58" xlink:href="#4f1ecee3-5f93-4a73-9920-9a96aa6a0b2b"/>
    <linearGradient id="526d3d27-1792-47b2-96d1-94a7b12755b3" x1="-113.29" y1="1295.48" x2="-77.5" y2="1295.48" xlink:href="#409dc057-dc95-410e-9745-4f3916011f92"/>
    <linearGradient id="b9179690-d64a-484a-aef4-28af9cbb0db8" x1="-61.99" y1="1276.1" x2="-44.16" y2="1276.1" xlink:href="#4f1ecee3-5f93-4a73-9920-9a96aa6a0b2b"/>
    <linearGradient id="8de0c98d-e8fe-4bc3-a52d-fa246949f643" x1="-62.49" y1="1276.06" x2="-43.66" y2="1276.06" xlink:href="#409dc057-dc95-410e-9745-4f3916011f92"/>
    <linearGradient id="5859784f-bc08-4f60-a4ec-74a868eb2879" x1="132.55" y1="1302.8" x2="182.29" y2="1302.8" xlink:href="#4f1ecee3-5f93-4a73-9920-9a96aa6a0b2b"/>
    <linearGradient id="cc18f603-404c-4cad-820b-4f724d5ebd5a" x1="131.95" y1="1302.92" x2="183.64" y2="1302.92" xlink:href="#409dc057-dc95-410e-9745-4f3916011f92"/>
    <linearGradient id="4ef4e714-462a-440a-b59a-f95c8388d5ad" x1="120.65" y1="1295.85" x2="156.52" y2="1295.85" xlink:href="#4f1ecee3-5f93-4a73-9920-9a96aa6a0b2b"/>
    <linearGradient id="3bbda56b-3d22-4294-8bc4-eebdd3d286b2" x1="120.04" y1="1295.77" x2="157.16" y2="1295.77" xlink:href="#409dc057-dc95-410e-9745-4f3916011f92"/>
    <linearGradient id="4d70a53a-f7af-4c0a-a657-3b46b24393ff" x1="86.01" y1="1276.17" x2="106.11" y2="1276.17" xlink:href="#4f1ecee3-5f93-4a73-9920-9a96aa6a0b2b"/>
    <linearGradient id="7c6c8184-be1d-40e4-a424-dfe95bd94c63" x1="85.47" y1="1276.17" x2="106.6" y2="1276.17" xlink:href="#409dc057-dc95-410e-9745-4f3916011f92"/>
    <linearGradient id="cea5458c-5413-43bf-974f-d56f99937e46" x1="-89.45" y1="1286.8" x2="-68.22" y2="1286.8" xlink:href="#4f1ecee3-5f93-4a73-9920-9a96aa6a0b2b"/>
    <linearGradient id="14846bbb-1857-4dae-a0dd-2ada3c0e59e5" x1="-90.06" y1="1286.61" x2="-67.72" y2="1286.61" xlink:href="#409dc057-dc95-410e-9745-4f3916011f92"/>
    <linearGradient id="78f8ca21-12a3-4a5f-be6c-1f85067ce600" x1="112.59" y1="1288.3" x2="133.51" y2="1288.3" xlink:href="#4f1ecee3-5f93-4a73-9920-9a96aa6a0b2b"/>
    <linearGradient id="7b097faf-a1b6-4181-9636-f3c1d5379332" x1="112.04" y1="1288.25" x2="134.06" y2="1288.25" xlink:href="#409dc057-dc95-410e-9745-4f3916011f92"/>
    <linearGradient id="f78956b3-285f-421a-abf6-09c0fd2bb91b" x1="-71.91" y1="1243.33" x2="-56.99" y2="1243.33" xlink:href="#4f1ecee3-5f93-4a73-9920-9a96aa6a0b2b"/>
    <linearGradient id="5078ccd9-62f4-4136-a331-9294c96729fe" x1="-72.41" y1="1243.27" x2="-56.37" y2="1243.27" xlink:href="#409dc057-dc95-410e-9745-4f3916011f92"/>
    <linearGradient id="01f59ade-0b65-4ddf-9fea-f729264655fa" x1="-85.85" y1="1267.23" x2="-73.98" y2="1267.23" xlink:href="#4f1ecee3-5f93-4a73-9920-9a96aa6a0b2b"/>
    <linearGradient id="d510f7dd-c9ce-4b6a-8863-1f9f888399ed" x1="-86.44" y1="1267.1" x2="-73.48" y2="1267.1" xlink:href="#409dc057-dc95-410e-9745-4f3916011f92"/>
    <linearGradient id="a283c72f-a5b3-4aad-9b6b-86157b563ccc" x1="102.18" y1="1245.23" x2="115.56" y2="1245.23" xlink:href="#4f1ecee3-5f93-4a73-9920-9a96aa6a0b2b"/>
    <linearGradient id="56487497-3f22-4044-8f8a-4e4a04a3e95c" x1="101.53" y1="1245.2" x2="116.22" y2="1245.2" xlink:href="#409dc057-dc95-410e-9745-4f3916011f92"/>
    <linearGradient id="aca24cce-8e50-46e7-bcb6-835d9bc7b2fb" x1="17.51" y1="1320.81" x2="27" y2="1320.81" xlink:href="#4f1ecee3-5f93-4a73-9920-9a96aa6a0b2b"/>
    <linearGradient id="baad7fe8-6bb6-438a-934a-7e905ec9e886" x1="118.15" y1="1267.9" x2="129.02" y2="1267.9" xlink:href="#4f1ecee3-5f93-4a73-9920-9a96aa6a0b2b"/>
    <linearGradient id="1d687575-62ea-437e-853d-169da950c7ee" x1="117.57" y1="1267.69" x2="129.51" y2="1267.69" xlink:href="#409dc057-dc95-410e-9745-4f3916011f92"/>
    <linearGradient id="7a6026af-e1c5-4601-826b-2d8f0f01bef3" x1="6.64" y1="1320.05" x2="13.36" y2="1320.05" xlink:href="#409dc057-dc95-410e-9745-4f3916011f92"/>
    <linearGradient id="4e01f60e-c269-43d5-a6fb-0708eaa22ea4" x1="31.64" y1="1320.28" x2="38.45" y2="1320.28" xlink:href="#409dc057-dc95-410e-9745-4f3916011f92"/>
    <linearGradient id="dbe011d3-377e-4691-a52e-ee756913cc94" x1="41.92" y1="1319.14" x2="48.66" y2="1319.14" xlink:href="#409dc057-dc95-410e-9745-4f3916011f92"/>
    <linearGradient id="12507b88-7fdf-4ed7-bd24-a58262be8f64" x1="-4.03" y1="1319.05" x2="2.53" y2="1319.05" xlink:href="#409dc057-dc95-410e-9745-4f3916011f92"/>
    <linearGradient id="0751d546-ef74-44ce-8ac3-dc27dc453752" x1="-43.89" y1="1218.33" x2="-37.59" y2="1218.33" xlink:href="#409dc057-dc95-410e-9745-4f3916011f92"/>
    <linearGradient id="b17c405f-a21b-4917-96b4-0e22bce21100" x1="81.18" y1="1219.12" x2="87.76" y2="1219.12" xlink:href="#409dc057-dc95-410e-9745-4f3916011f92"/>
    <linearGradient id="c0e283cf-6806-4c66-a0a7-056348a8fcad" x1="-28.83" y1="1212.83" x2="-22.74" y2="1212.83" xlink:href="#409dc057-dc95-410e-9745-4f3916011f92"/>
    <linearGradient id="10bbc33b-b586-4899-b5ba-47bab923602a" x1="66.27" y1="1214.19" x2="70.46" y2="1214.19" xlink:href="#409dc057-dc95-410e-9745-4f3916011f92"/>
    <linearGradient id="9d30f1b6-2c99-4ce6-bccf-2b408b820a1a" x1="95.9" y1="1229.8" x2="98.87" y2="1229.8" xlink:href="#409dc057-dc95-410e-9745-4f3916011f92"/>
    <linearGradient id="007b8ce2-eae1-4561-81e2-bac503bf86c2" x1="-53.92" y1="1227.5" x2="-51.51" y2="1227.5" xlink:href="#409dc057-dc95-410e-9745-4f3916011f92"/>
    <linearGradient id="310480f1-255f-41b2-a262-fa36e54865a3" x1="3.35" y1="1251.33" x2="36.55" y2="1251.33" xlink:href="#4f1ecee3-5f93-4a73-9920-9a96aa6a0b2b"/>
    <linearGradient id="656b3a54-1467-4eb3-aeb2-df2a9823e447" x1="2.65" y1="1251.33" x2="37.5" y2="1251.33" xlink:href="#409dc057-dc95-410e-9745-4f3916011f92"/>
    <linearGradient id="4692151e-cc43-45cb-8f2d-34f3cd7e6eee" x1="8.79" y1="1235.07" x2="33.13" y2="1235.07" xlink:href="#4f1ecee3-5f93-4a73-9920-9a96aa6a0b2b"/>
    <linearGradient id="4d80650a-17bd-4a70-80b7-af7ec422c5fb" x1="7.83" y1="1235.07" x2="33.71" y2="1235.07" xlink:href="#409dc057-dc95-410e-9745-4f3916011f92"/>
    <linearGradient id="76d15c72-b6c3-4917-91cc-e0b5be2f7235" x1="0.97" y1="1241.95" x2="20.48" y2="1241.95" xlink:href="#4f1ecee3-5f93-4a73-9920-9a96aa6a0b2b"/>
    <linearGradient id="7ba60be3-cc0a-4222-95b6-c55fc549ef72" x1="0.47" y1="1241.95" x2="21.26" y2="1241.95" xlink:href="#409dc057-dc95-410e-9745-4f3916011f92"/>
    <linearGradient id="820423ec-6564-4900-b026-4bd2f3d6b948" x1="15.49" y1="1279.14" x2="25.98" y2="1279.14" xlink:href="#409dc057-dc95-410e-9745-4f3916011f92"/>
    <linearGradient id="dd359e8d-cf27-427a-8135-8bc8d7678b45" x1="22.87" y1="1242.86" x2="37.95" y2="1242.86" xlink:href="#4f1ecee3-5f93-4a73-9920-9a96aa6a0b2b"/>
    <linearGradient id="b9d8d7e6-8e5a-4cb6-8a95-f1654fdecf02" x1="22.37" y1="1242.86" x2="38.54" y2="1242.86" xlink:href="#409dc057-dc95-410e-9745-4f3916011f92"/>
    <radialGradient id="9ca6b9fe-fce9-4243-9f82-dcd207749892" cx="18.71" cy="994.02" r="43.49" gradientTransform="matrix(1, 0, 0, -1, 191.95, 1583.74)" gradientUnits="userSpaceOnUse">
      <stop offset="0.07" stop-color="#c4a873" stop-opacity="0.8"/>
      <stop offset="0.4" stop-color="#aa863b"/>
      <stop offset="0.73" stop-color="#8e702e"/>
      <stop offset="1" stop-color="#8c6f2d"/>
    </radialGradient>
    <linearGradient id="85f785a9-3cd8-426f-988d-c711dc5f1585" x1="-15.48" y1="1061.96" x2="53.84" y2="1061.96" gradientTransform="matrix(1, 0, 0, -1, 191.95, 1583.74)" gradientUnits="userSpaceOnUse">
      <stop offset="0" stop-color="#fff"/>
      <stop offset="0.57"/>
    </linearGradient>
    <linearGradient id="a4d428c2-286d-463f-90e4-8d9315b3c46f" x1="-15.98" y1="1061.93" x2="54.34" y2="1061.93" xlink:href="#409dc057-dc95-410e-9745-4f3916011f92"/>
    <linearGradient id="e8ecb9ad-a38b-47c9-9336-8ba02f41051b" x1="2.01" y1="947.76" x2="19.42" y2="947.76" gradientTransform="matrix(1, 0, 0, -1, 191.95, 1583.74)" gradientUnits="userSpaceOnUse">
      <stop offset="0" stop-color="#fff"/>
      <stop offset="0.7"/>
    </linearGradient>
    <linearGradient id="be77b5e2-866c-4d51-bec4-aeed2f15e767" x1="21.19" y1="947.85" x2="35.69" y2="947.85" xlink:href="#85f785a9-3cd8-426f-988d-c711dc5f1585"/>
    <linearGradient id="4540df4f-77ae-42cb-bcb1-1d7a2a6fef62" x1="63.14" y1="1055.33" x2="73.5" y2="1055.33" gradientTransform="matrix(1, 0, 0, -1, 191.95, 1583.74)" gradientUnits="userSpaceOnUse">
      <stop offset="0" stop-color="#7d3825"/>
      <stop offset="0.54" stop-color="#4f0000"/>
      <stop offset="1" stop-color="#2d0000"/>
    </linearGradient>
    <linearGradient id="5f4748d4-66db-44c3-80e8-852fe7dd5501" x1="-32.58" y1="1054.82" x2="-21.5" y2="1054.82" xlink:href="#4540df4f-77ae-42cb-bcb1-1d7a2a6fef62"/>
    <linearGradient id="fa35f7d0-0fef-4613-abf5-6c427b49c654" x1="34.99" y1="1118.07" x2="53.48" y2="1118.07" xlink:href="#4540df4f-77ae-42cb-bcb1-1d7a2a6fef62"/>
    <linearGradient id="27e8d4f1-5b21-40cb-8138-a4687b88f371" x1="48.91" y1="1085.35" x2="67.22" y2="1085.35" xlink:href="#4540df4f-77ae-42cb-bcb1-1d7a2a6fef62"/>
    <linearGradient id="e048b348-4128-4039-b705-91e52b4af63e" x1="-28.71" y1="1081.69" x2="-19" y2="1081.69" xlink:href="#4540df4f-77ae-42cb-bcb1-1d7a2a6fef62"/>
    <linearGradient id="addd284f-d42f-4855-abc2-9d917b4cc84a" x1="11.92" y1="1103.65" x2="24.47" y2="1103.65" xlink:href="#4540df4f-77ae-42cb-bcb1-1d7a2a6fef62"/>
    <linearGradient id="e929051d-f07e-44e3-bb09-9b123fc99c3c" x1="22.75" y1="1107.35" x2="45.01" y2="1107.35" xlink:href="#4540df4f-77ae-42cb-bcb1-1d7a2a6fef62"/>
    <linearGradient id="166a6886-ac7d-478d-8ed5-e98842f4f22d" x1="-11.01" y1="1104.67" x2="5.92" y2="1104.67" xlink:href="#4540df4f-77ae-42cb-bcb1-1d7a2a6fef62"/>
    <linearGradient id="559082bc-3ecf-49a9-8096-a00567404343" x1="56.74" y1="1097.95" x2="75.19" y2="1097.95" xlink:href="#4540df4f-77ae-42cb-bcb1-1d7a2a6fef62"/>
    <linearGradient id="963819de-4400-4594-a14b-cb13032f2b7a" x1="-22.57" y1="1055.89" x2="-12.9" y2="1055.89" xlink:href="#4540df4f-77ae-42cb-bcb1-1d7a2a6fef62"/>
    <linearGradient id="78a9c088-438a-475e-8b20-b6fca8c54417" x1="69.21" y1="1079.84" x2="78.4" y2="1079.84" xlink:href="#4540df4f-77ae-42cb-bcb1-1d7a2a6fef62"/>
    <linearGradient id="2bed223c-b910-49e2-a49c-433310331877" x1="73.51" y1="1065.57" x2="84.02" y2="1065.57" xlink:href="#4540df4f-77ae-42cb-bcb1-1d7a2a6fef62"/>
    <linearGradient id="39f59289-4ef2-40da-bc6a-d5e08eee8d33" x1="-40.8" y1="1091.59" x2="-32.18" y2="1091.59" xlink:href="#4540df4f-77ae-42cb-bcb1-1d7a2a6fef62"/>
    <linearGradient id="3bc4c589-bf7b-4b3d-bddd-899d7ebf6cb4" x1="54.34" y1="1055.44" x2="61.66" y2="1055.44" xlink:href="#4540df4f-77ae-42cb-bcb1-1d7a2a6fef62"/>
    <linearGradient id="f64314fb-68d0-4cdd-ad69-596f5e264eed" x1="-39.23" y1="1081.45" x2="-29.86" y2="1081.45" xlink:href="#4540df4f-77ae-42cb-bcb1-1d7a2a6fef62"/>
    <linearGradient id="c5e57830-bba7-4aa8-9645-acc19204f517" x1="-14.4" y1="1121.34" x2="-0.67" y2="1121.34" xlink:href="#4540df4f-77ae-42cb-bcb1-1d7a2a6fef62"/>
    <linearGradient id="679fe181-0c2b-445b-8da0-2f07c9c295f6" x1="-48.51" y1="1064.45" x2="-39.9" y2="1064.45" xlink:href="#4540df4f-77ae-42cb-bcb1-1d7a2a6fef62"/>
    <linearGradient id="38849609-2bbf-4082-b44e-a329fe9fd588" x1="0.21" y1="1120" x2="11.45" y2="1120" xlink:href="#4540df4f-77ae-42cb-bcb1-1d7a2a6fef62"/>
    <linearGradient id="e87bb962-45a5-4668-b721-0bbaf686eb1a" x1="-14" y1="1041.51" x2="-7.25" y2="1041.51" xlink:href="#4540df4f-77ae-42cb-bcb1-1d7a2a6fef62"/>
    <linearGradient id="88b26185-4fb9-4611-bc7c-db8bf901f0b8" x1="29.31" y1="1120" x2="38.27" y2="1120" xlink:href="#4540df4f-77ae-42cb-bcb1-1d7a2a6fef62"/>
    <linearGradient id="17186f0b-6af2-443f-94ff-d31924d6878b" x1="-37.66" y1="1066.8" x2="-31.12" y2="1066.8" xlink:href="#4540df4f-77ae-42cb-bcb1-1d7a2a6fef62"/>
    <linearGradient id="1943459d-0f00-4ed4-a002-dda0aaecc185" x1="1.4" y1="1102.35" x2="8.81" y2="1102.35" xlink:href="#4540df4f-77ae-42cb-bcb1-1d7a2a6fef62"/>
    <linearGradient id="3f64605a-288b-43c7-b562-8c1ecd3eb9a0" x1="-41.24" y1="1054.82" x2="-34.84" y2="1054.82" xlink:href="#4540df4f-77ae-42cb-bcb1-1d7a2a6fef62"/>
    <linearGradient id="cb9bcb2a-4ceb-4d9f-a482-90e2a05a5f1a" x1="-45.54" y1="1046.91" x2="-40.95" y2="1046.91" xlink:href="#4540df4f-77ae-42cb-bcb1-1d7a2a6fef62"/>
    <linearGradient id="c98f4150-ddd6-4ae8-9af4-f6be2fd7c84b" x1="-12.56" y1="1110.44" x2="-6.95" y2="1110.44" xlink:href="#4540df4f-77ae-42cb-bcb1-1d7a2a6fef62"/>
    <linearGradient id="b1f26d5d-c863-4750-b9e4-9eee103319ed" x1="-27.58" y1="1102.36" x2="-20.31" y2="1102.36" xlink:href="#4540df4f-77ae-42cb-bcb1-1d7a2a6fef62"/>
    <linearGradient id="c929bfea-4990-40a0-a723-50f28b34da50" x1="41.59" y1="1035.55" x2="47.37" y2="1035.55" xlink:href="#4540df4f-77ae-42cb-bcb1-1d7a2a6fef62"/>
    <linearGradient id="cb78b714-36be-434b-a657-d3148c6857ac" x1="-18.95" y1="1109.3" x2="-14.22" y2="1109.3" xlink:href="#4540df4f-77ae-42cb-bcb1-1d7a2a6fef62"/>
    <linearGradient id="66c443e1-9889-4272-84b3-6177e5be4697" x1="50.21" y1="1043.23" x2="55.71" y2="1043.23" xlink:href="#4540df4f-77ae-42cb-bcb1-1d7a2a6fef62"/>
    <linearGradient id="1f99a520-18a8-46d7-b857-1f2084b2d49c" x1="77.97" y1="1052.45" x2="81.85" y2="1052.45" xlink:href="#4540df4f-77ae-42cb-bcb1-1d7a2a6fef62"/>
    <linearGradient id="16674d7e-1df4-4995-8af5-bcd8ebf27694" x1="48.84" y1="1103.5" x2="53.69" y2="1103.5" xlink:href="#4540df4f-77ae-42cb-bcb1-1d7a2a6fef62"/>
    <linearGradient id="aed368c2-2ed5-4aa8-b698-da564bb16171" x1="28.33" y1="1102.81" x2="33.04" y2="1102.81" xlink:href="#4540df4f-77ae-42cb-bcb1-1d7a2a6fef62"/>
    <linearGradient id="50da6f7f-0678-4c3c-ba77-296a7c9c091e" x1="-50.3" y1="1054.24" x2="-45.7" y2="1054.24" xlink:href="#4540df4f-77ae-42cb-bcb1-1d7a2a6fef62"/>
    <linearGradient id="3560666d-6743-41ae-a53b-983b96120451" x1="-27.95" y1="1094.89" x2="-24" y2="1094.89" xlink:href="#4540df4f-77ae-42cb-bcb1-1d7a2a6fef62"/>
    <linearGradient id="de897fdc-1540-4080-888a-02f606818f76" x1="-54.58" y1="1048.78" x2="-49.71" y2="1048.78" xlink:href="#4540df4f-77ae-42cb-bcb1-1d7a2a6fef62"/>
    <linearGradient id="cf4cd58f-813c-4185-9250-aa69840af296" x1="52.59" y1="1085.77" x2="55.25" y2="1085.77" xlink:href="#4540df4f-77ae-42cb-bcb1-1d7a2a6fef62"/>
    <linearGradient id="f0981b44-a4ba-4d91-a76e-fbecc1a475ae" x1="61.57" y1="1096.43" x2="65.83" y2="1096.43" xlink:href="#4540df4f-77ae-42cb-bcb1-1d7a2a6fef62"/>
    <linearGradient id="763c86c0-9a8a-4b0c-8767-9aa7c5a42d1f" x1="57.61" y1="1072.47" x2="59.9" y2="1072.47" xlink:href="#4540df4f-77ae-42cb-bcb1-1d7a2a6fef62"/>
    <linearGradient id="fc04c20e-d4e0-4cef-9040-dac51676a46e" x1="79.66" y1="1041.35" x2="82.23" y2="1041.35" xlink:href="#4540df4f-77ae-42cb-bcb1-1d7a2a6fef62"/>
    <linearGradient id="1d5e5fd7-518f-4ede-be93-2172261957ca" x1="85.8" y1="1054.1" x2="88.23" y2="1054.1" xlink:href="#4540df4f-77ae-42cb-bcb1-1d7a2a6fef62"/>
    <linearGradient id="a1debbba-a095-47db-8ae5-ee883a29dbac" x1="-3.56" y1="1062.45" x2="42.66" y2="1062.45" gradientTransform="matrix(1, 0, 0, -1, 191.95, 1583.74)" gradientUnits="userSpaceOnUse">
      <stop offset="0" stop-color="#ff7300"/>
      <stop offset="0.08" stop-color="#f97c01"/>
      <stop offset="0.22" stop-color="#ea9602"/>
      <stop offset="0.26" stop-color="#e59e03"/>
      <stop offset="0.47" stop-color="#bf6f00"/>
      <stop offset="0.99" stop-color="#e5c500"/>
    </linearGradient>
    <linearGradient id="fc36b3cc-9758-4c41-aae4-1171eaf8de39" x1="-4.06" y1="1062.45" x2="43.16" y2="1062.45" xlink:href="#409dc057-dc95-410e-9745-4f3916011f92"/>
    <linearGradient id="d68b30fb-7480-4bbc-85f6-132274fec903" x1="13.47" y1="1137.93" x2="23.6" y2="1137.93" gradientTransform="matrix(1, 0, 0, -1, 191.95, 1583.74)" gradientUnits="userSpaceOnUse">
      <stop offset="0" stop-color="#ff7300"/>
      <stop offset="0.18" stop-color="#f97c01"/>
      <stop offset="0.47" stop-color="#ea9602"/>
      <stop offset="0.55" stop-color="#e59e03"/>
      <stop offset="0.99" stop-color="#e5c500"/>
      <stop offset="0.99" stop-color="#bf6f00"/>
    </linearGradient>
    <linearGradient id="3a3e8621-53d1-4c73-984d-98c984815c20" x1="-43.56" y1="1432.59" x2="86.4" y2="1432.59" xlink:href="#409dc057-dc95-410e-9745-4f3916011f92"/>
    <radialGradient id="9009b07b-a450-40c4-9d82-5c089bc77c3f" cx="20.5" cy="1473.63" r="13.15" gradientTransform="matrix(1, 0, 0, -1, 191.95, 1583.74)" gradientUnits="userSpaceOnUse">
      <stop offset="0" stop-color="#fff"/>
      <stop offset="0.05" stop-color="#fdf4ea"/>
      <stop offset="0.18" stop-color="#f9d9b9"/>
      <stop offset="0.31" stop-color="#f6c18f"/>
      <stop offset="0.44" stop-color="#f3ae6d"/>
      <stop offset="0.57" stop-color="#f1a052"/>
      <stop offset="0.71" stop-color="#ef953f"/>
      <stop offset="0.85" stop-color="#ee8f34"/>
      <stop offset="1" stop-color="#ee8d30"/>
    </radialGradient>
    <linearGradient id="f086cdfd-9b96-4ce5-adb2-0aa9d103617f" x1="4.05" y1="1474.96" x2="36.72" y2="1474.96" gradientTransform="matrix(1, 0, 0, -1, 191.95, 1583.74)" gradientUnits="userSpaceOnUse">
      <stop offset="0" stop-color="#be1349"/>
      <stop offset="0.24" stop-color="#be124e"/>
      <stop offset="0.25" stop-color="#be124e"/>
      <stop offset="0.43" stop-color="#f8aeae"/>
      <stop offset="0.47" stop-color="#e7979c"/>
      <stop offset="0.56" stop-color="#c66a78"/>
      <stop offset="0.65" stop-color="#aa445a"/>
      <stop offset="0.74" stop-color="#952643"/>
      <stop offset="0.83" stop-color="#851132"/>
      <stop offset="0.92" stop-color="#7c0428"/>
      <stop offset="1" stop-color="#790025"/>
    </linearGradient>
  </defs>
  <title>FF_Lamen</title>
  <g id="a9cafe27-0c58-42be-b857-7e13b4875d53" data-name="Outer Bands">
    <path id="6439cb72-9815-4001-99cf-f9045088450b" data-name="Out" d="M422.2,300.9A397.6,397.6,0,0,0,400,213.5,400.4,400.4,0,0,0,301.7,65.1,404.5,404.5,0,0,0,216.3,2.3a4.7,4.7,0,0,0-5.2,0A405.4,405.4,0,0,0,109.2,81.8,403,403,0,0,0,3.9,310.7a450.6,450.6,0,0,0-2.4,47.9,402.1,402.1,0,0,0,8.3,79.6A402.7,402.7,0,0,0,137.3,657.9a408.7,408.7,0,0,0,74.2,52.3,4.1,4.1,0,0,0,4.6,0c5.1-3,10.3-5.8,15.4-8.9a406.8,406.8,0,0,0,87.3-71.2,396.6,396.6,0,0,0,66.6-97.2C412.5,477.2,426,418.3,426,347.7,426.1,334.5,424.5,317.8,422.2,300.9Z" fill="#1b1464" stroke="#fc3" stroke-miterlimit="10" stroke-width="3"/>
    <path id="16d551da-d68c-463d-adfa-206c1bb7f0c4" data-name="In" d="M409.5,298.2A386.5,386.5,0,0,0,393.7,232a389.4,389.4,0,0,0-82-139.4,390.7,390.7,0,0,0-95.9-76.7,3.5,3.5,0,0,0-4.1,0Q124.1,66.3,71.1,152.1A388.5,388.5,0,0,0,13.7,364.9a397.5,397.5,0,0,0,6,60.6A383.8,383.8,0,0,0,64.5,549.1q49.2,85.9,133,138.7c4.7,3,9.6,5.7,14.4,8.6a2.7,2.7,0,0,0,3.5,0l1.9-1.1a391.4,391.4,0,0,0,82.5-63.4,389.9,389.9,0,0,0,84-125.4,387.8,387.8,0,0,0,27-101.4,393,393,0,0,0,3-45.9A388.5,388.5,0,0,0,409.5,298.2Z" fill="none" stroke="#fc3" stroke-miterlimit="10" stroke-width="2.5"/>
  </g>
  <g id="08621ee4-b6fd-4046-b5bf-40900caeb60d" data-name="Inner Band">
    <path d="M400.9,283.5a380.6,380.6,0,0,0-53-134.6C314.3,96.1,270.4,54,215.8,23.1l-2-1.1-0.8.3c-4.1,2.4-8.2,4.7-12.2,7.2-64.3,39.6-112.3,93.9-144.6,162A381.4,381.4,0,0,0,23.4,303.1a391.9,391.9,0,0,0-3.5,62.2A383.9,383.9,0,0,0,27,431.1,379.9,379.9,0,0,0,80.1,564.2,374.1,374.1,0,0,0,198.8,681.7c4.8,3,9.8,5.8,14.7,8.7l1.3-.7c4.1-2.4,8.2-4.7,12.2-7.2q92-56.9,140.1-153.6c25-49.9,38-102.8,40.1-158.5A377.9,377.9,0,0,0,400.9,283.5Z" stroke="#6052ff" stroke-miterlimit="10" stroke-width="2"/>
  </g>
  <g id="9a3d7dd5-0720-4d4d-8b5b-a84c901f31f8" data-name="Rays">
    <g id="efa640fa-9b8a-4272-bb7c-3e7fb49c2180" data-name="Dark Rays">
      <path d="M235.4,362v1.3c0.8,8.5,1.5,17,2.3,25.6l3.6,39.4c0.9,10.4,1.9,20.7,2.9,31a6.6,6.6,0,0,0,.6,2c2,4.6,5.7,8.4,5.5,13.6l0.4,0.2,1.2,0.2a25.2,25.2,0,0,1,17,11.5c4.4,7,5.4,14.6,3.6,22.6-0.3,1.2-.3,2.1.8,2.9a22.4,22.4,0,0,1,8.8,14.1A6.7,6.7,0,0,0,285,531c2.3,1.6,3,3.9,3,6.5a20.9,20.9,0,0,1-.4,4.3c-1.1,4.7-2.7,9.2-7.1,12a5.1,5.1,0,0,0-1.9,2.6,28.6,28.6,0,0,0-1,4.2,70.8,70.8,0,0,1-1.6,8,76.9,76.9,0,0,1-11.4,21.3,21,21,0,0,1-5.8,5.7,3.4,3.4,0,0,0-1.7,3.8c1.3,13.8,2.5,27.5,3.8,41.3,0.1,0.8.2,1.5,0.4,2.5l2-1.5a366.6,366.6,0,0,0,91.9-115.4,4.2,4.2,0,0,0,.2-3.8q-30.9-81.6-61.7-163.3l-1.1-2.5-3.8,3.2-7.7,7.5a29.1,29.1,0,0,1-15.4,7.8c-6.8,1.3-12.9.1-18-4.7-1.7-1.6-3.2-3.3-4.8-5s-1.4-1.7-2.3-2.5A6.5,6.5,0,0,0,235.4,362Z" fill="url(#f7ebd9a3-64af-43bc-81af-04e944d6ccf2)"/>
      <path d="M184.5,456.1c1-5.1,8.6-91.4,8.3-93.4a5.8,5.8,0,0,0-4.3.6,49.8,49.8,0,0,0-4.7,3.3c-1.8,1.5-3.4,3.2-5.1,4.7A17.6,17.6,0,0,1,166,376c-7.3-.1-13.9-2.1-19.4-7.1-3-2.7-5.9-5.7-8.8-8.5l-2.2-1.9-1.1,2.6q-30.7,81.3-61.4,162.4a5.1,5.1,0,0,0,.2,4.5,370.4,370.4,0,0,0,49.9,73.5,361.4,361.4,0,0,0,42,41c0.6,0.5,1.1,1.4,2.1,1.2a1.1,1.1,0,0,0,.1-0.5l3.6-38.9a2.7,2.7,0,0,0-1-2.5c-2.8-2.5-5.6-5-8.2-7.7-9-9-13.6-20.1-16.2-32.3-0.4-2.1-.7-4.3-1.2-6.4a6.6,6.6,0,0,0-1.6-3.1c-4.2-4-6.1-9.5-9-14.4-1.6-2.7-.8-5,1.9-6.5s3.3-3.1,2.5-5.7a7.8,7.8,0,0,1,1.3-6.6,16,16,0,0,1,1.8-2.5c1.8-2,3.7-4,5.6-5.9a4.6,4.6,0,0,0,1.3-5.4,19.2,19.2,0,0,1-1.1-4.6,24.3,24.3,0,0,1,1.8-11c2.6-6.2,7-10.2,13.7-11.5l2.4-.4a6.7,6.7,0,0,0,5.3-4,46,46,0,0,0,3.4-9.4,7,7,0,0,1,1.2-2.8,13.2,13.2,0,0,1,5.6-4A27.4,27.4,0,0,1,184.5,456.1Z" fill="url(#bcf44b49-0a71-48b3-8d3d-83a071591178)"/>
      <path d="M78,282.2c-2.3,2.4-4.3,4.6-6.4,6.6L34.4,325.5a4,4,0,0,0-1.4,2.9c-0.2,4.2-.6,8.5-0.7,12.7a393.9,393.9,0,0,0,1.2,48.6c1.1,12.1,2.7,24.1,4.9,36.1a15.6,15.6,0,0,0,.7,1.7L107,317.4C97.5,305.8,89.3,293.1,78,282.2Z" fill="url(#f628ab4a-4651-427b-adb5-7b105067ed6e)"/>
      <path d="M322.1,318.1c22.1,35.7,44.3,71.6,66.7,108.1a5.1,5.1,0,0,0,.4-1.4c1.1-7.4,2.4-14.8,3.4-22.3a325.9,325.9,0,0,0,2.6-34.2,396.8,396.8,0,0,0-.8-40.8,5.7,5.7,0,0,0-1.6-3.6l-41.7-41.1-1.8-1.5-1.3,1.5c-4.9,5.9-9.8,11.8-14.6,17.8a76.7,76.7,0,0,0-5.3,7.4C326.1,311.2,324.3,314.5,322.1,318.1Z" fill="url(#fc9f5415-2102-4c9e-8978-ac05acb2b2fe)"/>
      <path d="M46,253.9l0.4,0.4,2-1.2,103.2-67.5A7.5,7.5,0,0,0,154,183l6.1-11.9,0.7-1.7-2.3.8L63.8,208.4a4.9,4.9,0,0,0-2.9,2.9,380.7,380.7,0,0,0-14.2,40.5A10.3,10.3,0,0,0,46,253.9Z" fill="url(#0a4790d2-1522-409f-8db1-d0e9d8f785a3)"/>
      <path d="M267.2,168.9l-0.4.3a20,20,0,0,0,1,2.1l4.9,9.9a7.7,7.7,0,0,0,3.3,3.6l85.3,55.8,17.3,11.3c0.7,0.4,1.3,1.2,2.5.8a15.5,15.5,0,0,0-.6-2.3c-4-13.4-8.6-26.6-13.9-39.6a6.4,6.4,0,0,0-3.9-3.8l-85-34.1Z" fill="url(#b4421c69-e418-48eb-9fb7-61ec87a65fc5)"/>
      <path d="M185.9,225.2c-9.8,25.8-19.5,51.5-29.3,77.5,4.6,0.5,7.5,2.7,9.1,6.5h1.1c2.9-.4,4.7,1.1,5.8,3.6l1.4,3.1c4.5,0.6,4.8.8,8,4.1l1.2,1.2a1.8,1.8,0,0,0,1.9.5c1.7-.7,3.1,0,4.5.9l2.5,1.7a53.2,53.2,0,0,0,2.9-5c2.2-4.3,3-8.8,3.5-13.6a9.6,9.6,0,0,0-2.3-7.9l-0.9-1.1-14.9-19.4a9.9,9.9,0,0,1-2.3-5.2,4.6,4.6,0,0,1,2.5-5.2,15.7,15.7,0,0,0,6.2-5.5,5.1,5.1,0,0,1,4.9-2.4l2.6,0.2a16.3,16.3,0,0,0,3.1-.3l5.4-1.5c0.9-10.4,1.9-21.2,2.9-32.1H185.9Z" fill="url(#69bdc001-677d-4b58-ba36-29906432cdde)"/>
      <path d="M271.5,301.4q-14.4-38.2-28.8-76.2H222.8c0.9,10.3,1.9,20.5,2.7,30.3,1.7,0.7,3.3.9,4.3,1.9s3.4,2.3,5.8,1.5a5.4,5.4,0,0,1,6.7,2.9,5.8,5.8,0,0,0,4.8,3.7,4.7,4.7,0,0,1,3.7,5.6,10.6,10.6,0,0,1-1.2,3.4,33,33,0,0,1-3.4,4.9L231.5,298c-0.4.6-.9,1.1-1.3,1.8a3.3,3.3,0,0,0-.5,1.6c0.7,5.7.1,11.7,2.7,17.2a27.7,27.7,0,0,1,1.2,4.1,14.2,14.2,0,0,0,.5,1.6c3.1-1.2,5.4-4.6,9-2.6a2.3,2.3,0,0,0,.7-0.6,16.3,16.3,0,0,1,8.4-5.7c1-.2,1.2-1,1.5-1.7a6.7,6.7,0,0,1,7.2-4.8h0.9C265.8,303.3,265.8,303.3,271.5,301.4Z" fill="url(#ccc3ce1c-2957-4bfd-8c0e-6e585eac7d18)"/>
      <path d="M163.9,225.3l-2-.2h-24a3.6,3.6,0,0,0-2.9,1.3L94.2,266.7,93,268.1a10.9,10.9,0,0,0,6,5c3.1,1.3,6.4,2,8.7,4.3a21.2,21.2,0,0,1,3.8-1.5,7.4,7.4,0,0,1,6.1,1.4c2,1.4,3.9,3,5.9,4.5a44,44,0,0,0,3.9,2.6Z" fill="url(#a208a87a-5f00-49c4-af14-acf537289418)"/>
      <path d="M264.8,225.2l1.7,2.8,32,51.8a8.3,8.3,0,0,0,4.1,3.7,20.9,20.9,0,0,1,2.2-2,50.9,50.9,0,0,1,5.8-4.6,7.5,7.5,0,0,1,9,0l1,0.5c2.6-2.8,5.4-4.7,9.3-3.6l5.4-6.3-1.3-1.4-22.2-21.9-18.1-17.8c-0.7-.6-1.2-1.4-2.4-1.3H267.1A5.8,5.8,0,0,0,264.8,225.2Z" fill="url(#d9608721-4112-4c4a-94c9-90451933ac23)"/>
      <path d="M87.1,160h1.4l29-3.5,34-4.1,17.4-2.1a3.3,3.3,0,0,0,2.9-2c0.8-1.8,1.8-3.6,2.7-5.3s1.1-2.2,1.7-3.5l-1.9-.5-61.4-13.2a2.8,2.8,0,0,0-3.2,1.2c-7.7,10-14.8,20.2-21.5,30.9A14.7,14.7,0,0,1,87.1,160Z" fill="url(#991218dd-450a-48bb-9ce0-ba5887793481)"/>
      <path d="M252,139.4c1.5,3.1,3,5.9,4.3,8.8a2.9,2.9,0,0,0,2.7,1.9l19.3,2.3,60.2,7.3a10.6,10.6,0,0,0,1.8,0,359,359,0,0,0-23.8-34.2Z" fill="url(#0cf46d8b-c24c-46e9-8d14-32c18876d583)"/>
      <path d="M159.3,74.7c-8.6,7.5-16.6,15-24.4,23.2l48.2,28.3,6-11.6C179.2,101.4,169.3,88.2,159.3,74.7Z" fill="url(#bad6abf3-a9a1-4f6f-861f-41f7214dfea9)"/>
      <path d="M292.9,98.3c-7.7-8.1-15.6-15.6-24-22.9l-1.6,1.9c-2.6,3.5-5.3,7-7.9,10.6l-18.5,24.8a3.2,3.2,0,0,0-.3,3.9c1.4,2.6,2.7,5.3,4,7.9l1,1.7Z" fill="url(#4dfcd564-1336-42a6-bb93-e67e77f995aa)"/>
      <path d="M196.8,99.6a24.6,24.6,0,0,0,1.4-2.6c1.8-3.5,3.6-7.2,5.5-10.6a9.5,9.5,0,0,0,1.1-6.2c-1.5-11.3-2.8-22.7-4.3-34-0.1-.6-0.3-1.2-0.5-2.2L179.8,58Z" fill="url(#616a7432-f33e-4520-a714-3b9c1ab3a6b8)"/>
      <path d="M248.1,58.9c-3.3-3.3-18-13.2-19.9-13.6,0,0.2-.1.3-0.1,0.5-1.4,11.6-2.9,23.2-4.3,34.7a5.2,5.2,0,0,0,.6,3c2.2,4.6,4.5,9.2,6.8,13.8a7.6,7.6,0,0,0,1,1.3C237.5,85.2,242.8,72,248.1,58.9Z" fill="url(#8930758a-44a5-477e-83c9-d675fc059e5e)"/>
    </g>
    <g id="7f0ed1d2-53d5-4978-b861-3e94e55c6108" data-name="Light Rays">
      <path d="M133.2,356.9l-12.1-18.4c-4-6.1-7.7-12.4-12.5-18.2l-1.6,2.5L40.9,429.9a5.2,5.2,0,0,0-.8,4.5c0.5,1.7.8,3.4,1.2,5.1a368.7,368.7,0,0,0,28,80.2l1.5,2.7C91.6,466.8,112.4,411.8,133.2,356.9Z" fill="#fff"/>
      <path d="M357.4,521.2c0.7-1.2,1-1.9,1.4-2.6a378.1,378.1,0,0,0,29-85.9,5.5,5.5,0,0,0-.8-4.5l-24-38.8-41.7-67.6-1.4-2c-1,1.2-2,2.1-2.7,3.1-2.5,3.2-5.1,6.4-7.4,9.8-5,7.4-9.9,14.9-14.9,22.5C315.6,410.3,336.4,465.5,357.4,521.2Z" fill="#fff"/>
      <path d="M254.3,600.3l-0.5-.3c-2.9,3.4-6.7,5.4-10.5,7.4a96.6,96.6,0,0,1-17.9,6.7,2.6,2.6,0,0,0-2.2,2.6,25.9,25.9,0,0,0,6.1,21c2,2.4,4.2,4.6,6.2,7l1.8,2.1-0.9,1.4a30.3,30.3,0,0,1-31.2,10.9,40.4,40.4,0,0,1-11.8-5.3c-2.4-1.5-4.7-3.2-7.1-4.8a10.6,10.6,0,0,1,4.8-5.2c4.2-2.6,6.7-6.5,8.3-11.1s2.1-10.1,2.2-15.4a11,11,0,0,0-.2-1.8c-4.8-1.4-9.5-2.7-14.1-4.2a57.7,57.7,0,0,1-13.5-6.5c-0.2,1.9-.4,3.4-0.5,4.9-1.1,11.5-2.1,23.1-3.2,34.6a3.2,3.2,0,0,0,1.5,3.4,379.2,379.2,0,0,0,40.1,27.5,3.6,3.6,0,0,0,4.1,0,372.5,372.5,0,0,0,40.3-27.6c1.7-1.3,2.6-2.7,2.1-4.8a4.9,4.9,0,0,1-.1-1.2c-0.9-10.1-1.8-20.2-2.8-30.3C255,607.6,254.6,603.9,254.3,600.3Z" fill="#fff"/>
      <path d="M220.4,453.7l2.4-.3a17.5,17.5,0,0,1,11.9,1.6l4.6,2.1a7.7,7.7,0,0,0,2,.4c-2.9-31.4-5.7-62.6-8.6-94.2l-5.6,5a7,7,0,0,0-2.4,5.8c0,1.7,0,3.4.1,5a14.1,14.1,0,0,1-3,10.1l-1.1,1.5a18.1,18.1,0,0,0-3.4,7.3c-0.4,1.6-.8,3.3-1.3,4.9a6.7,6.7,0,0,1-3.4,4.3c-0.7-1.2-1.5-2.2-2.1-3.4a35.3,35.3,0,0,1-1.5-4.6,23.3,23.3,0,0,0-4.1-8.9,17.2,17.2,0,0,1-3.4-12.4,25.3,25.3,0,0,0-.1-5.5c-0.4-3.1-3.1-6.6-5.7-7.6-0.9,3.8-8.4,88.6-8,90.5a38.3,38.3,0,0,1,13.1-.7c-1-2.9-2-5.4-2.8-8a14.7,14.7,0,0,1,.1-9.7,21.7,21.7,0,0,1,4.2-7.2,44.1,44.1,0,0,1,10.7-8.5,5.6,5.6,0,0,1,1.7-.6c1.1,5.8,3.5,10.9,5.7,16.2l0.3,0.9c1.3,3.9,1.8,7.8-.1,11.7A6.2,6.2,0,0,0,220.4,453.7Z" fill="#fff"/>
      <path d="M376,253.5l-98.9-64.7a2.6,2.6,0,0,0,.3,1.8l14.7,29.6a11,11,0,0,0,1.9,2.5l41.8,41.2,1.8,1.7,0.7-.2c4.4-2.2,8.8-3.2,13.7-1.6a6.1,6.1,0,0,0,3.5-.3,34.8,34.8,0,0,0,3.8-2c2.7-1.4,5.3-3,8-4.3S372.8,254.8,376,253.5Z" fill="#fff"/>
      <path d="M150,190.4l-0.4-.3L51.5,254.3a0.7,0.7,0,0,0,.3.5,74.8,74.8,0,0,1,21.9,8.9,2.4,2.4,0,0,0,2.3.2,13.2,13.2,0,0,1,7.1-.3l8,2.1,0.4-.2,41.1-40.6a6.2,6.2,0,0,0,1-1.6c0.4-.9.6-2,1.1-2.9l14.4-27.9Z" fill="#fff"/>
      <path d="M169.3,153.1h-2.4L149,155.3l-62.1,7.5a3.6,3.6,0,0,0-3,2,380.9,380.9,0,0,0-19.7,38.1l-1,2.6,2.8-1.1,58.2-23.5,36.7-14.8a4.2,4.2,0,0,0,2.3-1.6C165.4,161,167.2,157.3,169.3,153.1Z" fill="#fff"/>
      <path d="M259,152.9a8.6,8.6,0,0,0,.5,1.5l4.3,8.8a4.2,4.2,0,0,0,2.5,2.4l10.9,4.3,83.4,33.5,2.9,1.1a20.5,20.5,0,0,0-.7-2,361.1,361.1,0,0,0-19.7-38.1,3,3,0,0,0-2.6-1.7l-34.3-4.1-34-4.1Z" fill="#fff"/>
      <path d="M155,299.2c9.4-24.9,18.7-49.3,28-74l-2-.2c-3.9,0-7.8.1-11.8,0a3.1,3.1,0,0,0-3,1.8l-34.9,56.6c-0.4.6-.6,1.2-1.2,2.2,5.6-.4,7.8,4.4,11.3,6.8,4.1-1.2,5.7-1,8.4,1.2a30.7,30.7,0,0,1,2.5,2.6Z" fill="#fff"/>
      <path d="M245.6,225l27.6,73.1a19.4,19.4,0,0,1,1.4-1.8,60.3,60.3,0,0,1,4.2-4.5c2-1.6,3.6-1.4,5.7.1l1.9,1.1a6.1,6.1,0,0,0,1.3-1.6,10.6,10.6,0,0,1,5.6-5,6.8,6.8,0,0,0,3.8-3.8l-16.7-27c-5.9-9.6-11.9-19.2-17.7-28.8a3.4,3.4,0,0,0-3.5-1.9c-2.2.1-4.3,0-6.5,0h-7.1Z" fill="#fff"/>
      <path d="M44.7,258.7a367.7,367.7,0,0,0-11.2,63.1l0.5,0.3,42.2-41.6C67,271.2,56.9,263.7,44.7,258.7Z" fill="#fff"/>
      <path d="M393.5,320.8c0.8-8.7-8.2-58-11.4-62.6a269.8,269.8,0,0,0-30.6,21.2Z" fill="#fff"/>
      <path d="M181.9,128.7l-48.7-28.6c-3.8,3-18.7,20.4-19.7,23l64.2,13.8Z" fill="#fff"/>
      <path d="M294.8,100.3c-16.1,9.5-32,18.9-48.2,28.3,1.4,2.9,2.8,5.5,4.1,8.3l63.9-13.7C308.2,115.1,301.7,107.7,294.8,100.3Z" fill="#fff"/>
      <path d="M190.5,112c1.4-2.7,2.6-5.1,3.8-7.3a3.6,3.6,0,0,0,.1-3.6c-5.4-13.1-10.7-26.2-16-39.3a18.2,18.2,0,0,0-1-1.9l-16.1,13C171.1,85.9,180.6,98.8,190.5,112Z" fill="#fff"/>
      <path d="M250.6,60.3l-1.1,2.6-5.9,14.4c-3.1,7.6-6.2,15.2-9.2,22.9-0.3.8-.8,1.8-0.5,2.5,1.3,3,2.8,5.8,4.4,9.1l28.6-38.2Z" fill="#fff"/>
      <path d="M207.4,78.8l1.2-2c1.4-2.7,2.7-5.4,4.2-8.1s3-2.2,4.1,0,1.4,2.9,2.1,4.3l1.9,3.7h0.6c1.4-11.1,2.8-22.3,4.1-33.5l-10.8-6.5a1.9,1.9,0,0,0-2.4.1c-2.5,1.5-4.9,3.1-7.4,4.4s-2.1,2.2-1.9,4.1c1.2,8.7,2.2,17.4,3.3,26.2C206.7,73.6,207,76,207.4,78.8Z" fill="#fff"/>
      <path d="M205.4,258.4a4.9,4.9,0,0,0,4.6-.7,7.1,7.1,0,0,1,8.1-.1,6,6,0,0,0,2.9.8c1.7,0.1,2.1-.5,2-2.1-0.8-8.4-1.5-16.9-2.3-25.3l-0.6-5.8H208.4Z" fill="#fff"/>
    </g>
  </g>
  <g id="09b1cbbf-017a-4a89-a89b-4e6cf7c0ac24" data-name="Dove">
    <g>
      <path d="M157,350.4a11.6,11.6,0,0,1-1.9-2.1,52,52,0,0,1-3.8-6.9c-1.3-2.8-2.2-5.8-3.5-8.7s-2.8-5.9-4.3-8.8c-0.6-1.2-1.6-2.2-3.3-1.7a9.1,9.1,0,0,0,.6,6.1c0.9,2.3,2.2,4.4,3.2,6.7,1.8,4,3.6,8,5.3,12a8.5,8.5,0,0,1,.3,2,6.9,6.9,0,0,1-3.4-3.1,22.2,22.2,0,0,1-2-4.1,64.1,64.1,0,0,0-5.6-11.1,48.7,48.7,0,0,1-2.8-5.6c-0.8-1.7-1.5-3.6-2.4-5.2a11.4,11.4,0,0,0-2.3-3c-1.4-1.3-2.7-1.2-4.5.1a32.6,32.6,0,0,0,3.7,10c2.1,3.7,4.5,7.4,6.8,11,0.7,1.2,1.6,2.3,1.4,4.2a23.8,23.8,0,0,1-6.9-7.3c-2.1-3.4-3.8-7-5.8-10.5s-2.8-4.7-4.3-6.9a9.1,9.1,0,0,0-4.2-3.1l0.7,2.5a42.9,42.9,0,0,0,5.7,10.8l6.8,9.3a44.4,44.4,0,0,1,6.1,10.3,11.3,11.3,0,0,0,1.2,2.1c0.7,1,1.4,1.6,2.8,1s1.9-.2,2.1,1.3,0.1,2.4.3,3.6,0.7,2.6,2.8,2.5a12.7,12.7,0,0,1,8.9,3,6.7,6.7,0,0,0,1.1.7l0.8-.3c1.9-.8,2.5-0.6,3.3,1.3s0.4,1.4.7,2c0.9,2.5,1.4,2.8,3.9,2.3l2-.5c0.2-1.2.4-2.4,0.7-3.8l4.6,3.3a4.1,4.1,0,0,0,5.3.2c3.6-2.3,7.1-4.7,9.3-8.5l1-1.4c1.6-1.9,3-2.1,4.9-.6a7.2,7.2,0,0,0,4.4,1.6h3.8a23.6,23.6,0,0,1,3.8.2c1.3,0.2,2.7.5,3.1,2.1-2.4,1.7-5.2-1-8,1l3.4,0.7,3.3,0.5a2.1,2.1,0,0,1,2,2c-2.2.8-4.3-1-6.5,0.1,0.3,1.7,1.5,2.4,2.8,3l4.2,1.7a33.9,33.9,0,0,1-2.3,3.2,5.8,5.8,0,0,0-1.4,4.2,9.2,9.2,0,0,0,2.4,5.9c1.8,2.3,2.9,4.8,2.1,7.8a2.6,2.6,0,0,0,.9,2.6c1.6,1.8,4.3,1.7,6.1-.4a2.2,2.2,0,0,0,.5-1.9,7.7,7.7,0,0,1,1.2-6.6c0.9-1.5,1.9-3,2.7-4.5a7,7,0,0,0,.6-5.1,4.9,4.9,0,0,0-2.6-3.5c-1-.5-1-1.4,0-2.1a25.3,25.3,0,0,1,2.3-1.2c1-.6,2.7-0.8,2.5-2.2s-2-1.2-3.2-1.3-2,.1-3-0.7c3.1-2.5,7-1.1,10.2-2.6a6.5,6.5,0,0,0-2.2-.8H222c-0.9,0-1.9.1-2.6-.9s1.9-1.7,3.2-1.6a18.8,18.8,0,0,0,7.1-.4h0.2a6.3,6.3,0,0,0,4.6-1.2,3.4,3.4,0,0,1,4.6.5,26.2,26.2,0,0,1,2.2,2.5c0.9,1.2,1.6,2.4,2.4,3.6,3.7,5.1,9.2,5.9,14.2,2.1l1.8-1.3c0.1,1.3.2,2.3,0.3,3.3l1.8,0.4c2.6,0.3,3.1,0,4-2.6l0.9-2.5c0.4-.9,1.2-1.5,2.1-1s2.5,0.2,3.7-.6a10.8,10.8,0,0,1,7.6-2.4c2.4,0.2,2.9-.2,3.3-2.6s0.3-2.4.5-3.6,0.7-1.7,1.8-1.4,2.3-.4,3.1-1.5c2.5-3.7,5.2-7.3,7.8-11,4.5-6.4,8.9-12.9,12.1-20.1,0.4-.8.7-1.7,1.2-3-2.6.6-3.7,2.3-4.7,3.9-3,4.8-6,9.6-9.1,14.4-1.6,2.5-3.3,4.9-5,7.4a3.5,3.5,0,0,1-3.8,1.9l2.3-4.2c2-3.2,4.1-6.3,5.9-9.6s3.1-6.3,4.7-9.4c0.4-.8.7-1.6-0.1-2.4a2.4,2.4,0,0,0-2.9-.5,7,7,0,0,0-3.6,3.4,22,22,0,0,0-1.7,4.5,34.4,34.4,0,0,1-5.2,10.5,44,44,0,0,0-5,9,16.8,16.8,0,0,1-2.1,3.7,3,3,0,0,1-3.3,1.4,29.1,29.1,0,0,1,1-2.8c1.5-3.2,3.2-6.3,4.7-9.5s2.7-6,3.9-9a28.8,28.8,0,0,0,.9-4.6,6.3,6.3,0,0,0-4.8,3.5,49.3,49.3,0,0,0-3.1,7.5,27.3,27.3,0,0,1-4.1,8.6,18.3,18.3,0,0,0-3.4,6.3,3.1,3.1,0,0,1-2.6,2.4,31.9,31.9,0,0,1,1.2-4c1-2.2,2.2-4.3,3.2-6.4a54.6,54.6,0,0,0,2.6-6.7,8.7,8.7,0,0,0,0-4.8,5.5,5.5,0,0,0-3.7,2.7c-0.9,1.5-1.5,3.2-2.3,4.7-1.5,3.3-2.9,6.6-4.5,9.8a8.8,8.8,0,0,1-4.4,4.3,4.9,4.9,0,0,1,.9-3.6c0.5-1.1,1.3-2.1,1.7-3.2a9.1,9.1,0,0,0,.6-3.2c-0.1-1.9-1.1-2.5-2.9-1.9a5.2,5.2,0,0,0-3.2,2.8c-0.6,1.3-1.1,2.7-1.6,4a30.4,30.4,0,0,1-1.7,3.7,3.5,3.5,0,0,1-3.6,2,20.3,20.3,0,0,0,.5-3.3c0-.9,0-2.1-0.5-2.6s-1.9-.2-2.8.4l-0.6.4c-1.7,1.5-3.5,1.3-5.3.2a8.3,8.3,0,0,1-3.9-8.8c0.5-1.9,1.3-3.8,1.8-5.7a15.8,15.8,0,0,0,.4-3.8,1.7,1.7,0,0,0-1.4-1.9,2.1,2.1,0,0,0-2.2,1.5,9.4,9.4,0,0,0-.4,1.6c-0.2,1-.2,2.1-0.5,3.1s-0.4,1.9-1.6,2.2a21.2,21.2,0,0,1-2.9-6.3c-1.7-5-3.5-9.9-5.2-14.9-0.9-2.6-1.6-5.2-2.3-7.8a4.9,4.9,0,0,1,.9-4.5l8-10.2c3.2-4,6.7-7.8,9.8-11.8a25.2,25.2,0,0,0,3.2-5.8,5.1,5.1,0,0,0-.5-4.6,12.2,12.2,0,0,0-5.9,5.5c-2.7,4.4-4.7,9.3-8,13.3-0.7.8-1.1,1.8-1.7,2.6a2.8,2.8,0,0,1-2.6,1.1l1.9-3.9c1.8-3,3.7-6,5.4-9.1a23.7,23.7,0,0,0,2-4.6c0.6-2-.4-3.4-2.5-3.8a9.6,9.6,0,0,0-1.7,0,32.1,32.1,0,0,0-3.8,8.2l-3.9,10a6.5,6.5,0,0,1-1,1.5,4.3,4.3,0,0,1-.1-2.5c0.6-2.6,1.3-5.3,2-7.9s1.2-4.8,1.6-7.2-0.2-2.6-2.2-3h-1.4c-1.7,0-2.1.4-2.3,2.1s-0.3,4-.5,6-0.6,6.7-1,10a6.7,6.7,0,0,1-1.7,3.9c-0.6-3.9-.2-7.3,0-10.8s0.4-5.1.4-7.7-0.6-3.2-3.1-3.7a8.1,8.1,0,0,0-3.1,0c-2,.4-2.5,1-2.5,3.1a16.2,16.2,0,0,0,.2,3.1c0.4,2.7.9,5.4,1.4,8a13.1,13.1,0,0,1-.3,6.8,7.8,7.8,0,0,1-.9-2.4c-1.2-5.5-2.5-11.1-3.7-16.6-0.4-1.9-1.6-2.7-3.3-2.3s-3.2,1.9-2.7,3.7,1.5,5,2.3,7.6,1.6,5.7,2.3,8.5a7.5,7.5,0,0,1,0,1.5c-4.8-6.3-6.2-14.1-9.7-21-1.8.3-3.6,0.1-5,1.6a24.2,24.2,0,0,0,2.9,7.3c1.4,2.5,2.9,5,4.2,7.5a21.9,21.9,0,0,1,2.6,7.7,15.9,15.9,0,0,1-1.9-2c-1.8-2.7-3.6-5.5-5.2-8.3s-1.6-3.8-2.6-5.7a38.4,38.4,0,0,0-3.5-5.4,6,6,0,0,0-4.5-2.4,4.4,4.4,0,0,0-.6,5,25.8,25.8,0,0,0,3.2,5.3c4.7,6.3,9,13.1,14.7,18.6l0.2,0.2a11.8,11.8,0,0,1,2,12.2,48.5,48.5,0,0,1-2.9,6.1,35.8,35.8,0,0,0-3.6,9.4q-0.9,3.3-2.1,6.6a9.6,9.6,0,0,1-1.7,2.4h-0.6c-0.3-1.3-.5-2.6-0.8-3.9a11.7,11.7,0,0,0-.9-3.2,1.9,1.9,0,0,0-2.3-1.2,2.3,2.3,0,0,0-1.3,1.7,17.1,17.1,0,0,0,.3,4.5c0.4,1.8,1.2,3.5,1.6,5.3,0.9,3.7-.1,6.2-3.3,8.2l-1.5.8c-1.6,1-3.1,1.1-4.5-.4l-1-.7a2.3,2.3,0,0,0-2.5-.1,2,2,0,0,0-.7,2.4c0.1,0.7.4,1.4,0.5,2.1a6.5,6.5,0,0,1-.2,1.9,5.2,5.2,0,0,1-3.4-3.2c-0.6-1.3-1-2.7-1.6-4a31.1,31.1,0,0,0-2-4.1c-1.1-1.6-3.3-2.4-4.3-1.8s-1.6,2.7-.9,4.6,1.3,2.9,1.9,4.4,0.5,1.9.9,3.3a9,9,0,0,1-3.7-3.5c-1.5-2.9-2.9-5.8-4.3-8.8s-1.5-4-2.4-6a6.1,6.1,0,0,0-3.6-3.6c-1.8,1.4-2,2.2-.9,4.6,2,4.6,3.3,9.5,6,13.8A2.9,2.9,0,0,1,157,350.4Z" stroke-miterlimit="10" fill="url(#4f1ecee3-5f93-4a73-9920-9a96aa6a0b2b)" stroke="url(#409dc057-dc95-410e-9745-4f3916011f92)"/>
      <path d="M267.5,306.9c-2.9,4.2-8.4,24.2-7.9,28.2,1.4-.3,2.8-1,4-0.8s2.5,1.5,3.8,2.4a20.5,20.5,0,0,0,2.4-6.5,4,4,0,0,1,1.6-2.8,18.7,18.7,0,0,0,6.5-11.6,57.1,57.1,0,0,1,4.5-15.1,14.6,14.6,0,0,0,1-3.4c0.3-1.6-.7-2.5-2.2-2.1a6.1,6.1,0,0,0-2.7,1.8,43.1,43.1,0,0,0-8.6,14,49.2,49.2,0,0,0-1.4,5.8,22.1,22.1,0,0,1-.8,3.7c-0.9,2.5-2.1,4.8-2.2,7.5a1.8,1.8,0,0,1-2.1,1.9c0.3-1.1.5-2.1,0.7-3.1,0.9-3.6,2-7.2,2.8-10.9A18,18,0,0,0,267.5,306.9Z" stroke-miterlimit="10" fill="url(#0bdff32b-d0af-489a-ba71-7e03d3e2224d)" stroke="url(#4419854a-bce3-430b-b869-cd216c437c50)"/>
      <path d="M167.6,334.4c-0.1-1.2-.1-2-0.2-2.9-0.8-3.8-1.5-7.5-2.4-11.3s-1.6-7.5-3.5-10.9a4.5,4.5,0,0,0-1.9-2.3c0.2,8,2.1,15.4,3.8,22.9a12.2,12.2,0,0,1-2-3.5c-0.8-2.3-1.4-4.7-2-7.2a68.9,68.9,0,0,0-4.7-14.8,25,25,0,0,0-5.6-7.7,6.6,6.6,0,0,0-2.2-1.5,2.3,2.3,0,0,0-2,.2,2.4,2.4,0,0,0-.4,1.9c0.3,1.3.8,2.6,1.2,3.9,2.2,6.7,4.5,13.3,5.2,20.4a3.5,3.5,0,0,0,1.4,2.4,23.9,23.9,0,0,1,6.8,10.3,3.7,3.7,0,0,0,.7,1.2C162.1,334.3,164.6,333.4,167.6,334.4Z" stroke-miterlimit="10" fill="url(#a0f89462-3ceb-4538-a677-bc601d4635f2)" stroke="url(#271cc218-5c0e-42fd-9688-6aba8db15849)"/>
      <path d="M177.3,335.3h-0.8c-0.4-1.4-.9-2.8-1.3-4.3-1.3-4.6-2.5-9.2-3.9-13.8a15.4,15.4,0,0,0-2-3.8c-1-1.3-2.6-.9-3.1.7a4.7,4.7,0,0,0-.2,1.7,17.3,17.3,0,0,0,1.6,8.4c2.2,4.8,4,9.7,3.9,15.2a4.6,4.6,0,0,0,1.5,3.7,3.5,3.5,0,0,0,1.2-.3c2.2-1.4,4.3-1.2,6.5.3s2.7,0.5,3.7-1a7.4,7.4,0,0,0,1-6.4c-1.2-4.3-2.7-8.5-4.3-12.7a5.3,5.3,0,0,0-2.4-2.5c-2.2-1.3-3.4-.4-3.2,2a25.3,25.3,0,0,0,.7,3.8c0.4,1.9,1,3.7,1.3,5.6S177.3,334.2,177.3,335.3Z" stroke-miterlimit="10" fill="url(#cd678590-972f-44b8-aa1c-b6b1f0e4c989)" stroke="url(#76f9838a-a0d8-42c3-b37d-8875d655e2db)"/>
      <path d="M111.3,279.2a23.7,23.7,0,0,0,1.3,3.4,58.8,58.8,0,0,0,3.5,6,63.6,63.6,0,0,1,6.6,13l2.5,6a7.4,7.4,0,0,0,3.7,4.1,13.2,13.2,0,0,1,3.5,3.2c1,1.1,1.7,2.3,2.6,3.4l2,2.1c0.1-.7.2-1,0.2-1.3a16.5,16.5,0,0,0-1.7-7.2c-1.6-3.7-3.1-7.4-4.7-11s-3.2-7.3-5.1-10.8a31.1,31.1,0,0,0-8.6-9.8,15.4,15.4,0,0,0-3.1-1.7A2,2,0,0,0,111.3,279.2Z" stroke-miterlimit="10" fill="url(#7f13d860-9a22-44ba-b5b8-0449e72453ff)" stroke="url(#baa7bfe4-909f-447a-a4b7-24d46f9fb962)"/>
      <path d="M253.7,343a2.5,2.5,0,0,0,.8-1,34.1,34.1,0,0,0,1.3-5.3,27.4,27.4,0,0,1,2.6-9.7c0.9-1.9,1.7-3.9,2.5-6a10.2,10.2,0,0,0,0-7.3,2.4,2.4,0,0,0-1.3-1.5c-0.9-.3-1.4.5-1.7,1.3-2,6.3-5.9,11.9-6,18.8a3.3,3.3,0,0,1-2,3,24,24,0,0,1,0-3.8c0.4-2,1-4,1.4-6.1s0.9-3.7-.1-5.5c-2.4,0-3.5.5-4.5,2.9s-2.9,7.6-4.2,11.5a10.6,10.6,0,0,0-.5,3.1c-0.1,2.6.6,4.9,2.9,6.5l2.4-1.1C250.7,341.1,250.7,341.1,253.7,343Z" stroke-miterlimit="10" fill="url(#3c23acfa-7eb7-4093-aa98-f45bfd6288f5)" stroke="url(#77bbd470-4424-473d-97cc-13d50f05b364)"/>
      <path d="M316.7,278.6c-2-1.8-3.3-.3-4.5.7a53.3,53.3,0,0,0-14,18.3c-2.9,6.5-5.8,13-8.8,19.4-0.4,1-.8,2,0.4,2.9s2.3-1.9,3.3-2.9,3.8-4.4,6.1-6.1a11.1,11.1,0,0,0,3.9-5,87.3,87.3,0,0,1,10.6-20.3A16.9,16.9,0,0,0,316.7,278.6Z" stroke-miterlimit="10" fill="url(#bfa69358-e7a6-44a8-9298-6f3d32ebe961)" stroke="url(#1f3d392a-6448-49f1-8e37-b06045713b53)"/>
      <path d="M103.6,305.5a6,6,0,0,0-.1-2c-1.2-3-2.1-6.3-3.9-8.9a142.8,142.8,0,0,0-18.2-20.7c-7.1-6.5-15.1-11.6-24.3-14.4l-3.2-.8c0.8,2.1,2.4,2.6,3.8,3.1s3.1,0.9,4,2.5a1.4,1.4,0,0,0,1.2.7c2.2,0.2,3.5,1.9,4.9,3.2a85.4,85.4,0,0,0,7.1,6.4,40.8,40.8,0,0,1,8.7,8.9,27.8,27.8,0,0,0,7.1,7.4,20.8,20.8,0,0,1,5.6,6.2c1,1.6,2.1,3.2,3.2,4.8A9.2,9.2,0,0,0,103.6,305.5Z" stroke-miterlimit="10" fill="url(#a6f79245-d182-4ee4-a7fa-3307fd863f3a)" stroke="url(#5f549b80-9645-4c34-a96d-d8e8e7768375)"/>
      <path d="M113.5,310.4l0.4-.3a11.8,11.8,0,0,0-.4-2c-1.1-3-2-6.1-3.3-9a112.5,112.5,0,0,0-15.3-24.2,28,28,0,0,0-6.5-5.9c-2-1.3-4.5-2-6.8-2.9a1.6,1.6,0,0,0-2.3,1.2l2,2.2,16.4,18.4a55.8,55.8,0,0,1,9,13.5,38.7,38.7,0,0,0,3.8,6.1A16.6,16.6,0,0,0,113.5,310.4Z" stroke-miterlimit="10" fill="url(#a51bc30e-2b2e-4922-909d-34f1f5ff927f)" stroke="url(#526d3d27-1792-47b2-96d1-94a7b12755b3)"/>
      <path d="M147.4,326.2a1.5,1.5,0,0,0,.3-0.5V325a51.8,51.8,0,0,0-9.5-30.9,21.6,21.6,0,0,0-3.6-3.8,4.5,4.5,0,0,0-4.6-.9,3.7,3.7,0,0,0,.9,3.4,12.4,12.4,0,0,1,2.4,6.2,20.3,20.3,0,0,0,2.3,7.2,34.4,34.4,0,0,1,2.1,5.3,31.2,31.2,0,0,0,1.5,4.3,12,12,0,0,0,2.5,3.4,9.6,9.6,0,0,1,3.2,4.3C145.5,324.6,145.9,325.8,147.4,326.2Z" stroke-miterlimit="10" fill="url(#b9179690-d64a-484a-aef4-28af9cbb0db8)" stroke="url(#8de0c98d-e8fe-4bc3-a52d-fa246949f643)"/>
      <path d="M324.5,303.9l0.5,0.3a14.1,14.1,0,0,0,2.3-1.8,62.7,62.7,0,0,0,3.8-5.2,23.3,23.3,0,0,1,5.6-6.5,35.3,35.3,0,0,0,7.8-8.1,36.5,36.5,0,0,1,7.5-7.7c3.6-2.7,7.4-5.3,11-8.1s6.7-5.2,10-7.8a6.9,6.9,0,0,0,1.1-1.3,35.2,35.2,0,0,0-10.1,4.4c-2.7,1.6-5.3,3.3-8.1,4.7a45.1,45.1,0,0,0-8.8,6.2c-7.3,6.5-13.1,14.2-19,21.8a15.5,15.5,0,0,0-2.3,4.2C325.3,300.7,325,302.3,324.5,303.9Z" stroke-miterlimit="10" fill="url(#5859784f-bc08-4f60-a4ec-74a868eb2879)" stroke="url(#cc18f603-404c-4cad-820b-4f724d5ebd5a)"/>
      <path d="M312.6,308.8l0.5,0.5a23,23,0,0,0,4.1-3.5,47,47,0,0,0,5.2-7.4,38.9,38.9,0,0,1,6.9-9.7l0.8-.9c5-5.9,9.5-12.3,15.8-17a6.5,6.5,0,0,0,2.6-4.1l-1.7-.2a13.1,13.1,0,0,0-9.3,3.9,64.7,64.7,0,0,0-6.1,6.7C323.8,286.9,318.4,298,312.6,308.8Z" stroke-miterlimit="10" fill="url(#4ef4e714-462a-440a-b59a-f95c8388d5ad)" stroke="url(#3bbda56b-3d22-4294-8bc4-eebdd3d286b2)"/>
      <path d="M278,326.4c2,0,2.6-1.3,3.1-2.5a7.6,7.6,0,0,1,2.8-3.8c2.9-1.6,4.2-4.2,5.2-7.2s2.1-4.8,3.1-7.2,1.5-2.6,1.5-4a18.2,18.2,0,0,1,3-8.7,7,7,0,0,0,1.4-3.7,4.1,4.1,0,0,0-4.6.4,10.4,10.4,0,0,0-2.3,2.4,69.2,69.2,0,0,0-7.5,13.6,118.3,118.3,0,0,0-5.6,19.3A5.7,5.7,0,0,0,278,326.4Z" stroke-miterlimit="10" fill="url(#4d70a53a-f7af-4c0a-a657-3b46b24393ff)" stroke="url(#7c6c8184-be1d-40e4-a424-dfe95bd94c63)"/>
      <path d="M103.1,278.6l-0.6.3a13.9,13.9,0,0,0,.6,1.9l8.7,17.1c2.9,5.6,6,11.1,10.2,15.9a8.9,8.9,0,0,0,1.7,1.5,18,18,0,0,0-2-9.7c-2.4-4.9-4.8-9.8-7.3-14.6a43.8,43.8,0,0,0-4-6.2A19.7,19.7,0,0,0,103.1,278.6Z" stroke-miterlimit="10" fill="url(#cea5458c-5413-43bf-974f-d56f99937e46)" stroke="url(#14846bbb-1857-4dae-a0dd-2ada3c0e59e5)"/>
      <path d="M325.5,277.9l-0.7-.2a32,32,0,0,1-2.5,2.7,38.8,38.8,0,0,1-3.1,2.6,18,18,0,0,0-6,7.9c-1.5,3.6-3.3,7.1-4.9,10.7s-2.3,5.6-3.3,8.5a25,25,0,0,0-.5,2.9l0.5,0.2a12.1,12.1,0,0,0,2-1.9c2-2.7,4.2-5.3,5.9-8.1s3.3-6.4,4.8-9.6a68.5,68.5,0,0,1,5.6-10.3,18.3,18.3,0,0,0,1.8-3.4A7.9,7.9,0,0,0,325.5,277.9Z" stroke-miterlimit="10" fill="url(#78f8ca21-12a3-4a5f-be6c-1f85067ce600)" stroke="url(#7b097faf-a1b6-4181-9636-f3c1d5379332)"/>
      <path d="M134.4,349.8l0.5-.5a16.9,16.9,0,0,0-1.9-3.2,85.5,85.5,0,0,1-7.7-11.2,15,15,0,0,0-1.9-2.5,6.6,6.6,0,0,0-1.7-1.2c-0.9-.4-1.7,0-1.6,1a6.8,6.8,0,0,0,1.1,3.1c2.9,3.9,5.9,7.8,8.9,11.6a9.5,9.5,0,0,0,2.1,1.9Z" stroke-miterlimit="10" fill="url(#f78956b3-285f-421a-abf6-09c0fd2bb91b)" stroke="url(#5078ccd9-62f4-4136-a331-9294c96729fe)"/>
      <path d="M106.1,308.4c2.8,6.3,5.8,12.5,11.7,16.9a1.6,1.6,0,0,0,.2-0.5c-1.4-6.6-5.8-11.4-9.8-16.5C107.7,307.6,107,307.5,106.1,308.4Z" stroke-miterlimit="10" fill="url(#01f59ade-0b65-4ddf-9fea-f729264655fa)" stroke="url(#d510f7dd-c9ce-4b6a-8863-1f9f888399ed)"/>
      <path d="M294.1,346.9l0.6,0.4c7-3.7,9.4-10.7,12.8-17.2-1.3-.8-1.8-0.1-2.4.7s-2.3,3-3.4,4.6l-6.1,8.6A26.4,26.4,0,0,0,294.1,346.9Z" stroke-miterlimit="10" fill="url(#a283c72f-a5b3-4aad-9b6b-86157b563ccc)" stroke="url(#56487497-3f22-4044-8f8a-4e4a04a3e95c)"/>
      <path d="M214.2,266.1a12.6,12.6,0,0,0,2.6-.6,2.8,2.8,0,0,0,2.1-2.9,2.8,2.8,0,0,0-2.2-2.5,7.8,7.8,0,0,0-5.6.5,3.4,3.4,0,0,0-1.6,1.9,2,2,0,0,0,1.1,2.4Z" stroke="#c93" stroke-miterlimit="10" fill="url(#aca24cce-8e50-46e7-bcb6-835d9bc7b2fb)"/>
      <path d="M310.1,324.1a37.7,37.7,0,0,0,10.8-15.7,1.6,1.6,0,0,0-.3-0.8C316.7,310.1,310.4,319.7,310.1,324.1Z" stroke-miterlimit="10" fill="url(#baad7fe8-6bb6-438a-934a-7e905ec9e886)" stroke="url(#1d687575-62ea-437e-853d-169da950c7ee)"/>
      <path d="M198.6,264c0,2.2,1.5,3.4,3.6,2.7a4.7,4.7,0,0,0,3.1-3.8,1.7,1.7,0,0,0-.4-1.3,3.4,3.4,0,0,0-3.9-.8A3.5,3.5,0,0,0,198.6,264Z" stroke="#c93" stroke-miterlimit="10" fill="url(#7a6026af-e1c5-4601-826b-2d8f0f01bef3)"/>
      <path d="M230.4,264.5a4.4,4.4,0,0,0-3.6-4.1,2.6,2.6,0,0,0-2.8,1.4,3.3,3.3,0,0,0-.2,2.4c0.6,1.4,3.4,2.6,4.9,2.3S230.4,265.8,230.4,264.5Z" stroke="#c93" stroke-miterlimit="10" fill="url(#4e01f60e-c269-43d5-a6fb-0708eaa22ea4)"/>
      <path d="M237.8,267.4c1-.1,2.2.1,2.6-1.2a3.3,3.3,0,0,0-6.1-2.5c-0.8,1.8-.4,2.7,1.4,3.3Z" stroke="#c93" stroke-miterlimit="10" fill="url(#dbe011d3-377e-4691-a52e-ee756913cc94)"/>
      <path d="M189,267.3a6.5,6.5,0,0,0,4.9-1.8,1.6,1.6,0,0,0-.2-2.7,4.2,4.2,0,0,0-4.9.2C187.6,264.1,187.6,265.4,189,267.3Z" stroke="#c93" stroke-miterlimit="10" fill="url(#12507b88-7fdf-4ed7-bd24-a58262be8f64)"/>
      <path d="M148.5,362.1l-0.4.4a23.6,23.6,0,0,0,2.2,3.8,12.2,12.2,0,0,0,2.7,2.3,1.2,1.2,0,0,0,1.3-.1,1.6,1.6,0,0,0,.1-1.2A10.1,10.1,0,0,0,148.5,362.1Z" stroke="#c93" stroke-miterlimit="10" fill="url(#0751d546-ef74-44ce-8ac3-dc27dc453752)"/>
      <path d="M273.1,366.9c3.3,0.4,5.7-1.3,6.6-4.6C276.6,362.5,274.6,364,273.1,366.9Z" stroke="#c93" stroke-miterlimit="10" fill="url(#b17c405f-a21b-4917-96b4-0e22bce21100)"/>
      <path d="M163.1,370.9c1.2,2,3,1.5,4.7,1.5a1.5,1.5,0,0,0,1.4-1.6,1.3,1.3,0,0,0-1.3-1.4A6.3,6.3,0,0,0,163.1,370.9Z" stroke="#c93" stroke-miterlimit="10" fill="url(#c0e283cf-6806-4c66-a0a7-056348a8fcad)"/>
      <path d="M262.4,368c-2.6.1-3.7,0.9-4.2,3C260.9,371.4,261.7,370.8,262.4,368Z" stroke="#c93" stroke-miterlimit="10" fill="url(#10bbc33b-b586-4899-b5ba-47bab923602a)"/>
      <path d="M287.9,356.5c2.6-1.2,3.5-3,2.5-5.1C289.3,353.1,287.5,354,287.9,356.5Z" stroke="#c93" stroke-miterlimit="10" fill="url(#9d30f1b6-2c99-4ce6-bccf-2b408b820a1a)"/>
      <path d="M140.4,357.7c-0.4-1.3-.8-2.5-2.4-2.9C138,356.8,138.1,357,140.4,357.7Z" stroke="#c93" stroke-miterlimit="10" fill="url(#007b8ce2-eae1-4561-81e2-bac503bf86c2)"/>
    </g>
    <path d="M228.5,336.6c-2.9,0-5.1.2-7.1-1.1a4.3,4.3,0,0,0-1.6-.5,4.3,4.3,0,0,1-3.1-2.1,3.4,3.4,0,0,0-3.1-1.9c-1.5,1.9-3.8,2.3-6.3,2.3a5.3,5.3,0,0,0-4.4,2.1c-1.5,2-3.7,2.4-6,2.2a4.2,4.2,0,0,1-1.6-1.1c0.4-.5.8-1.4,1.3-1.4,2.1-.3,3.4-1.5,4.7-3a6.9,6.9,0,0,1,5.6-2.3c1.5,0,2.8-.2,3.8-1.6a2.9,2.9,0,0,1,2.3-1c2.7,0.3,5.3.8,7.1,3.4s3.4,2.3,5.2,3.3a13.9,13.9,0,0,1,2.1,1.1A12.7,12.7,0,0,1,228.5,336.6Z" stroke-miterlimit="10" fill="url(#310480f1-255f-41b2-a262-fa36e54865a3)" stroke="url(#656b3a54-1467-4eb3-aeb2-df2a9823e447)"/>
    <path d="M200.7,350.4c2.7-2.7,5.2-5,8.9-4.8H212c3.7-.6,6.9,1.1,10.1,2.2,1.6,0.6,2.3,2.1,2.9,3.7s-1.8.6-2.8,0.1c-5.7-3.2-11.7-4-17.9-1.3a4,4,0,0,1-1.8.7Z" stroke-miterlimit="10" fill="url(#4692151e-cc43-45cb-8f2d-34f3cd7e6eee)" stroke="url(#4d80650a-17bd-4a70-80b7-af7ec422c5fb)"/>
    <path d="M212.5,338.4a4.5,4.5,0,0,1-1.1,1.7,13,13,0,0,1-7,2.8l-3.3.3a31.7,31.7,0,0,0-4.1,1.2,3.3,3.3,0,0,0-1,.6c-1.2.7-2.5,0.7-2.8,0s0.2-1.8.9-2.5a9.9,9.9,0,0,1,6.5-3c2.1-.1,4.2-0.6,6.3-0.9S210.3,337.7,212.5,338.4Z" stroke-miterlimit="10" fill="url(#76d15c72-b6c3-4917-91cc-e0b5be2f7235)" stroke="url(#7ba60be3-cc0a-4222-95b6-c55fc549ef72)"/>
    <path d="M213,300.1a35.9,35.9,0,0,1,3.5.8,3,3,0,0,1,1.3,1.8c0.3,0.8-.4,1.3-1.2,1.5a2.1,2.1,0,0,0-1.3,1.8,4.9,4.9,0,0,1-1.1,2.3c-1.1,1.3-2.5,1-3.2-.6a3.2,3.2,0,0,1-.3-0.9c0.2-1.8-.8-2.8-2.4-3.4a1.9,1.9,0,0,1-1-1.2,1.8,1.8,0,0,1,1.1-1.3Z" stroke="#c93" stroke-miterlimit="10" fill="url(#820423ec-6564-4900-b026-4bd2f3d6b948)"/>
    <path d="M229.9,342.9a1.3,1.3,0,0,1-2,.2c-2-1.2-4.2-1.3-6.5-1.4l-4.3-.3a5.5,5.5,0,0,1-1.8-.6c-0.8-.5-0.7-1.4.2-1.9l0.4-.2c3.2-.1,6.3-0.4,9.5-0.4S228.9,341,229.9,342.9Z" stroke-miterlimit="10" fill="url(#dd359e8d-cf27-427a-8135-8bc8d7678b45)" stroke="url(#b9d8d7e6-8e5a-4cb6-8a95-f1654fdecf02)"/>
  </g>
  <g id="cf21768d-a0c3-4a68-b35d-796bb49832c1" data-name="Cup">
    <path d="M156.7,579.4l-0.3.6c0.7,0.6,1.3,1.3,2,1.8l1.9,1c1.4,0.9,1.6,1.2,1,2.9a2.8,2.8,0,0,0,.5,2.9c0.6,0.7,1.1,1.4,1.7,2,7.4,8.7,16.9,14.3,27.4,18.3a50.3,50.3,0,0,0,17.1,3.2,71,71,0,0,0,37.8-10.6c3-1.8,3-1.8,2.2-5.3l3.8-1.8c1.7-.8,3.5-1.5,5.2-2.5a5.1,5.1,0,0,0,2.6-5.9c-0.1-.4-0.1-0.8-0.2-1.2l2.8-2a1.8,1.8,0,0,0,.9-2c-0.5-2.3.6-4,2.1-5.6a15.9,15.9,0,0,0,2-2.4,2.5,2.5,0,0,0,.6-2.7,43,43,0,0,1-6,.8,4.9,4.9,0,0,0-2.9.8,61,61,0,0,1-13.4,7,100.4,100.4,0,0,1-56.1,4.8,14.3,14.3,0,0,1-2.7-.9c-1.9-.7-3.8-1.7-5.8-2.3a28.5,28.5,0,0,1-9.9-4.8l-7.4-5.3a19.3,19.3,0,0,0-10.3-3.2c1.4,3.1,5.4,3.4,6.8,6.6-2.1.6-4.2-1.1-6.2,0.5,1.5,1.9,4.6,1.9,5.4,4.6A10.2,10.2,0,0,1,156.7,579.4Z" stroke="#c93" stroke-miterlimit="10" fill="url(#9ca6b9fe-fce9-4243-9f82-dcd207749892)"/>
    <path d="M209.6,496.7a20.2,20.2,0,0,0-2.3-2.6,25.8,25.8,0,0,0-3.8-3.6c-4.2-2.7-8.5-3.3-13.1-.7-10.1,5.6-15.1,15-13.7,25.8a51,51,0,0,0,5.8,18.2c2.9,5.2,6.2,10.2,9.4,15.3a3.4,3.4,0,0,0,2,1.5l5.9,2a43.9,43.9,0,0,0,6,1.5c1.9,0.3,2.4-.1,3.2-1.8s0.8-2.3,1.3-3.4a3.9,3.9,0,0,1,2.3-2.7c2.7,3.7,4,8.7,8.9,9.9,1.9-1.7,3.4-3.2,5.1-4.6a13,13,0,0,0,3.5-4.5,33.6,33.6,0,0,1,3.5-5.7c2-2.7,4.2-5.3,6.3-7.8,5.1-6.1,6.6-13.2,5.6-20.9a17.9,17.9,0,0,0-2.2-7.8c-2.1-3.2-4.1-6.5-6.5-9.5a29,29,0,0,0-5.3-5.2c-4.5-3.4-9.1-3.5-13.8-.2a59.8,59.8,0,0,0-4.8,4Z" stroke-miterlimit="10" fill="url(#85f785a9-3cd8-426f-988d-c711dc5f1585)" stroke="url(#a4d428c2-286d-463f-90e4-8d9315b3c46f)"/>
    <path d="M210.7,656c0.2-2.1.4-4.2,0.5-6.2,0.1-9,.1-18,0.1-27.1,0-1.9.1-3.8,0.1-5.7s-0.3-1.9-1.8-1.9a30.1,30.1,0,0,0-4.2.5c-0.1,1.3-.3,2.4-0.3,3.4a42,42,0,0,1-3.8,14.8c-0.9,1.9-1.8,3.8-2.8,5.6s-0.7,1.9.4,2.7,1,1,.3,2.1l-2.9-.4c-0.9-.2-2-0.3-2.3.6a2.9,2.9,0,0,0,.3,2.4,6.5,6.5,0,0,0,2.4,1.9c1.8,1.2,1.9,1.5,1.5,3.7s-0.2,2,1.3,2.5a63.2,63.2,0,0,0,6.2,1.8A7,7,0,0,0,210.7,656Z" stroke="red" stroke-miterlimit="10" fill="url(#e8ecb9ad-a38b-47c9-9336-8ba02f41051b)"/>
    <path d="M213.2,615.2c-0.4,14,1.1,27.4,1.5,40.8a7.1,7.1,0,0,0,4.7.7,16.1,16.1,0,0,0,6.3-2.7,3.8,3.8,0,0,0,1.6-5,12.3,12.3,0,0,0-1.4-2.5l-1.2-1.9,1.1-1.2a4.1,4.1,0,0,0,.6-5.3l-0.6-1.1a49.3,49.3,0,0,1-6.1-19c-0.1-.9-0.3-1.8-0.5-3Z" stroke="red" stroke-miterlimit="10" fill="url(#be77b5e2-866c-4d51-bec4-aeed2f15e767)"/>
    <path d="M212,426.1h-0.6l-1.4,1a24.9,24.9,0,0,0-8,11.7,12,12,0,0,0,1.1,10.6l1.7,2.9a16.8,16.8,0,0,1,2.6,8.1,5.9,5.9,0,0,0,.2,1.4c0.5,2.4,1.8,3.1,3.7,1.6a31.9,31.9,0,0,0,4.5-4.5,4.1,4.1,0,0,0,.7-2.2c0.6-2.4.8-4.9,1.7-7.2a13.7,13.7,0,0,0-.2-10.7c-1.8-4.2-3.8-8.4-5.7-12.6Z" stroke="red" stroke-miterlimit="10"/>
    <path d="M265.4,531.4a24.2,24.2,0,0,0-2.1-8.8c-1.1-2.6-3.1-3.8-5.6-4.5a2.6,2.6,0,0,0-2.2.3,4.9,4.9,0,0,0-.5,2.7,3.7,3.7,0,0,0,.8,1.5,4.4,4.4,0,0,1,.5,4.3,20.2,20.2,0,0,0-.7,2.3,5.7,5.7,0,0,0,1.4,6.4,23.4,23.4,0,0,0,4.1,2.9c1.1,0.7,1.9.3,2.6-.8A9.3,9.3,0,0,0,265.4,531.4Z" stroke="red" stroke-miterlimit="10" fill="url(#4540df4f-77ae-42cb-bcb1-1d7a2a6fef62)"/>
    <path d="M165.5,536.4c3-1.9,3.4-2.7,2.8-5.7a24.4,24.4,0,0,1-.6-2.6c-0.2-1.2-.5-2.5-0.6-3.8a4.3,4.3,0,0,1,1.9-4.4,2.4,2.4,0,0,0,1.3-2.7,6.2,6.2,0,0,0-5.1,1.2c-5.6,3.7-7.6,13.2-3.9,18.8a4.4,4.4,0,0,0,1.4,1.6c2.1,0.8,4.2,1.4,6.3,2a4.4,4.4,0,0,0,1.5-.3c-0.1-1.8-1.4-1.9-2.5-2.2S165.7,538,165.5,536.4Z" stroke="red" stroke-miterlimit="10" fill="url(#5f4748d4-66db-44c3-80e8-852fe7dd5501)"/>
    <path d="M231.6,467.2c2,3.4,5,5.4,7.5,7.9a1.5,1.5,0,0,0,1.3.2l2.8-.5c1.9-.5,2.2-0.9,2.2-2.8a14.3,14.3,0,0,0-6-12,21.2,21.2,0,0,0-11.4-4,5.6,5.6,0,0,0-1.2.4,22.9,22.9,0,0,1,2.6,3.2,7.9,7.9,0,0,0,5.8,4.2,25,25,0,0,1,3.9,1.1c2.3,0.9,2.7,2.8,1.3,5.2l-1.5-2.2a3.9,3.9,0,0,0-1.5-1.4A10.9,10.9,0,0,0,231.6,467.2Z" stroke="red" stroke-miterlimit="10" fill="url(#fa35f7d0-0fef-4613-abf5-6c427b49c654)"/>
    <path d="M240.9,490.2c1,1.3,2.4,1.4,3.8,1.3,3.9-.1,5.5,1.4,5.7,5.3,0.1,1.1,0,2.2.1,3.3a5.6,5.6,0,0,0,2.7,4.8c1.3,0.8,2.5,1.7,2.7,3.5a1.4,1.4,0,0,0,.8,1,1.5,1.5,0,0,0,1.2-.8,17.3,17.3,0,0,0,1.2-4.3A16.9,16.9,0,0,0,246,487.6C243.5,487,241.9,487.8,240.9,490.2Z" stroke="red" stroke-miterlimit="10" fill="url(#27e8d4f1-5b21-40cb-8138-a4687b88f371)"/>
    <path d="M172.4,510.7l-3.2-.7c-0.9-.2-1.6-0.5-1.6-1.4s-0.5-4.3,2-5.6a6.5,6.5,0,0,0,1.8-1.5,2.8,2.8,0,0,0,.7-1.9c-0.4-2.1.1-4.1,0.5-6.2a18.5,18.5,0,0,1,.4-2.3,5.9,5.9,0,0,0-7,3,16.7,16.7,0,0,0-1.6,14.9,6.7,6.7,0,0,0,4.5,4C170.7,513.6,171.3,513.2,172.4,510.7Z" stroke="red" stroke-miterlimit="10" fill="url(#e048b348-4128-4039-b705-91e52b4af63e)"/>
    <path d="M208.7,470.5c-2.2-.1-3,0.3-3.8,2.1a10.7,10.7,0,0,0,.2,9.7c1.1,2,2.5,3.9,3.8,5.8s2.2,2.1,4.1.7a6.5,6.5,0,0,0,1.8-1.9,11,11,0,0,0,.5-10.8,5.1,5.1,0,0,0-3.7-3.1c-1.6,1.1-1.5,2.6-1,4.1s1.3,3.3,1.8,4.9a3.4,3.4,0,0,1-1.4,4.2C207.7,481.4,206.7,476.3,208.7,470.5Z" stroke="red" stroke-miterlimit="10" fill="url(#addd284f-d42f-4855-abc2-9d917b4cc84a)"/>
    <path d="M214.7,469.2a5,5,0,0,0,3,2.6,34,34,0,0,0,3.4,1.2,9.9,9.9,0,0,1,5.1,3,2.9,2.9,0,0,0,1.7.7h3.3c2.6,0.3,3.6,1.7,3.3,4.3a14.9,14.9,0,0,0-.2,2.1,1.5,1.5,0,0,0,1.7,1.7,3.3,3.3,0,0,0,1-3.7c-0.6-2.1-1.4-4.1-2-6.1a8,8,0,0,0-4.3-4.9,22,22,0,0,0-12.6-2.1Z" stroke="red" stroke-miterlimit="10" fill="url(#e929051d-f07e-44e3-bb09-9b123fc99c3c)"/>
    <path d="M184.7,488.2c0.2-1,.3-2,0.6-3a21.5,21.5,0,0,1,1.1-3.6c0.9-2,2.5-3.5,4.8-3.4s3.5-.9,4.6-2.7,0.8-1,1.1-1.6,1.4-2,.8-3.1-2.1-.8-3.3-0.7l-0.9.3a22,22,0,0,0-7.9,4.4,14.2,14.2,0,0,0-4.5,9C180.7,486.5,181.8,487.8,184.7,488.2Z" stroke="red" stroke-miterlimit="10" fill="url(#166a6886-ac7d-478d-8ed5-e98842f4f22d)"/>
    <path d="M267.1,492.5a41.7,41.7,0,0,0-1.3-4.2,10.8,10.8,0,0,0-2.1-3.4,47.7,47.7,0,0,0-6.3-4.8,7.9,7.9,0,0,0-6.7-.9c-1.7.5-2.1,1.3-2,3.4,1.1,0,2.2-.1,3.3,0a22.1,22.1,0,0,1,5.1,1.1,3.8,3.8,0,0,1,2.9,3.9A5.4,5.4,0,0,0,267.1,492.5Z" stroke="red" stroke-miterlimit="10" fill="url(#559082bc-3ecf-49a9-8096-a00567404343)"/>
    <path d="M179,533.3c-0.8-2.9-1.5-5.8-2.4-8.7a12.3,12.3,0,0,0-1.2-2.6c-1.3-2-3.2-2.1-4.7-.3a5.3,5.3,0,0,0,.9,7.9,16.6,16.6,0,0,1,2.1,1.6,15.1,15.1,0,0,1,1.7,2c-0.8,1.1-2.5.3-2.8,1.8C174.5,535.7,176.2,535.2,179,533.3Z" stroke="red" stroke-miterlimit="10" fill="url(#963819de-4400-4594-a14b-cb13032f2b7a)"/>
    <path d="M266,503.7c-0.2-1.1-.4-2-0.6-2.8a14.5,14.5,0,0,0-1.1-2.9,2.2,2.2,0,0,0-1.7-1,2.3,2.3,0,0,0-1.2,1.5,3,3,0,0,0-.2,1.6,25.5,25.5,0,0,0,2.3,9.4,2.1,2.1,0,0,0,1.8,1.3c1.6,0.1,3.3,0,4.3-1.5a6.1,6.1,0,0,0-.3-6.5Z" stroke="red" stroke-miterlimit="10" fill="url(#78a9c088-438a-475e-8b20-b6fca8c54417)"/>
    <path d="M265.5,514c0,2.1-.1,4,0,5.8a3.9,3.9,0,0,0,.8,2,1.2,1.2,0,0,0,2.1.1c0.9-1.4,1.9-1.1,3.1-.5a9.7,9.7,0,0,0,2.2.8c1.7,0.3,2.4-.5,2.2-2.1a6.5,6.5,0,0,0-4.5-5.4A10.5,10.5,0,0,0,265.5,514Z" stroke="red" stroke-miterlimit="10" fill="url(#2bed223c-b910-49e2-a49c-433310331877)"/>
    <path d="M152.2,498.8l6.1-6.5a7.8,7.8,0,0,0,1.4-2.7c0.4-1.4-.2-3.6-1-3.9s-2.6.1-3.8,1l-0.9.8a11.5,11.5,0,0,0-2.8,8.7A18.7,18.7,0,0,0,152.2,498.8Z" stroke="red" stroke-miterlimit="10" fill="url(#39f59289-4ef2-40da-bc6a-d5e08eee8d33)"/>
    <path d="M250.5,534.2a11.3,11.3,0,0,0,3.1-7.5,4.1,4.1,0,0,0-1.9-3.7c-1.6-1-3-.7-3.8,1a22.4,22.4,0,0,0-1.6,5C245.9,532,247.3,533.6,250.5,534.2Z" stroke="red" stroke-miterlimit="10" fill="url(#3bc4c589-bf7b-4b3d-bddd-899d7ebf6cb4)"/>
    <path d="M161.7,496c-4.9,1.2-4.2,5-4.5,8.4l-2.4.7c-1.1.3-2,.7-2.1,1.9s1.1,1.5,2.6,1.6a12.8,12.8,0,0,0,6.5-1.8c0.1-2.4.3-4.7,0.3-7A30.8,30.8,0,0,0,161.7,496Z" stroke="red" stroke-miterlimit="10" fill="url(#f64314fb-68d0-4cdd-ad69-596f5e264eed)"/>
    <path d="M191.3,458.3c-6.6-.7-13.5,3.4-13.7,8.3C184.8,465.9,190.3,462.6,191.3,458.3Z" stroke="red" stroke-miterlimit="10" fill="url(#c5e57830-bba7-4aa8-9645-acc19204f517)"/>
    <path d="M144,524.2c5.5,0,9.5-5.2,7.5-9.8C145.9,514.2,141.8,519.5,144,524.2Z" stroke="red" stroke-miterlimit="10" fill="url(#679fe181-0c2b-445b-8da0-2f07c9c295f6)"/>
    <path d="M203.2,466.2c0.8-3.2-.3-5-3.1-5.4a7.7,7.7,0,0,0-6.6,2,3.3,3.3,0,0,0-1.2,2.9C195.7,467.4,199.4,466.8,203.2,466.2Z" stroke="red" stroke-miterlimit="10" fill="url(#38849609-2bbf-4082-b44e-a329fe9fd588)"/>
    <path d="M178,538a7.8,7.8,0,0,0,6,8.8,7.1,7.1,0,0,0-1-7.4C181.8,537.7,180.1,537.3,178,538Z" stroke="red" stroke-miterlimit="10" fill="url(#e87bb962-45a5-4668-b721-0bbaf686eb1a)"/>
    <path d="M230.2,466.7a10.1,10.1,0,0,0-2.1-5.1,2.2,2.2,0,0,0-1.3-.9c-1.9.2-3.8,0-5.5,0.9s0.1,3.2,1.8,4A13.3,13.3,0,0,0,230.2,466.7Z" stroke="red" stroke-miterlimit="10" fill="url(#88b26185-4fb9-4611-bc7c-db8bf901f0b8)"/>
    <path d="M249.1,547.8c4.1-.9,7.6-2.2,9.6-5.9-2.1-1.8-3-2.1-5.4-1.9C252.8,542.9,249.5,544.3,249.1,547.8Z" stroke="red" stroke-miterlimit="10"/>
    <path d="M160.8,513.4c-2-.1-5.4,1.4-6.3,2.7a1.9,1.9,0,0,0-.2,1.3c0.5,1.4,3.1,3.1,5,3.1A14,14,0,0,0,160.8,513.4Z" stroke="red" stroke-miterlimit="10" fill="url(#17186f0b-6af2-443f-94ff-d31924d6878b)"/>
    <path d="M193.3,482.4l7.4,2.5c0.1-2.7.2-5.2-2-7C196.8,479.3,194.6,480.1,193.3,482.4Z" stroke="red" stroke-miterlimit="10" fill="url(#1943459d-0f00-4ed4-a002-dda0aaecc185)"/>
    <path d="M152.5,525.6a3.1,3.1,0,0,0-1.4,1.1c-0.3.7-.7,2-0.3,2.4a21,21,0,0,0,4.1,3.1,2.2,2.2,0,0,0,1.8-.6,2.1,2.1,0,0,0,.2-1.9,21.4,21.4,0,0,0-2.8-3.2A4,4,0,0,0,152.5,525.6Z" stroke="red" stroke-miterlimit="10" fill="url(#3f64605a-288b-43c7-b562-8c1ecd3eb9a0)"/>
    <path d="M149.2,532.9c-2.6,1.6-3.4,4.1-2.2,6.4a2.3,2.3,0,0,0,2.7,1.4c1.2-.4,1.4-1.4,1.3-2.5A13.9,13.9,0,0,0,149.2,532.9Z" stroke="red" stroke-miterlimit="10" fill="url(#cb9bcb2a-4ceb-4d9f-a482-90e2a05a5f1a)"/>
    <path d="M185,470.3c-2.3-.8-3.5-0.5-4.4,1.2a16.9,16.9,0,0,0-1.1,3.4c-0.2.7-.3,1.6,0.6,1.8a2.1,2.1,0,0,0,1.7-.4C183.9,474.9,184.6,472.8,185,470.3Z" stroke="red" stroke-miterlimit="10" fill="url(#c98f4150-ddd6-4ae8-9af4-f6be2fd7c84b)"/>
    <path d="M164.4,481.5c1.4,2,3.3,2.3,5.4,2a1.8,1.8,0,0,0,1.9-1.5,2.4,2.4,0,0,0-1.4-2.3C168.3,478.6,165.9,479.3,164.4,481.5Z" stroke="red" stroke-miterlimit="10" fill="url(#b1f26d5d-c863-4750-b9e4-9eee103319ed)"/>
    <path d="M233.5,551.3c4,0.1,6.6-3,5.5-6.2C236.2,545.8,234.2,548.1,233.5,551.3Z" stroke="red" stroke-miterlimit="10" fill="url(#c929bfea-4990-40a0-a723-50f28b34da50)"/>
    <path d="M173.2,477.8l4.3-2.2c0.6-3.2,0-4.2-2.6-4.5C174.1,473.1,172.4,474.8,173.2,477.8Z" stroke="red" stroke-miterlimit="10" fill="url(#cb78b714-36be-434b-a657-d3148c6857ac)"/>
    <path d="M247.7,541.1c-0.1-1.8-2.5-3.6-4.1-2.9a3,3,0,0,0-1.4,1.7,2.3,2.3,0,0,0,.6,1.8,7,7,0,0,0,2.8,1.2C246.9,543.3,247.7,542.4,247.7,541.1Z" stroke="red" stroke-miterlimit="10" fill="url(#66c443e1-9889-4272-84b3-6177e5be4697)"/>
    <path d="M270,527.6c-0.4,3.8,1,6.7,3.7,7.4C274.2,530.7,273,528.1,270,527.6Z" stroke="red" stroke-miterlimit="10" fill="url(#1f99a520-18a8-46d7-b857-1f2084b2d49c)"/>
    <path d="M245.6,477.4c-2.7.2-4.3,1.2-4.7,2.8a2.2,2.2,0,0,0,1.5,2.9A5.5,5.5,0,0,0,245.6,477.4Z" stroke="red" stroke-miterlimit="10" fill="url(#16674d7e-1df4-4995-8af5-bcd8ebf27694)"/>
    <path d="M225,483.2a5.1,5.1,0,0,0-4.7-4.8C220,481.7,221.6,484.4,225,483.2Z" stroke="red" stroke-miterlimit="10" fill="url(#aed368c2-2ed5-4aa8-b698-da564bb16171)"/>
    <path d="M146.2,531.6a33.1,33.1,0,0,1-.4-3.3l-4.2-.9C142,530.5,143.3,531.8,146.2,531.6Z" stroke="red" stroke-miterlimit="10" fill="url(#50da6f7f-0678-4c3c-ba77-296a7c9c091e)"/>
    <path d="M167,546.2c0.5-2.4-1.5-3.9-4.7-3.8C163.1,545,164.3,546,167,546.2Z" stroke="red" stroke-miterlimit="10"/>
    <path d="M165.7,490.8a2.7,2.7,0,0,0,2.3-2.7,1.3,1.3,0,0,0-1.5-1.2,2.5,2.5,0,0,0-2.4,2.5C164,490.3,164.5,490.9,165.7,490.8Z" stroke="red" stroke-miterlimit="10" fill="url(#3560666d-6743-41ae-a53b-983b96120451)"/>
    <path d="M137.4,533.8c0.9,2.7,2.5,3.3,4.9,1.9C141.4,533.6,140.3,533.1,137.4,533.8Z" stroke="red" stroke-miterlimit="10" fill="url(#de897fdc-1540-4080-888a-02f606818f76)"/>
    <path d="M245.3,495.6a4.2,4.2,0,0,0-.5,3.9c0.3,0.9,1.4,1.2,1.8.4a6.2,6.2,0,0,0,.5-2.7C247.2,496.2,246.6,495.6,245.3,495.6Z" stroke="red" stroke-miterlimit="10" fill="url(#cf4cd58f-813c-4185-9250-aa69840af296)"/>
    <path d="M177.2,491c1.5,2.2,1.6,2.2,3.7,1.8,0.2-1,.7-2-0.5-2.7S178.5,489.8,177.2,491Z" stroke="red" stroke-miterlimit="10"/>
    <path d="M253.5,486.2c0.5,2,1.5,2.8,3.1,2.6s1.6-1.1.7-2S255,485.7,253.5,486.2Z" stroke="red" stroke-miterlimit="10" fill="url(#f0981b44-a4ba-4d91-a76e-fbecc1a475ae)"/>
    <path d="M250.6,508.9H250a19.7,19.7,0,0,0-.4,3.4c0,0.7.4,1.6,1.2,1.3a2,2,0,0,0,1-1.6A3.8,3.8,0,0,0,250.6,508.9Z" stroke="red" stroke-miterlimit="10" fill="url(#763c86c0-9a8a-4b0c-8767-9aa7c5a42d1f)"/>
    <path d="M271.6,540.1a30.6,30.6,0,0,0,.3,3.5,3.8,3.8,0,0,0,1.1,1.1,3.3,3.3,0,0,0,1.1-1.3C274.5,542.1,273.7,541.1,271.6,540.1Z" stroke="red" stroke-miterlimit="10" fill="url(#fc04c20e-d4e0-4cef-9040-dac51676a46e)"/>
    <path d="M231.8,645c-1.1,0-2,.5-2,1.2s1.3,1.5,2.4,1.6,1.4-.2,1.4-1.1S233.1,645,231.8,645Z" stroke="red" stroke-miterlimit="10"/>
    <path d="M279.1,531.4c0.5-.9,1.1-1.4,1.1-1.9a1.9,1.9,0,0,0-.8-1.5,1.6,1.6,0,0,0-1.5.2,1.9,1.9,0,0,0-.1,1.5C278,530.1,278.5,530.5,279.1,531.4Z" stroke="red" stroke-miterlimit="10" fill="url(#1d5e5fd7-518f-4ede-be93-2172261957ca)"/>
    <path d="M176.2,544.7c0-1.7,0-3.2-1.2-4.5C173.6,542.9,173.8,543.5,176.2,544.7Z" stroke="red" stroke-miterlimit="10"/>
    <path d="M268.4,496.5c-0.5,1.4-.2,2.2,1.1,2.5C269.6,497.7,269.6,497.7,268.4,496.5Z" stroke="red" stroke-miterlimit="10"/>
    <path d="M188.4,510.8l6.1,2.7c2.5,1,5,2.1,7.6,2.9s2.8,0.1,4.3.1a6.3,6.3,0,0,0-.2-4.3A65.8,65.8,0,0,0,203,505a28.7,28.7,0,0,1-2.7-6.5h21.3c-0.3,1-.4,1.9-0.7,2.6s-1.9,4.2-2.8,6.4a18.8,18.8,0,0,0-1.8,8.5,7,7,0,0,0,5.3.5,42.1,42.1,0,0,0,6.6-2.8c2-.9,3.9-2.2,6.4-2.6v19.8a7,7,0,0,1-3.8-1,58.5,58.5,0,0,0-5.6-2.8,29.4,29.4,0,0,0-6-1.6,7.8,7.8,0,0,0-2.6.2,12.7,12.7,0,0,0,.6,7c0.8,2.1,1.7,4.1,2.6,6.2s1.4,3,2.1,4.7a3.1,3.1,0,0,1-1,.5H200c0.7-1.8,1.3-3.4,2-5s1.8-3.4,2.6-5.1a16.1,16.1,0,0,0,1.9-7.2,6,6,0,0,0-5-.6,39.2,39.2,0,0,0-6,2.3c-1.6.7-3.1,1.7-4.7,2.4a18.4,18.4,0,0,1-2.5.9C188.4,524.7,188.4,518,188.4,510.8Z" stroke-miterlimit="10" fill="url(#a1debbba-a095-47db-8ae5-ee883a29dbac)" stroke="url(#fc36b3cc-9758-4c41-aae4-1171eaf8de39)"/>
    <path d="M211.4,431.4a9,9,0,0,1,.2,2.3,14,14,0,0,0,1.9,8c3.4,5.9,2.2,11.5-1.4,16.9l-0.6.8c-0.6.5-1.4,1.2-2.1,0.6a2.4,2.4,0,0,1-.3-1.9c0.2-1.3.6-2.6,0.9-4a6.3,6.3,0,0,0-1.1-5.6,31.1,31.1,0,0,1-2.5-3.8,5.8,5.8,0,0,1-.7-5.1c0.8-2.1,1.6-4.2,2.6-6.2A3.3,3.3,0,0,1,211.4,431.4Z" stroke="#ed1f24" stroke-miterlimit="10" fill="url(#d68b30fb-7480-4bbc-85f6-132274fec903)"/>
    <g id="46cebc0d-e1c4-46b9-b584-13b737056061" data-name="Veg">
      <path d="M184.4,576.1l0.6-.3c-0.3-1.4-.5-2.8-0.9-4.1s-1.4-3.4-2-5.1a17.6,17.6,0,0,1-.7-4,1.9,1.9,0,0,1,1.7-2.2c0.4,5.8,2.8,12,5.6,14.4l0.8-1.8a2.1,2.1,0,0,1,.5,1.1c0.2,1.3.4,2.7,0.7,4a4.1,4.1,0,0,0,3.7,3,3.8,3.8,0,0,0,3.8-2,14.7,14.7,0,0,0,1.4-2.8,13.6,13.6,0,0,0-2.9-14.5,5.8,5.8,0,0,1-1.6-3.1c-0.8-3.8-3.8-5.4-7.2-7.2a20.2,20.2,0,0,0,0,3.5c0.3,1.2.8,2.4,1.2,3.6a44.3,44.3,0,0,1,1.7,4.7c0.4,1.9.5,3.9-1.2,5.8a15.4,15.4,0,0,0-1.6-7c-1.1-2.6-2.1-5.3-3.1-8a17,17,0,0,0-.9-2.4c-1-1.6-2.4-1.6-3.4-.1a10,10,0,0,0-1,2.1,40.3,40.3,0,0,0-1.3,5.8,21.1,21.1,0,0,0,2.4,13A6.5,6.5,0,0,0,184.4,576.1Z" fill="#406325" stroke="#004b23" stroke-miterlimit="10"/>
      <path d="M259.2,548a7.1,7.1,0,0,0-4.3,5.1,22.6,22.6,0,0,1-6.9,11.2,13.3,13.3,0,0,0-2.1,2.6,11.7,11.7,0,0,0-1.4,3,6.5,6.5,0,0,0,.3,5.1,3.7,3.7,0,0,0,3-2.5c0.5-1.1.8-2.2,1.3-3.3s1-2,2.5-2.1c-0.1,1.8-1.8,3.2-.9,5.2,4.6-1,6.6-4.5,8.3-8.2A18.5,18.5,0,0,0,259.2,548Z" fill="#406325" stroke="#004b23" stroke-miterlimit="10"/>
      <path d="M242,552.3a7.2,7.2,0,0,0-2,.5c-3.3,2-6.5,4.2-8.2,7.8s-3.8,8.1-6.5,11.7a8.4,8.4,0,0,0-1.1,2.1,7.8,7.8,0,0,0-.2,6.5c3.7,1,5.5,0,6.4-3.6l0.3-1.6a20,20,0,0,1,4-9.6c1.4-2,3-4,4.3-6.1s1.9-3.7,2.8-5.5S241.8,553.2,242,552.3Z" fill="#406325" stroke="#004b23" stroke-miterlimit="10"/>
      <path d="M178,574.7c0.7-3.1-1.4-5.4-1.4-8l-1.4-.2c-1.6.1-2.3-.9-2.7-2.2-1.1-4-.2-7.8.8-11.6a5.3,5.3,0,0,1,1,2.9c0,1.8-.2,3.7-0.2,5.5a13.1,13.1,0,0,0,.1,2.8,1.6,1.6,0,0,0,1.7,1.5c1.4-4.2,1.5-10.5.7-13.4s-0.9-3.2-2.6-4.1l-2,.9c-4.4,2.3-5.7,4.6-4.7,9.5a73.2,73.2,0,0,0,2.3,8,24.2,24.2,0,0,0,2.9,5.5A5.6,5.6,0,0,0,178,574.7Z" fill="#406325" stroke="#004b23" stroke-miterlimit="10"/>
      <path d="M264.9,564.8a7.6,7.6,0,0,0,1.8-.9,16.7,16.7,0,0,0,6.5-8.1,3.7,3.7,0,0,1,1.2-1.9c2-1.1,2.9-2.9,3.7-4.9s0.9-2.2,1.4-3.3a3.2,3.2,0,0,1,1.8-1.8c-0.1,3.2-2.7,5.4-2.6,8.7l1.4-.8c3.3-2.5,4.9-6,5.6-10,0.3-1.8.6-3.5-1.5-4.3a2,2,0,0,1,.2-0.6c0.5-1,1.6-2,.4-3s-2.1.4-2.9,1a12,12,0,0,0-3.9,6.2,28.9,28.9,0,0,1-9.5,14.9,14.3,14.3,0,0,0-3.1,4.2A5.3,5.3,0,0,0,264.9,564.8Z" fill="#406325" stroke="#004b23" stroke-miterlimit="10"/>
      <path d="M217.5,573c-0.3,1.4-.6,3.1-0.8,4.8a5.8,5.8,0,0,0,.2,2.6,2.5,2.5,0,0,0,1.6,1.2c0.4,0.1,1-.6,1.3-1a21,21,0,0,0,1.3-2.6,76.5,76.5,0,0,1,5.9-11.8,26.9,26.9,0,0,0,1.7-3.4,9.3,9.3,0,0,0,.7-3.3c0-1.6-.2-3.5-1.8-4.2s-3.1.4-4.3,1.5a15.2,15.2,0,0,0-4.8,11.2,9.8,9.8,0,0,0,.6,2.3h0.6l1.1-3a29.9,29.9,0,0,1,.9-3.2,2.1,2.1,0,0,1,2.4-1.6c-0.4,4.1-1.8,7.6-4.9,10.2Z" fill="#406325" stroke="#004b23" stroke-miterlimit="10"/>
      <path d="M155.8,541.4c-4.3,4-4.3,7.2.2,10.4s6.5,7.9,7.6,13.1a15.5,15.5,0,0,0,.4,2.1c0.6,1.9,1.3,2.3,3.7,2.1-1.2-6-2.5-11.9-3.7-18.1l-2.1,1.3c-2.4-1.9-3.2-3-3.4-4.8,1.4,0.3,2.6,1.6,4.3,1C161.7,544.7,158.6,543.2,155.8,541.4Z" fill="#406325" stroke="#004b23" stroke-miterlimit="10"/>
      <path d="M160.9,564.5a10.8,10.8,0,0,0-3.3-8.6l-4.7-4.4a3.8,3.8,0,0,1-1.3-2.4c-0.4-2.7-2-3.9-5-4.1-0.8,1.3-.1,2.4.6,3.5s1.8,1.9,1.4,3.8a11.6,11.6,0,0,1-1.9-2.1,34.2,34.2,0,0,1-2.3-4.2c-0.9-1.6-1.7-3.3-2.7-4.8a5.9,5.9,0,0,0-3.2-2.6c-0.8,1.7-.6,2.2.6,3.9l5.1,7.2a14.3,14.3,0,0,0,1.4,2c1.2,1.2,1.9,3.4,4.3,2.1h0.2c1.7,0.8,3.4,1.6,5.1,2.6a1.7,1.7,0,0,1,.7,2.5l-3.5-1.2-0.3.5C153.8,561.7,156.8,563.6,160.9,564.5Z" fill="#406325" stroke="#004b23" stroke-miterlimit="10"/>
      <path d="M238.6,577.2a5,5,0,0,0,2.8-3.5c0.3-1.2.6-2.5,0.8-3.7a12.4,12.4,0,0,1,4.4-7.7,30.8,30.8,0,0,0,2.7-2.4,19.4,19.4,0,0,0,2.6-3.1,4.5,4.5,0,0,0-.2-5.5c-5.6,1.2-8.7,4.4-8.3,8.5l2.2,0.5C240.5,564.9,238.1,570.3,238.6,577.2Z" fill="#406325" stroke="#004b23" stroke-miterlimit="10"/>
      <path d="M216.5,565.5a13.9,13.9,0,0,0,1.4-3.6,11.1,11.1,0,0,0-2.7-8.9c-1.8-2.2-4-2-5.3.7a12.9,12.9,0,0,0-.5,10.2,3.9,3.9,0,0,0,2.7,2.7,3.4,3.4,0,0,0,.8-3.3l-0.9-3.5a2.7,2.7,0,0,1,.5-2.7C214.4,559.6,213.8,563,216.5,565.5Z" fill="#406325" stroke="#004b23" stroke-miterlimit="10"/>
      <path d="M269,544c-5.6-.2-7.4,7.4-4.7,10.9C269.1,553.1,271.2,548.3,269,544Z" fill="#406325" stroke="#004b23" stroke-miterlimit="10"/>
      <path d="M197.4,554.6c-1.4,3.9.5,7.7,4.2,8.2,1.3-2.5-2.3-3.6-1.8-6.1,2.3,0.4,2.7,3.6,5.2,3.4,0.5-1.9.1-3-1.5-4A9.5,9.5,0,0,0,197.4,554.6Z" fill="#406325" stroke="#004b23" stroke-miterlimit="10"/>
      <path d="M209,579.9a6,6,0,0,0,5-5.1c0.3-1.6.7-3.4-1-4.7-0.9,1.7-1.8,3.2-2.7,4.7S208.5,577.9,209,579.9Z" fill="#406325" stroke="#004b23" stroke-miterlimit="10"/>
      <path d="M237.5,567.7c-3.1,1.5-4.7,6-3.3,8.9C236.9,575,238,572,237.5,567.7Z" fill="#406325" stroke="#004b23" stroke-miterlimit="10"/>
      <path d="M206.1,574.3c2.3-.4,3.5-2.1,3-4.6a2.3,2.3,0,0,0-.9-1.5,2.1,2.1,0,0,0-1.8.7C205.1,570.1,205,572.4,206.1,574.3Z" fill="#406325" stroke="#004b23" stroke-miterlimit="10"/>
      <path d="M205.2,577.2a2,2,0,0,0-2.2,1.7,13.4,13.4,0,0,0-.4,3.5c0,0.7,1.5.8,1.7,0.2S206.1,579.3,205.2,577.2Z" fill="#406325" stroke="#004b23" stroke-miterlimit="10"/>
    </g>
  </g>
  <g id="ec55cb79-12b3-4ca1-8d76-1a2330f54c64" data-name="Eye Tri">
    <path id="7028a906-b2a9-49dd-9349-e061e0bc541b" data-name="Outer Tri" d="M139,220.8H287.5c-0.6-2.5-71.4-145.4-72.8-146.7Z" fill="none" stroke="#fcc" stroke-miterlimit="10"/>
    <path id="6dcb513a-e2e4-4768-830b-454188151ba8" data-name="Golden Tri" d="M278,212.7l-0.7-1.5c-5.6-11.5-11.3-23-16.9-34.4L217.3,89a9.1,9.1,0,0,0-.9-1.7,2,2,0,0,0-3.4-.1,17.4,17.4,0,0,0-1,1.9l-20.7,40.6-41.8,81.8a5.2,5.2,0,0,0-.6,1.3c-0.8,1.9-.1,3.1,2,3.2a12.1,12.1,0,0,0,1.9,0H276.2C278.1,215.8,278.8,214.6,278,212.7Z" stroke="red" stroke-miterlimit="10" stroke-width="0.5" fill="url(#3a3e8621-53d1-4c73-984d-98c984815c20)"/>
    <g>
      <path d="M217.4,128.3l2.5,0.2a33.3,33.3,0,0,0,4.8.4,22.5,22.5,0,0,0,4-.3l0.7,1.4,4.2,8.6-4.8-4-1-.9a19.5,19.5,0,0,0-13-5h-0.3a13.6,13.6,0,0,1,2.8-.3M197.6,133a12.8,12.8,0,0,0,2.9.4,32.1,32.1,0,0,0-5.6,4.9l2.7-5.3m-7.4,14.4a9.6,9.6,0,0,0,3.1,6.1,19.3,19.3,0,0,0,7.9,4.9,44.4,44.4,0,0,0,13.1,2.2h0.4l-0.3.9-0.6,1.4c-1.3,3.2-2.6,6.5-4.2,9.5a109.9,109.9,0,0,1-15.9,22.7c-3.5,3.9-8.1,6.4-14.1,7.8l-2.3.3a10,10,0,0,1-4.2-1,2.7,2.7,0,0,1-1-4.8,5.1,5.1,0,0,1,1.5-1.2,4,4,0,0,0-.2,4.4,4.9,4.9,0,0,0,3.7,2h0.2c3.2,0,6.1-3,6.9-5.8a7.1,7.1,0,0,0-3.4-8.4,9.3,9.3,0,0,0-4-1.1h-0.4A15.7,15.7,0,0,0,169,189l21.2-41.6m49.1,2.7,29,59H224.6a48.2,48.2,0,0,0,.4-7.2c0-.7,0-1.5,0-2.2a63.9,63.9,0,0,1,3.7-18.8l2.2-6.6,2.1-6.2c0.2-.6.3-1.2,0.5-1.8l0.2-.7a3,3,0,0,0-1.6-3.4,5.7,5.7,0,0,0-2.4-.6,4.8,4.8,0,0,0-2.1.5v-0.5a37.3,37.3,0,0,0,.2-4.1,1.6,1.6,0,0,1,0-.4h0.2l3.1-1.6,1-.5,1.4-.6a24.4,24.4,0,0,0,3.2-1.6,9.3,9.3,0,0,0,2.8-2.6M214.8,185h0c-0.1,2.3-.1,4.6-0.2,6.9a90.8,90.8,0,0,0,1,17.2H191.8a37.9,37.9,0,0,0,4.1-2.6,56,56,0,0,0,10-9.3,104.1,104.1,0,0,0,9-12.3m-52.6,17.2a11.7,11.7,0,0,0,4.4,7h-8l3.6-7M230.3,125a18.7,18.7,0,0,1-5.6.8,30.7,30.7,0,0,1-4.4-.4l-2.9-.2a15.8,15.8,0,0,0-8.2,2.2,33.7,33.7,0,0,1-4.1,2,11.2,11.2,0,0,1-4.3.9,9.9,9.9,0,0,1-3.4-.6l-1.3-.3-42.2,82.6h65.4a4.5,4.5,0,0,0,0-.8,80.9,80.9,0,0,1-1.5-19.3c0.1-4.5.2-9,.3-13.4,0-.7-0.1-1.5-0.1-2.5a13.3,13.3,0,0,0-4,4.8,109,109,0,0,1-10.3,14.5,53.2,53.2,0,0,1-9.5,8.8,27.6,27.6,0,0,1-14.4,5.5h-1.5a16.8,16.8,0,0,1-9.3-2.6,8.5,8.5,0,0,1-2.3-12.2,11.5,11.5,0,0,1,9.7-4.6h0.4a6.5,6.5,0,0,1,2.7.8,4.1,4.1,0,0,1,1.9,5c-0.5,1.8-2.4,3.6-4,3.6h-0.1a1.9,1.9,0,0,1-1.3-.7,1.6,1.6,0,0,1,.4-1.2c0.4-.5,1-0.8,1.4-1.3a1.7,1.7,0,0,0-.3-2.8,4.7,4.7,0,0,0-2.2-.7H175a6.8,6.8,0,0,0-5.1,2.5c-3,3.3-2.1,7.6,1.9,9.5a12.9,12.9,0,0,0,5.5,1.2,13.3,13.3,0,0,0,2.9-.3c6.1-1.4,11.4-4,15.7-8.7a112.3,112.3,0,0,0,16.4-23.3c1.9-3.6,3.4-7.4,4.9-11.2a39.4,39.4,0,0,0,1.3-4.9h-4.1a41.5,41.5,0,0,1-12.3-2,16.2,16.2,0,0,1-6.7-4.1c-2.7-2.9-3-5.1-.6-8.3a28.4,28.4,0,0,1,13.5-10.4,19.4,19.4,0,0,1,6.5-1.2,16.5,16.5,0,0,1,11,4.3,92.2,92.2,0,0,0,9.4,7.5c3.1,2,2.9,4.8-.2,6.9a45.9,45.9,0,0,1-4.3,2.1l-4.3,2.2a3.2,3.2,0,0,0-1.7,3.2c0.1,2.1-.3,4.1-0.4,6.2s0,3.3,0,5l0.5,0.3c0.6-.6,1.2-1.1,1.8-1.7s0.8-1.2,1.2-1.8a2.2,2.2,0,0,1,1.7-1l1.1,0.3c-0.2.8-.3,1.6-0.6,2.3L225.9,180a67.4,67.4,0,0,0-3.8,19.7c-0.1,4.1.2,8.3-1.2,12.5h52.3L230.3,125h0Z"/>
      <path d="M224.3,168.9l0.5,0.3c0.6-.6,1.2-1.1,1.8-1.7s0.8-1.2,1.2-1.8a2.1,2.1,0,0,1,2.9-.7c-0.2.8-.3,1.6-0.6,2.3L225.9,180a67.4,67.4,0,0,0-3.8,19.7c-0.1,4.1.2,8.3-1.2,12.5h52.3L230.3,125a22,22,0,0,1-10,.5,16.4,16.4,0,0,0-11.1,2,33.7,33.7,0,0,1-4.1,2,10.3,10.3,0,0,1-7.7.3l-1.3-.3-42.2,82.6h65.4a4.5,4.5,0,0,0,0-.8,80.9,80.9,0,0,1-1.5-19.3c0.1-4.5.2-9,.3-13.4,0-.7-0.1-1.5-0.1-2.5a13.3,13.3,0,0,0-4,4.8,109,109,0,0,1-10.3,14.5,53.2,53.2,0,0,1-9.5,8.8,27.6,27.6,0,0,1-14.4,5.5,17.4,17.4,0,0,1-10.8-2.5,8.5,8.5,0,0,1-2.3-12.2,11.6,11.6,0,0,1,10.1-4.6,6.5,6.5,0,0,1,2.7.8,4.1,4.1,0,0,1,1.9,5c-0.5,1.9-2.5,3.6-4.1,3.6a1.9,1.9,0,0,1-1.3-.7,1.6,1.6,0,0,1,.4-1.2c0.4-.5,1-0.8,1.4-1.3a1.7,1.7,0,0,0-.3-2.8,4.7,4.7,0,0,0-2.2-.7,6.7,6.7,0,0,0-5.2,2.5c-3,3.3-2.1,7.6,1.9,9.5a12.9,12.9,0,0,0,8.4.9c6.1-1.4,11.4-4,15.7-8.7a112.3,112.3,0,0,0,16.4-23.3c1.9-3.6,3.4-7.4,4.9-11.2a39.4,39.4,0,0,0,1.3-4.9h-4.1a41.5,41.5,0,0,1-12.3-2,16.2,16.2,0,0,1-6.7-4.1c-2.7-2.9-3-5.1-.6-8.3a28.4,28.4,0,0,1,13.5-10.4c6.4-2.3,12.3-1.3,17.5,3.1a92.2,92.2,0,0,0,9.4,7.5c3.1,2,2.9,4.8-.2,6.9a45.9,45.9,0,0,1-4.3,2.1l-4.3,2.2a3.2,3.2,0,0,0-1.7,3.2c0.1,2.1-.3,4.1-0.4,6.2S224.3,167.2,224.3,168.9Z" fill="none" stroke="#ed1c24" stroke-miterlimit="10" stroke-width="2"/>
      <path d="M230.3,125l42.8,87.1H220.8c1.4-4.2,1.2-8.3,1.2-12.5a67.4,67.4,0,0,1,3.8-19.7l4.3-12.7c0.2-.7.4-1.5,0.6-2.3l-1.1-.3a2.2,2.2,0,0,0-1.7,1c-0.4.6-.8,1.2-1.2,1.8s-1.2,1.2-1.8,1.7l-0.5-.3c0-1.7-.1-3.3,0-5s0.4-4.1.4-6.2a3.2,3.2,0,0,1,1.7-3.2l4.3-2.2a45.9,45.9,0,0,0,4.3-2.1c3.2-2,3.4-4.8.2-6.9a92.2,92.2,0,0,1-9.4-7.5,16.5,16.5,0,0,0-11-4.3,19.4,19.4,0,0,0-6.5,1.2,28.4,28.4,0,0,0-13.5,10.4c-2.3,3.2-2.1,5.5.6,8.3a16.2,16.2,0,0,0,6.7,4.1,41.5,41.5,0,0,0,12.3,2h4.1a39.4,39.4,0,0,1-1.3,4.9c-1.5,3.8-3,7.6-4.9,11.2A112.3,112.3,0,0,1,196,197.1c-4.2,4.7-9.6,7.3-15.7,8.7a13.3,13.3,0,0,1-2.9.3,12.9,12.9,0,0,1-5.5-1.2c-4-1.9-4.9-6.2-1.9-9.5a6.8,6.8,0,0,1,5.1-2.5h0.2a4.7,4.7,0,0,1,2.2.7,1.7,1.7,0,0,1,.3,2.8c-0.4.5-1,.8-1.4,1.3a1.6,1.6,0,0,0-.4,1.2,1.9,1.9,0,0,0,1.3.7h0.1c1.6,0,3.5-1.7,4-3.6a4.1,4.1,0,0,0-1.9-5,6.5,6.5,0,0,0-2.7-.8h-0.4a11.5,11.5,0,0,0-9.7,4.6,8.5,8.5,0,0,0,2.3,12.2,16.8,16.8,0,0,0,9.3,2.6h1.5a27.6,27.6,0,0,0,14.4-5.5,53.2,53.2,0,0,0,9.5-8.8,109,109,0,0,0,10.3-14.5,13.3,13.3,0,0,1,4-4.8c0.1,1,.2,1.8.1,2.5-0.1,4.5-.2,9-0.3,13.4a80.9,80.9,0,0,0,1.5,19.3,4.5,4.5,0,0,1,0,.8H153.8L196,129.5l1.3,0.3a9.9,9.9,0,0,0,3.4.6,11.2,11.2,0,0,0,4.3-.9,33.7,33.7,0,0,0,4.1-2,15.8,15.8,0,0,1,8.2-2.2l2.9,0.2a30.7,30.7,0,0,0,4.4.4,18.7,18.7,0,0,0,5.6-.8m2.6-6-4.1,1.3a13.8,13.8,0,0,1-4.1.6l-3.7-.3-3.6-.3a20.8,20.8,0,0,0-10.8,2.9,29.3,29.3,0,0,1-3.5,1.7,6.2,6.2,0,0,1-2.4.5,4.9,4.9,0,0,1-1.7-.3l-1.6-.4h-0.4l-3.7-.8-1.7,3.4L158.5,192l-9.2,17.9-3.7,7.3H281.2l-3.5-7.2-10.5-21.4-32.3-65.7-1.9-3.8h0Zm-34.6,28,0.6-.9a23.3,23.3,0,0,1,11.1-8.6,14.5,14.5,0,0,1,4.8-.9,11.6,11.6,0,0,1,7.7,3.1l1,0.9c2.4,2,4.8,4.1,7.5,6.1l-1,.5-1.7.8-0.9.4-3.6,1.9a8.5,8.5,0,0,0-2.8,2.6h-6.5a36.6,36.6,0,0,1-10.8-1.7,11.2,11.2,0,0,1-4.7-2.8l-0.8-1h0Z"/>
    </g>
    <g id="99649dbd-6f02-44d8-a2fc-6631cc42d365" data-name="Upper Tri">
      <g>
        <path d="M200.3,124.1l9-17.5,5.3-10.5,10.1,20.5h-5.5a20.1,20.1,0,0,0-10.5,3c-2.1,1.3-4.4,2.6-6.6,3.8Z" fill="url(#9009b07b-a450-40c4-9d82-5c089bc77c3f)"/>
        <path d="M214.5,99.5l7.7,15.7h-3.1a21.6,21.6,0,0,0-11.3,3.2l-4.1,2.4,6.8-13.3,4-7.8m0.1-6.7c-5.8,11.3-11.3,22.2-17,33.2H198a9.2,9.2,0,0,0,4.7-1.4c2.3-1.2,4.5-2.5,6.7-3.8a18.8,18.8,0,0,1,9.7-2.8H227L214.6,92.8h0Z" fill="#231f20"/>
        <path d="M214.6,95l10.8,22.1h-6.3a19.6,19.6,0,0,0-10.3,3c-2.2,1.3-4.4,2.6-6.7,3.8a9.4,9.4,0,0,1-2.9,1.2l9.5-18.5L214.6,95m0-2.2c-5.8,11.3-11.3,22.2-17,33.2H198a9.2,9.2,0,0,0,4.7-1.4c2.3-1.2,4.5-2.5,6.7-3.8a18.8,18.8,0,0,1,9.7-2.8H227L214.6,92.8h0Z" fill="#fff"/>
      </g>
      <path d="M214.6,92.8c-5.8,11.3-11.3,22.2-17,33.2a9,9,0,0,0,5.1-1.4c2.3-1.2,4.5-2.5,6.7-3.8a18.5,18.5,0,0,1,11.9-2.7,54.1,54.1,0,0,0,5.7,0Z" fill="none" stroke-miterlimit="10" stroke-width="2" stroke="url(#f086cdfd-9b96-4ce5-adb2-0aa9d103617f)"/>
      <path d="M214.6,92.8L227,118.1h-7.9a18.8,18.8,0,0,0-9.7,2.8c-2.2,1.3-4.4,2.6-6.7,3.8A9.2,9.2,0,0,1,198,126h-0.4c5.7-11,11.2-21.9,17-33.2m0.1-11.1-4.5,8.8-6.7,13.1-10.3,20-3.6,6.9,7.8,0.4H198a14,14,0,0,0,7.1-2c2.4-1.2,4.7-2.6,6.8-3.9a13.8,13.8,0,0,1,7.2-2.1H235l-3.5-7.2-0.5-1L219.1,90.6l-4.4-8.9h0Z"/>
    </g>
    <path id="3a291c3b-ef5f-4240-8ce4-9bd1b1bbb85c" data-name="Inner Tri" d="M213.5,215.9H150.8c-2.1-.2-2.8-1.3-2-3.2l0.6-1.3,41.8-81.8L212,89a13,13,0,0,1,1-1.9,2,2,0,0,1,3.4.1,11.9,11.9,0,0,1,.9,1.7l43.1,87.8,16.9,34.4,0.7,1.5c0.8,2,.1,3.1-2,3.3H213.5Z" fill="none" stroke="#c00" stroke-miterlimit="10"/>
    <path id="0c047b44-ff9f-432f-ae35-df7198969e88" data-name="Upper Inner Tri" d="M214.6,92.7l-17,33.2a9.5,9.5,0,0,0,5.1-1.4l6.7-3.8a18.7,18.7,0,0,1,11.9-2.7,52,52,0,0,0,5.7,0Z" fill="none" stroke="#ff0" stroke-miterlimit="10" stroke-width="0.5"/>
    <circle id="9787eed3-0bb9-4f95-8303-69dadd60a620" data-name="Eye" cx="217.9" cy="143.1" r="6.1"/>
    <path id="6b1065be-692f-4342-8b77-583d26390366" data-name="Lid" d="M225.6,140.3l-7.7-5.5-3.4-1.6-13.5,7.8v0.3c0,1-1,.9,0,1,3.6,0.4,13.8,1.7,18-1.3,2.1-1.5,8.5-2.3,9.2.4Z" stroke="#000" stroke-linecap="square" stroke-linejoin="round" stroke-width="3"/>
  </g>
</svg>
