<svg id="c27daeb7-95e7-491a-aad8-41f9c948bfbd" data-name="Layer 1" xmlns="http://www.w3.org/2000/svg" viewBox="0 0 890.2 610">
  <title>OZ</title>
  <path d="M3,284v41c0.9,7.2,1.8,14.4,2.8,21.6Q19.4,441.1,84.4,511c45,48.1,100.1,78.1,164.7,90.5,12.1,2.3,24.4,3,36.6,4.5,1.4,0.2,2.8.6,4.3,0.9h30c8-.9,16-1.8,24-2.8,60.7-8.1,114.4-32.1,160.2-72.8,57.7-51.1,90.9-115.4,100.6-191.8,0.8-6.5,1.4-13.1,2.1-19.6V290c-1-8.2-1.8-16.4-2.9-24.6-8.4-63.1-34.1-118.3-77.3-165-46-49.8-102.6-80.7-169.4-92.8-9.5-1.7-19.1-2.4-28.7-3.7A35.8,35.8,0,0,1,325,3H284L262.5,5.9C154.1,19.9,57.4,98.4,20.9,202.1c-9.1,25.9-15.1,52.4-17,79.8A7.9,7.9,0,0,1,3,284Z" fill="#0a0a1f" stroke="#b3b3b3" stroke-miterlimit="10" stroke-width="6"/>
  <g>
    <g>
      <path d="M320.7,367.3l17,8,4.4-18.3Z" fill="none" stroke="#ccc" stroke-miterlimit="10" stroke-width="6"/>
      <path d="M378,312.8c23.3-11.2,35.4-30.6,35.5-56.2,0-23.8-11.5-41.7-32.3-54.2-0.4,1.8-.6,3.1-0.9,4.4-2.3,7.8.2,15.5,0.4,23.2,1.1,37.2-22.7,67.9-58.9,76.3l-5.9,1.5C336.5,320.5,357,322.9,378,312.8Z" fill="none" stroke="#ccc" stroke-miterlimit="10" stroke-width="6"/>
      <path d="M222.5,342.2c-18.5,23.7-37.4,47.2-56.1,70.8l-16.7,21.2a3.6,3.6,0,0,0,1.3.2q54.2-25.9,108.3-52c1.2-.6,2.2-3.2,1.9-4.6q-2.5-12.2-5.8-24.2a8.3,8.3,0,0,0-3.8-4.6c-6.3-3.3-13.1-5.8-19.3-9.3S225.5,338.2,222.5,342.2Z" fill="none" stroke="#ccc" stroke-miterlimit="10" stroke-width="6"/>
      <path d="M263.8,332c1.3,9,1.3,9,8.8,12.6,9.9,4.7,19.8,9.5,29.8,14a9.4,9.4,0,0,0,6.8-.1c10.5-4.7,20.6-10.1,31.2-14.6,5.9-2.5,7-6.7,7.2-12.4-15.9-.8-29.9-6.5-42.4-15.9C293,325.3,279.3,330.5,263.8,332Z" fill="none" stroke="#ccc" stroke-miterlimit="10" stroke-width="6"/>
      <path d="M269.5,357.3l4.4,18.2,17-8.1Z" fill="none" stroke="#ccc" stroke-miterlimit="10" stroke-width="6"/>
      <path d="M353.9,383c24.2,11.1,48.2,22.6,72.3,34l37.5,17.7a4.3,4.3,0,0,0-.2-1.4q-38.2-47.5-76.5-94.9c-0.7-.9-3.3-1.2-4.5-0.7-7.6,3.4-15.1,6.9-22.5,10.8a9,9,0,0,0-3.9,5c-2.1,7.4-3.4,14.9-5.5,22.3C349.5,379.6,350.1,381.3,353.9,383Z" fill="none" stroke="#ccc" stroke-miterlimit="10" stroke-width="6"/>
      <path d="M240.6,156.2c-7.9-9.6-15.7-19.3-23.5-29l-2.1-2.7-0.7.7,15,62.8,1.7,0.5c0.7-1.4,1.4-2.8,2-4.3,2.7-7.3,5.2-14.7,8.3-21.8C242.2,159.8,242.3,158.3,240.6,156.2Z" fill="none" stroke="#ccc" stroke-miterlimit="10" stroke-width="6"/>
      <path d="M367.8,198.8c0-33.9-27.2-61.9-60.2-61.9-35.3,0-63.3,26.8-63.3,60.8s27.2,63.1,61.8,63A61.7,61.7,0,0,0,367.8,198.8Z" fill="none" stroke="#ccc" stroke-miterlimit="10" stroke-width="6"/>
      <path d="M382.4,188.2l15.5-64.8-1.1-.5-27.2,34.3,11.7,31.2Z" fill="none" stroke="#ccc" stroke-miterlimit="10" stroke-width="6"/>
      <path d="M399.7,315.2l100.9-48.4-0.3-1.1H425.8C423.1,285.7,414.1,301.8,399.7,315.2Z" fill="none" stroke="#ccc" stroke-miterlimit="10" stroke-width="6"/>
      <path d="M245.3,243c2.2,24.6,27.4,55.2,67,51.9,26.8-2.2,55.5-29,54.1-51.2C334.9,284.4,274.4,282.6,245.3,243Z" fill="none" stroke="#ccc" stroke-miterlimit="10" stroke-width="6"/>
      <path d="M107.9,469.2c31.4,36.5,69,62.4,113.8,77.8A256.1,256.1,0,0,0,305,560.8l-39.8-167Z" fill="none" stroke="#ccc" stroke-miterlimit="10" stroke-width="6"/>
      <path d="M306.4,561c79.7-2.3,144.7-33.5,196.7-93.6L346.5,393.5Z" fill="none" stroke="#ccc" stroke-miterlimit="10" stroke-width="6"/>
      <path d="M305.1,506.4h1.3L334.7,388l-27.2-12.8a3.8,3.8,0,0,0-2.9-.2l-27.8,13.2Z" fill="none" stroke="#ccc" stroke-miterlimit="10" stroke-width="6"/>
      <path d="M106.6,467.9L214.9,331.5,52,254.7C38.7,334.1,56.4,404.7,106.6,467.9Z" fill="none" stroke="#ccc" stroke-miterlimit="10" stroke-width="6"/>
      <path d="M188.8,73.8C116.4,112.9,71.3,171.5,52.6,251.5H183.7c0.3-1.6.6-3.2,0.9-4.8,3.1-20.4,13-36.9,29.5-49.1,2.9-2.2,3.5-4,2.7-7.4-7.5-31-14.9-62.1-22.3-93.2C192.7,89.5,190.8,82,188.8,73.8Z" fill="none" stroke="#ccc" stroke-miterlimit="10" stroke-width="6"/>
      <path d="M230.4,312.6c21.8,11.1,43.4,8.9,64.8-5.1l-4.4-1.2c-40.8-9.7-64.4-45-58.3-86.4,0.8-5.7-.5-11.6-0.8-17.7-19.9,7.7-34.6,29.8-35.1,54.2S207.8,301,230.4,312.6Z" fill="none" stroke="#ccc" stroke-miterlimit="10" stroke-width="6"/>
      <path d="M105.4,265.8L208,314.1c-13.8-14-21.7-30.4-24.1-49.4H105.6Z" fill="none" stroke="#ccc" stroke-miterlimit="10" stroke-width="6"/>
      <path d="M505.1,464.6c26.1-32.8,43.3-69.1,51.5-109.6a252.5,252.5,0,0,0,.2-100.9L397.2,330.5Z" fill="none" stroke="#ccc" stroke-miterlimit="10" stroke-width="6"/>
      <path d="M419.8,73.4c-77-35.7-153-35.7-229.9-.3l60.8,75.5c15.2-16.1,33.6-24.4,55-24.5s39.8,8,55,23.7Z" fill="none" stroke="#ccc" stroke-miterlimit="10" stroke-width="6"/>
      <path d="M557,253.1c-18.3-79.9-62.7-138.6-134-177.9a20.5,20.5,0,0,0-1.1,2.5q-13.6,57-27.3,114c-0.7,2.7,0,4.1,2.1,5.7,16.6,12.8,26.4,29.7,28.9,50.6,0.5,4,1.9,4.8,5.5,4.8l102.5,0.2H557Z" fill="none" stroke="#ccc" stroke-miterlimit="10" stroke-width="6"/>
      <path d="M306.3,206a7.5,7.5,0,0,1-7.5-7.1A7.3,7.3,0,1,1,306.3,206Z" fill="none" stroke="#ccc" stroke-miterlimit="10" stroke-width="6"/>
    </g>
    <g id="4c05b353-7e7e-493b-b910-1523cf0995a5" data-name="666">
      <path d="M264.4,416.1c-5.6-1.5-10.5-.7-13.3,4.8s-3.6,12.8-.3,19.1c0.6,1.1,2.8,2,4.1,1.8s2.6-1.9,3-3.2c1.8-6.3-1-9.8-8-9.7,1.1-3.8,4.2-4,7-3.9s6.7,1.8,7.9,5.7c1.9,6.1-.9,12-6.8,14.1s-13.9-.4-16.2-6.5c-5.2-13.3,6.3-28.1,20.5-26.3,1.2,0.2,2.1,1.7,3.2,2.6Z" fill="none" stroke="#ccc" stroke-miterlimit="10" stroke-width="3"/>
      <path d="M354.4,428.4c1-3.7,4.3-4.1,6.7-3.3s6.2,2.9,7.5,5.4c2.9,5.5-.3,11.9-6.2,14.2s-14.2-.2-16.5-6.1c-5.3-13.3,6-28.3,20.1-26.6,1.2,0.1,2.2,1.8,2.9,3.4-5.7-.5-10.6-0.3-13.4,5s-4,12.7-.9,19.1c0.6,1.2,2.9,2.3,4.4,2.2s2.6-1.9,3-3.2C363.9,432.8,361.1,429.2,354.4,428.4Z" fill="none" stroke="#ccc" stroke-miterlimit="10" stroke-width="3"/>
      <path d="M301.6,428.7c2.9-4.3,6.3-4.3,10-3.2s6.5,5.2,6,9.8-4.7,9.5-10.6,10.2-11.3-1.9-13.2-7.3c-5.3-14.5,6.6-28.2,22.7-25.9v3.5h-1.5c-7.1-1.1-11.6,1.3-13.1,8.1a39.6,39.6,0,0,0-.1,13.7c0.2,1.7,3.2,2.9,5,4.4,1.2-1.8,3.1-3.4,3.4-5.3C311,431.1,308.6,428.9,301.6,428.7Z" fill="none" stroke="#ccc" stroke-miterlimit="10" stroke-width="3"/>
    </g>
  </g>
  <g>
    <path d="M806.4,329.3L654.1,547h95q21.9,0,33.5-9.6t20.8-38.8l5.6,1L798.2,561H609.5v-6.3L758.2,343.1H684a101,101,0,0,0-15.6,1,47.4,47.4,0,0,0-11,3,24.6,24.6,0,0,0-7.6,4.9,30.1,30.1,0,0,0-5.2,6.8q-4.3,7.2-7.9,28.4h-6.5l4.8-57.9H806.4Z" fill="#0a0a1f" stroke="#b3b3b3" stroke-miterlimit="10" stroke-width="6"/>
    <path d="M867.9,527.7a18.3,18.3,0,0,1,7.4,1.5,19,19,0,0,1,6.1,4.2,20.8,20.8,0,0,1,4.1,6.2,17.9,17.9,0,0,1,1.5,7.3,17.7,17.7,0,0,1-1.5,7.3,19.9,19.9,0,0,1-4.1,6,19.7,19.7,0,0,1-6.1,4.1,18.3,18.3,0,0,1-7.4,1.5,17.7,17.7,0,0,1-7.3-1.5,19.8,19.8,0,0,1-10.1-10.1,17.7,17.7,0,0,1-1.5-7.3,18.3,18.3,0,0,1,1.5-7.4,19.7,19.7,0,0,1,4.1-6.1,19.9,19.9,0,0,1,6-4.1A17.7,17.7,0,0,1,867.9,527.7Zm0.3-128a17.7,17.7,0,0,1,7.3,1.5,19.8,19.8,0,0,1,10.1,10.1,18.3,18.3,0,0,1,0,14.7,19.8,19.8,0,0,1-10.1,10.1,18.3,18.3,0,0,1-14.7,0A19.8,19.8,0,0,1,850.8,426a18.3,18.3,0,0,1,0-14.7,19.8,19.8,0,0,1,10.1-10.1A17.7,17.7,0,0,1,868.3,399.7Z" fill="#0a0a1f" stroke="#b3b3b3" stroke-miterlimit="10" stroke-width="6"/>
  </g>
</svg>
