<svg xmlns="http://www.w3.org/2000/svg" xmlns:xlink="http://www.w3.org/1999/xlink" viewBox="0 0 354.43 356.5">
  <defs>
    <radialGradient id="Copper_Radial" data-name="Copper Radial" cx="191.77" cy="212.35" r="8.18" gradientUnits="userSpaceOnUse">
      <stop offset="0" stop-color="#fff2db"/>
      <stop offset="0.31" stop-color="#d7b189"/>
      <stop offset="0.75" stop-color="#92562d"/>
      <stop offset="0.78" stop-color="#8d5027"/>
      <stop offset="1" stop-color="#541513"/>
    </radialGradient>
    <radialGradient id="Copper_Radial-2" cx="210.24" cy="152.26" r="32.74" xlink:href="#Copper_Radial"/>
    <radialGradient id="Copper_Radial-3" cx="120.2" cy="224.13" r="31.37" xlink:href="#Copper_Radial"/>
    <radialGradient id="Copper_Radial-4" cx="177.7" cy="196.09" r="20.49" xlink:href="#Copper_Radial"/>
    <radialGradient id="Copper_Radial-5" cx="163.92" cy="212.53" r="8.16" xlink:href="#Copper_Radial"/>
    <radialGradient id="Copper_Radial-6" cx="235.53" cy="224.48" r="31.81" xlink:href="#Copper_Radial"/>
    <radialGradient id="Copper_Radial-7" cx="133.51" cy="93.14" r="15.66" xlink:href="#Copper_Radial"/>
    <linearGradient id="linear-gradient" x1="177.96" y1="154.15" x2="177.96" y2="80.84" gradientUnits="userSpaceOnUse">
      <stop offset="0" stop-color="#fff2db"/>
      <stop offset="0.22" stop-color="#b89585"/>
      <stop offset="0.48" stop-color="#5f2017"/>
      <stop offset="0.64" stop-color="#d7b189"/>
      <stop offset="0.77" stop-color="#92562d"/>
      <stop offset="0.78" stop-color="#8d5027"/>
      <stop offset="1" stop-color="#834c3a"/>
      <stop offset="1" stop-color="#541513"/>
    </linearGradient>
    <radialGradient id="Copper_Radial-8" cx="222.19" cy="92.79" r="15.89" xlink:href="#Copper_Radial"/>
    <radialGradient id="Copper_Radial-9" cx="256.95" cy="171.54" r="26.67" xlink:href="#Copper_Radial"/>
    <radialGradient id="Copper_Radial-10" cx="177.62" cy="155.65" r="28.54" xlink:href="#Copper_Radial"/>
    <radialGradient id="Copper_Radial-11" cx="121.06" cy="275.87" r="54" xlink:href="#Copper_Radial"/>
    <radialGradient id="Copper_Radial-12" cx="234.39" cy="275.86" r="54.02" xlink:href="#Copper_Radial"/>
    <radialGradient id="Copper_Radial-13" cx="177.83" cy="255.29" r="30.48" xlink:href="#Copper_Radial"/>
    <radialGradient id="Copper_Radial-14" cx="78.97" cy="210.28" r="56.67" xlink:href="#Copper_Radial"/>
    <radialGradient id="Copper_Radial-15" cx="80.36" cy="96.53" r="50.39" xlink:href="#Copper_Radial"/>
    <radialGradient id="Copper_Radial-16" cx="144.77" cy="152.43" r="32.91" xlink:href="#Copper_Radial"/>
    <radialGradient id="Copper_Radial-17" cx="95.52" cy="170.64" r="26.44" xlink:href="#Copper_Radial"/>
    <radialGradient id="Copper_Radial-18" cx="276.2" cy="209.15" r="55.92" xlink:href="#Copper_Radial"/>
    <radialGradient id="Copper_Radial-19" cx="177.29" cy="60.27" r="52.55" xlink:href="#Copper_Radial"/>
    <radialGradient id="Copper_Radial-20" cx="274.63" cy="97.44" r="50.14" xlink:href="#Copper_Radial"/>
    <linearGradient id="linear-gradient-2" x1="177.22" y1="355" x2="177.22" gradientUnits="userSpaceOnUse">
      <stop offset="0.06" stop-color="#fff2db" stop-opacity="0.3"/>
      <stop offset="0.1" stop-color="#fdf0d8" stop-opacity="0.33"/>
      <stop offset="0.16" stop-color="#f9e8cf" stop-opacity="0.4"/>
      <stop offset="0.22" stop-color="#f2ddc0" stop-opacity="0.53"/>
      <stop offset="0.29" stop-color="#e8ccab" stop-opacity="0.71"/>
      <stop offset="0.36" stop-color="#dbb791" stop-opacity="0.94"/>
      <stop offset="0.37" stop-color="#d7b189"/>
      <stop offset="0.67" stop-color="#92562d"/>
      <stop offset="0.69" stop-color="#8d5027"/>
      <stop offset="0.89" stop-color="#541513"/>
    </linearGradient>
  </defs>
  <title>peforce1</title>
  <g id="Layer_1" data-name="Layer 1">
    <rect x="0.22" y="0.5" width="354" height="356" fill="none"/>
    <path d="M196.93,219.86l-14-6.56,17.58-8.46Zm-7.33-6.59L195,215.8l1.4-5.8Z" fill="url(#Copper_Radial)"/>
    <path d="M204,187.31c-7,0-14-2.23-21.15-6.71L180,178.85l3.21-.83,1.39-.36c.78-.21,1.39-.37,2-.51,20-4.64,33-21.5,32.4-42,0-1.34-.2-2.68-.38-4.09-.38-3.07-.76-6.25.19-9.54.11-.4.2-.83.3-1.38.06-.3.12-.63.19-1l.41-2,1.72,1c12.67,7.66,19.09,18.44,19.07,32.07,0,15.19-7.28,26.69-21,33.27A35.63,35.63,0,0,1,204,187.31Zm-16.68-7.41c10.59,5.67,20.77,6,31,1.11h0c12.65-6.07,19.35-16.69,19.37-30.71,0-11.92-5.35-21.51-16-28.53,0,.19-.09.38-.15.57-.79,2.73-.45,5.49-.1,8.41.17,1.41.35,2.87.4,4.35C222.5,156.93,208.61,174.93,187.27,179.9Z" fill="url(#Copper_Radial-2)"/>
    <path d="M89.69,252.92a2.45,2.45,0,0,1-.65-.1l-.28-.07-2.31-.43,1.45-1.85,3-3.84c2.17-2.77,4.32-5.51,6.48-8.24l9.16-11.52c7.49-9.4,15.23-19.12,22.75-28.75,2-2.54,4-3.81,7.51-1.8,1.94,1.11,4,2.07,6.09,3,1.59.72,3.24,1.47,4.83,2.3a6.09,6.09,0,0,1,2.86,3.51c1.24,4.51,2.35,9.18,3.31,13.88a4.3,4.3,0,0,1-1.88,4.16c-19.78,9.58-39.93,19.21-59.42,28.53l-2.23,1.07A1.58,1.58,0,0,1,89.69,252.92Zm-.54-2.72h0Zm44.58-52c-.7,0-1.26.52-2.19,1.71h0c-7.53,9.64-15.28,19.36-22.77,28.77l-9.16,11.51c-2.12,2.67-4.22,5.35-6.35,8.07,18.87-9,38.33-18.33,57.44-27.59a2.15,2.15,0,0,0,.4-1.09c-.94-4.61-2-9.22-3.27-13.67a3.33,3.33,0,0,0-1.43-1.74c-1.52-.79-3.13-1.52-4.69-2.23-2.1-1-4.27-1.94-6.33-3.11A3.6,3.6,0,0,0,133.73,198.17Z" fill="url(#Copper_Radial-3)"/>
    <path d="M177.76,210.09a6.14,6.14,0,0,1-2.42-.46c-4.71-2.07-9.42-4.32-14-6.5l-3-1.45c-4.63-2.21-5-2.67-5.78-8.19l-.22-1.48,1.48-.19a42.18,42.18,0,0,0,22.79-9l.86-.68.88.66a41.57,41.57,0,0,0,23.36,8.74l1.38.07,0,1.38c-.07,3.27-.72,6.55-4.94,8.33-3.39,1.43-6.77,3.08-10,4.67-2.5,1.21-5.08,2.47-7.67,3.63A6.55,6.55,0,0,1,177.76,210.09Zm-22.19-15.61a7.17,7.17,0,0,0,.74,2.69c.4.57,1.28,1,3.24,1.94l3,1.46c4.54,2.17,9.22,4.41,13.89,6.46a4,4,0,0,0,2.74-.05c2.55-1.14,5.11-2.39,7.59-3.6,3.31-1.61,6.73-3.27,10.18-4.73a4.64,4.64,0,0,0,3.13-4.42,44.87,44.87,0,0,1-22.62-8.57A44.66,44.66,0,0,1,155.58,194.48Z" fill="url(#Copper_Radial-4)"/>
    <path d="M158.74,220l-3.63-14.93,17.62,8.25Zm.53-9.83,1.4,5.76,5.4-2.57Z" fill="url(#Copper_Radial-5)"/>
    <path d="M269.44,254l-9-4.22-14.79-7-10.81-5.11c-9.91-4.69-20.17-9.54-30.29-14.21h0c-2.68-1.23-3.44-2.9-2.65-5.74.57-2.06,1.06-4.2,1.54-6.26s1-4.29,1.58-6.42a6.5,6.5,0,0,1,2.95-3.75c3.75-2,7.84-3.94,12.88-6.19a4,4,0,0,1,4.23.78c14.13,17.42,28.42,35.19,42.24,52.37l1.29,1.61a1.93,1.93,0,0,1,.39,1.13c0,.09,0,.19,0,.33Zm-47.15-56.29a1,1,0,0,0-.29,0c-5,2.22-9,4.16-12.7,6.1a3.71,3.71,0,0,0-1.54,2c-.58,2.07-1.07,4.21-1.55,6.29s-1,4.27-1.57,6.39c-.41,1.46-.37,1.72,1.1,2.39h0c10.14,4.67,20.4,9.53,30.32,14.22l10.81,5.11,14.79,7,1.8.85c-13.28-16.52-27-33.54-40.52-50.24A2.08,2.08,0,0,0,222.29,197.76Z" fill="url(#Copper_Radial-6)"/>
    <path d="M136,113.18l-3-.79L124.1,75l2.19-1.93,1.32,1.68.82,1L131.82,80c3.26,4,6.63,8.24,10,12.31h0c1.46,1.76,1.28,3.19.53,4.93-1.19,2.73-2.23,5.6-3.23,8.38-.48,1.32-1,2.63-1.45,3.94-.24.63-.53,1.22-.8,1.8l-.35.74ZM128.24,80.1,135,108.48c.48-1.27.94-2.55,1.41-3.84,1-2.82,2.08-5.73,3.3-8.54.49-1.12.43-1.32-.11-2-3.37-4.09-6.75-8.28-10-12.34Z" fill="url(#Copper_Radial-7)"/>
    <path d="M177.87,154.15a35.93,35.93,0,0,1-25.58-10.52,37.42,37.42,0,0,1-10.89-26.76,35.25,35.25,0,0,1,10.9-25.6A37.94,37.94,0,0,1,178.8,80.84h0c19.67,0,35.67,16.45,35.67,36.63h0A36.5,36.5,0,0,1,178,154.15Zm.93-70.47a35.1,35.1,0,0,0-24.52,9.64,32.43,32.43,0,0,0-10,23.55,34.6,34.6,0,0,0,10.05,24.74,33.11,33.11,0,0,0,23.57,9.69H178a33.47,33.47,0,0,0,33.71-33.84h0c0-18.62-14.73-33.77-32.83-33.79Z" fill="url(#linear-gradient)"/>
    <path d="M219.83,113.06,212.5,93.51l16.65-21,2.73,1.14-9.3,39Zm-4.1-19,5.12,13.66,6.86-28.76Z" fill="url(#Copper_Radial-8)"/>
    <path d="M223.5,189l6.78-6.33a44.41,44.41,0,0,0,14.4-27.31l.17-1.23h44.68l.88,2.8Zm23.81-32a46.16,46.16,0,0,1-9.86,22.19l46.27-22.19Z" fill="url(#Copper_Radial-9)"/>
    <path d="M178.16,173.68c-21.82,0-35-17.49-36.19-31l-.46-5.08,3,4.11a41,41,0,0,0,32.86,16.76,41.79,41.79,0,0,0,33.78-16.38l2.32-3,.23,3.78c.8,13.28-16,29.33-32.09,30.65Q179.85,173.68,178.16,173.68Zm-32.25-25.9c3.77,11.87,16.36,24.49,35.48,22.92,12.79-1.05,26.52-12.64,29.08-23.41a44.46,44.46,0,0,1-33.12,14A43.9,43.9,0,0,1,145.9,147.79Z" fill="url(#Copper_Radial-10)"/>
    <path d="M179.19,325.39h-1.81a146.28,146.28,0,0,1-47.89-7.88c-25.79-8.88-47.17-23.51-65.36-44.7l-1.21-1.41,92.77-45Zm-111.68-53c17.59,20,38.18,33.95,62.91,42.46a142.89,142.89,0,0,0,45.16,7.71l-21.84-92.08Z" fill="url(#Copper_Radial-11)"/>
    <path d="M176.37,325.55,200,226.17l92.45,44.14-1.23,1.42c-14.9,17.2-31.9,30.43-50.53,39.32s-39.72,13.79-62.43,14.45Zm25.56-95.31L180,322.59c43.52-1.7,78.82-18.5,107.8-51.31Z" fill="url(#Copper_Radial-12)"/>
    <path d="M179.3,294.42h-3l-16.56-70,4.33-2.07c4.1-2,8.33-4,12.52-5.94a3.58,3.58,0,0,1,2.83.09c4,1.87,8,3.74,12.15,5.71l4.36,2.06ZM163,226l14.76,62.44,14.81-62.58-2.28-1.08c-4.16-2-8.09-3.83-12.13-5.7a1,1,0,0,0-.48-.07c-4.12,1.93-8.35,3.95-12.44,5.91Z" fill="url(#Copper_Radial-13)"/>
    <path d="M64.48,273.42,63.36,272A156.45,156.45,0,0,1,34,213.69c-5.14-20.18-5.82-41.94-2-64.69l.31-1.85,96,45.26Zm-30-122.09c-6.87,43.89,2.94,82.75,30,117.51l59.4-75.39Z" fill="url(#Copper_Radial-14)"/>
    <path d="M109.51,148.82H32l.41-1.75C37.72,124.26,47,104.15,59.94,87.29s29.95-31,50.63-42.18l1.62-.87.44,1.79,1.08,4.38c.74,3,1.46,5.9,2.15,8.8q1.9,7.94,3.79,15.88c2.9,12.17,5.9,24.75,8.89,37.11a4.76,4.76,0,0,1-2.05,5.67,40.13,40.13,0,0,0-16.24,27c-.1.66-.23,1.31-.35,1.94l-.16.83Zm-74-2.84h71.61c.1-.5.2-1,.27-1.52a42.88,42.88,0,0,1,17.35-28.89,2,2,0,0,0,1-2.71c-3-12.37-6-25-8.9-37.12Q115,67.8,113.09,59.86c-.69-2.89-1.4-5.78-2.15-8.78l-.64-2.59C70.72,70.36,46.24,102.28,35.55,146Z" fill="url(#Copper_Radial-15)"/>
    <path d="M150.7,187.58a35.84,35.84,0,0,1-16.43-4.15h0c-13.35-6.81-20.26-18.34-20-33.33.25-14.28,8.83-27.48,20.86-32.12l1.82-.7.11,1.95c.06,1.07.18,2.16.3,3.22a28.22,28.22,0,0,1,.17,7.15c-3.36,22.73,9.84,42.3,32.1,47.59l1.39.36,1.14.3,3.1.82-2.69,1.75C165.28,185.2,158,187.58,150.7,187.58ZM134.4,121.4c-10,4.79-17.05,16.32-17.27,28.75-.25,13.83,6.13,24.46,18.44,30.74h0c10.81,5.52,21.52,5.16,32.63-1.12-23.28-5.91-37-26.6-33.47-50.58a25.73,25.73,0,0,0-.19-6.43C134.49,122.32,134.44,121.86,134.4,121.4Z" fill="url(#Copper_Radial-16)"/>
    <path d="M128.77,187.74,62.26,156.41l.46-2.86h47l.15,1.25a45.6,45.6,0,0,0,13.3,27.26ZM68.9,156.39l47.78,22.51a48.43,48.43,0,0,1-9.46-22.51Z" fill="url(#Copper_Radial-17)"/>
    <path d="M291.21,271.51l-63.65-79.61,94.06-45.1.36,1.79a146,146,0,0,1-.12,58,147.56,147.56,0,0,1-29.55,63.53ZM232,192.91l59.16,74A144.54,144.54,0,0,0,319.08,206a141.21,141.21,0,0,0,.46-55.07Z" fill="url(#Copper_Radial-18)"/>
    <path d="M146.39,91.09,109.66,45.45l1.65-.76c21.91-10.11,44.05-15.23,65.81-15.23h.15c21.81,0,44,5.2,66,15.39l1.64.76-35.74,45L208,89.46c-8.41-8.67-18.51-13.06-30-13.06h-.25c-11.68.06-21.87,4.61-30.28,13.5ZM114.16,46.51l32.41,40.27c8.74-8.71,19.23-13.16,31.2-13.22H178c11.78,0,22.17,4.3,30.91,12.78l31.49-39.67C197.95,27.47,156.61,27.42,114.16,46.51Z" fill="url(#Copper_Radial-19)"/>
    <path d="M312.11,149.75h-4.68l-14.76,0c-14.27,0-29-.09-43.53-.08h0c-2.45,0-4.16-.68-4.56-4a40.08,40.08,0,0,0-15.92-27.81,4,4,0,0,1-1.72-4.72c3.84-15.9,7.69-32.08,11.42-47.72l4.09-17.15a4.91,4.91,0,0,1,.4-1c.09-.18.19-.39.31-.67l.63-1.42,1.36.75C265.54,57.1,282.33,71.34,295,88.2s21.85,37,27.07,59.8l.4,1.74h-10.4Zm-58.09-3c12.93,0,26,0,38.66.08l14.75,0h11.5c-10.44-43.77-34.6-75.78-73.77-97.76l-4,16.91c-3.73,15.65-7.59,31.83-11.43,47.73-.23.95-.15,1.15.7,1.81a42.84,42.84,0,0,1,17,29.73c.18,1.47.26,1.46,1.74,1.47Z" fill="url(#Copper_Radial-20)"/>
    <path d="M178,122.94a5.63,5.63,0,0,1-3.86-1.6,5.48,5.48,0,0,1-1.72-3.83,5.54,5.54,0,0,1,9.27-4.09,5.35,5.35,0,0,1,.36,7.71,5.58,5.58,0,0,1-3.92,1.82H178Zm0-8.12h-.15a2.75,2.75,0,0,0-2.53,2.65,2.62,2.62,0,0,0,.85,1.82,2.72,2.72,0,0,0,1.95.8h0a2.73,2.73,0,0,0,1.91-.9,2.57,2.57,0,0,0,.72-1.85,2.62,2.62,0,0,0-.89-1.81A2.75,2.75,0,0,0,178,114.82Z" fill="#ffeadf"/>
    <path d="M177.22,355C79.5,355,0,275.25,0,177.22A177.22,177.22,0,0,1,302.53,51.91a176.05,176.05,0,0,1,51.91,125.31C354.43,275.25,274.93,355,177.22,355Zm0-352.72A174.94,174.94,0,0,0,2.28,177.22c0,96.78,78.48,175.51,174.94,175.51S352.16,274,352.16,177.22A174.94,174.94,0,0,0,177.22,2.28Zm0,348.17C82,350.45,4.55,272.74,4.55,177.22,4.55,82,82,4.55,177.22,4.55S349.88,82,349.88,177.22C349.88,272.74,272.42,350.45,177.22,350.45Zm0-343.62c-94,0-170.39,76.44-170.39,170.39,0,94.27,76.44,171,170.39,171s170.39-76.69,170.39-171C347.6,83.26,271.17,6.83,177.22,6.83Z" fill="url(#linear-gradient-2)"/>
  </g>
  <g id="Layer_2" data-name="Layer 2">
    <g>
      <path d="M55,72.23c-3.14-2.81-3.7-3.32-4.38-3.86s-1.19-.7-1.92-.16a5.07,5.07,0,0,0-.67.63.19.19,0,0,1-.26.05c-.12-.11-.07-.24.13-.47.41-.46.9-1,1.32-1.43l.76-.81c.36-.4,4-4.46,4.44-4.94a5.93,5.93,0,0,0,.71-1c.07-.16.06-.31.13-.39s.19,0,.29,0,.29.44.8,1c.18.2,1,1,1.24,1.29s.17.26.08.36-.23.05-.37-.08a2.92,2.92,0,0,0-.93-.5,2.06,2.06,0,0,0-1.87.79l-2.84,3c-.11.12-.1.23.06.38l5.55,5c.12.11.2.14.31,0l2.29-2.59c.31-.34.56-.62.79-.92.39-.52.57-.83.47-1.25,0-.17-.07-.32,0-.4s.15,0,.25,0,.37.52,1,1.17c.37.4,1.13,1.16,1.27,1.29s.38.34.26.48-.21.07-.31,0a4.53,4.53,0,0,0-.83-.53,1.63,1.63,0,0,0-1.66.4c-.51.45-2.48,2.64-2.78,3-.09.1-.09.18.05.3L60,73.72c1.93,1.73,3.52,3.16,4.45,3.81.64.46,1.19.74,1.81.21a11.77,11.77,0,0,0,.89-.83c.11-.12.2-.11.27-.05s.07.24-.13.47c-1,1.1-2.19,2.32-2.28,2.42s-1.17,1.42-1.71,2c-.2.22-.33.29-.45.18s-.08-.15,0-.27a4.15,4.15,0,0,0,.46-.68c.28-.47-.07-1-.58-1.57-.75-.86-2.34-2.28-4.27-4Z" fill="red"/>
      <path d="M67.83,52.1c4-3.52,9.23-3.72,12.74.31a9.2,9.2,0,0,1-1,13.33,8.8,8.8,0,0,1-12.93-.68A9.09,9.09,0,0,1,67.83,52.1ZM79.45,64.58c1.61-1.4,4.1-5.08-.27-10.08-3.62-4.15-8-4.12-10.87-1.65-3,2.61-3.51,6.37-.23,10.13C71.59,67,76.21,67.4,79.45,64.58Z" fill="red"/>
      <path d="M84.2,47.9c-2-3-2.36-3.49-2.81-4.07s-.81-.86-1.52-.51a7.67,7.67,0,0,0-.7.41.23.23,0,0,1-.26-.05c-.08-.11,0-.22.21-.37.9-.6,2.25-1.45,2.36-1.53s1.83-1.3,2.43-1.71a7.78,7.78,0,0,1,4.23-1.65,4,4,0,0,1,3.12,1.67c1,1.41,1.29,3.17.51,6,3,.93,5.5,1.73,7.44,2.15a4.49,4.49,0,0,0,3.82-.56.21.21,0,0,1,.29,0c.08.11,0,.23-.36.47l-1.23.83a4.79,4.79,0,0,1-2.36,1c-1.15.13-2.49-.31-4.57-1-1.52-.47-3.23-1.11-4-1.34a.36.36,0,0,0-.34.07L87.9,49.44c-.09.06-.1.14,0,.25l.3.45c1.24,1.84,2.24,3.31,2.85,4,.44.51.8.8,1.46.48a8.57,8.57,0,0,0,.93-.5.17.17,0,0,1,.26.05c.06.09,0,.22-.21.37-1.07.73-2.37,1.5-2.46,1.56s-1.3,1-1.9,1.38c-.2.14-.34.17-.42.05a.18.18,0,0,1,.05-.26,3.41,3.41,0,0,0,.54-.5c.32-.35.12-.73-.17-1.35a46.78,46.78,0,0,0-2.67-4.19Zm2.79.46a.34.34,0,0,0,.3.16,8,8,0,0,0,2.37-1.17A3.09,3.09,0,0,0,90.9,46a4.1,4.1,0,0,0-.78-3.71c-1.6-2.37-3.82-2.86-5.93-1.44a10.36,10.36,0,0,0-1.33,1.06.29.29,0,0,0,0,.33Z" fill="red"/>
      <path d="M104.49,45.15a8.61,8.61,0,0,1-5.66-4.75,9.06,9.06,0,0,1-.46-6.79c.65-1.88,2.09-3.82,5.34-5.47a23.34,23.34,0,0,1,3.2-1.33,17,17,0,0,0,2.32-.79c.22-.11.31,0,.37.08s.16.43.49,1.2.89,1.82,1,2.12.1.49,0,.56-.24-.06-.39-.35A3,3,0,0,0,108.78,28,7.73,7.73,0,0,0,104,29c-2.72,1.38-3.65,2.77-4,3.84-.83,2.24-.24,4.24.82,6.31a8.34,8.34,0,0,0,11.4,3.53c1.59-.81,2.59-1.47,3-2.74a4.27,4.27,0,0,0-.05-2.12c-.06-.24-.07-.33.07-.4s.27,0,.34.19a24,24,0,0,1,.83,2.88.78.78,0,0,1-.22.87,14.05,14.05,0,0,1-3.59,2.4C109.41,45.4,106.89,45.74,104.49,45.15Z" fill="red"/>
      <path d="M118.32,29.21c-1.25-3.34-1.48-3.94-1.79-4.6s-.59-1-1.36-.85a7.7,7.7,0,0,0-.78.23.23.23,0,0,1-.24-.11c0-.13,0-.21.29-.31,1-.38,2.47-.87,2.6-.92s4.81-1.78,5.31-2,.8-.41,1-.51.16-.18.27-.22.14.06.18.16,0,.45.2,1.08c.05.21.36,1.19.41,1.46,0,.11,0,.27-.12.3s-.21,0-.28-.21a2.52,2.52,0,0,0-.41-.71c-.28-.3-.57-.36-1.84-.06-.4.09-3,1-3.24,1.13-.1,0-.1.12,0,.28l2.2,5.84c.06.15.09.23.21.18.28-.1,3.21-1.21,3.7-1.45s.83-.4,1-.71.15-.37.22-.4.15,0,.19.13a12.57,12.57,0,0,0,.27,1.25c.11.45.36,1.28.42,1.43s.1.42-.05.48-.18,0-.23-.15a2,2,0,0,0-.37-.67c-.19-.27-.49-.45-1.38-.23-.64.15-3,1-3.4,1.16a.14.14,0,0,0-.09.21l.67,1.79c.28.73,1.19,3.24,1.38,3.66.59,1.42,1.1,1.55,3.3.72a7.89,7.89,0,0,0,2.14-1.06,1.74,1.74,0,0,0,.45-1.87c0-.27,0-.37.1-.41s.22.12.28.27a19,19,0,0,1,.48,2.19c.06.61-.17.7-1,1-1.67.63-3,1.06-3.89,1.38s-1.54.52-1.86.64c-.05,0-.48.18-1,.39s-.92.4-1.27.54-.37.08-.42,0a.18.18,0,0,1,.11-.24,6.72,6.72,0,0,0,.64-.36c.4-.24.29-.69.15-1.36a46.81,46.81,0,0,0-1.62-4.7Z" fill="red"/>
      <path d="M140,27.34a7.57,7.57,0,0,1,2.86-7.16,6,6,0,0,1-2-3.42c-.39-2.1,1.23-5.29,4.79-6a7,7,0,0,1,3.34.06c.35.13.41.28.47.6a30.25,30.25,0,0,1,.39,3.09c0,.41-.07.48-.18.5s-.18-.08-.25-.47a3.24,3.24,0,0,0-1.25-2.1,3.72,3.72,0,0,0-2.87-.67,3.29,3.29,0,0,0-2.72,4.11c.39,2.07,2.15,3.52,5.47,6,1.09.81,4.92,3.25,5.91,3.81a8.24,8.24,0,0,0,.52-4.66,1.84,1.84,0,0,0-.75-1.21,1.91,1.91,0,0,0-1.38-.18c-.16,0-.33,0-.35-.13s.18-.23.39-.27a30.12,30.12,0,0,1,3.22-.41.47.47,0,0,1,.58.44c.4,2.15-.55,5.1-1.45,6.76A23.71,23.71,0,0,0,158.88,28a7.4,7.4,0,0,0,3.35.44c.24,0,.38,0,.41.12s-.18.23-.42.27l-2.6.49c-2,.37-2.64.3-6-1.46a9.07,9.07,0,0,1-6.1,4.11A6.16,6.16,0,0,1,140,27.34Zm12.86.16c-1.72-.94-4.82-3-5.65-3.58a44,44,0,0,1-3.83-3.13,5.17,5.17,0,0,0-1.55,4.91,5.48,5.48,0,0,0,6.38,4.71A7,7,0,0,0,152.85,27.5Z" fill="red"/>
      <path d="M172.27,17.93c-.06-3.56-.07-4.21-.14-4.94s-.21-1.16-1-1.25a7.8,7.8,0,0,0-.81,0,.23.23,0,0,1-.19-.19c0-.13.1-.19.37-.19,1.08,0,2.57,0,2.7,0,.46,0,5.62-.06,6.15-.1a4.93,4.93,0,0,0,1.08-.13c.13,0,.24-.14.32-.14s.16.11.17.21-.1.43-.17,1.08c0,.22,0,1.24-.08,1.51,0,.11-.1.24-.21.25s-.19-.1-.19-.27a2.51,2.51,0,0,0-.23-.86,1.79,1.79,0,0,0-1.63-.65h-3.89c-.14,0-.19.06-.19.25l.1,6.26c0,.14,0,.22.17.21l3.24-.08c.4,0,.76,0,1.08,0,.57-.06.89-.15,1.1-.42s.21-.25.29-.25.14.08.14.19a9.52,9.52,0,0,0-.19,1.27c0,.46-.06,1.38-.06,1.54s0,.46-.21.46-.16-.1-.17-.21a3.28,3.28,0,0,0-.18-.83c-.11-.32-.5-.61-1.23-.71s-3.4,0-3.81,0c-.14,0-.16.06-.16.22l0,1.84c0,2.27.07,4.08.19,5,.09.67.23,1.1.88,1.2a9.66,9.66,0,0,0,1.08.09.18.18,0,0,1,.19.19c0,.11-.1.19-.37.19-1.32,0-2.86,0-3,0s-1.62.11-2.35.12c-.24,0-.38,0-.38-.18a.18.18,0,0,1,.19-.19,6.81,6.81,0,0,0,.73-.12c.46-.09.5-.55.6-1.23a46.87,46.87,0,0,0,.05-5Z" fill="red"/>
      <path d="M189,22.31c-.14,2.21-.26,4-.21,5,0,.68.09,1.12.78,1.27a9.81,9.81,0,0,0,1.07.18.18.18,0,0,1,.18.2c0,.11-.12.18-.39.16-1.32-.09-2.85-.27-3-.27s-1.62,0-2.35-.07c-.24,0-.37-.08-.37-.21a.18.18,0,0,1,.2-.18,3.38,3.38,0,0,0,.73-.06c.46-.08.57-.5.7-1.17.17-.94.31-2.74.46-4.95l.26-4c.23-3.56.27-4.2.26-4.93s-.17-1.15-.67-1.29a4.21,4.21,0,0,0-.72-.13.2.2,0,0,1-.18-.2c0-.13.12-.18.39-.17.78.05,2.26.2,2.4.21s1.65.05,2.37.1c.27,0,.37.08.37.21a.23.23,0,0,1-.2.18,2.66,2.66,0,0,0-.6,0c-.66.09-.81.41-.92,1.21s-.12,1.37-.35,4.93Z" fill="red"/>
      <path d="M197.6,19c.55-3.52.65-4.16.7-4.89s0-1.18-.77-1.4a7.66,7.66,0,0,0-.79-.18.23.23,0,0,1-.16-.22c0-.13.14-.17.4-.13,1.07.17,2.63.46,2.77.48s2.22.29,2.94.4a7.78,7.78,0,0,1,4.22,1.67,4,4,0,0,1,1.15,3.35c-.26,1.68-1.21,3.2-3.68,4.73,1.55,2.7,2.86,5,4,6.63a4.35,4.35,0,0,0,2.37,2,4.4,4.4,0,0,0,.82.21.21.21,0,0,1,.18.22c0,.13-.16.17-.59.1l-1.47-.23a4.79,4.79,0,0,1-2.44-.84c-.93-.69-1.62-1.92-2.69-3.83-.8-1.38-1.61-3-2-3.7a.36.36,0,0,0-.3-.18l-3-.52c-.11,0-.17,0-.19.16l-.08.53c-.34,2.19-.61,3.95-.65,4.9,0,.68,0,1.13.75,1.35a8.73,8.73,0,0,0,1,.27.17.17,0,0,1,.16.22c0,.11-.14.17-.4.13-1.28-.2-2.76-.51-2.87-.53s-1.61-.17-2.33-.28c-.24,0-.37-.11-.34-.24a.18.18,0,0,1,.22-.16,3.44,3.44,0,0,0,.74,0c.47,0,.59-.46.8-1.11A46.78,46.78,0,0,0,197,23Zm1.73,2.24a.34.34,0,0,0,.12.32,8,8,0,0,0,2.53.75,3.09,3.09,0,0,0,1.82-.13,4.1,4.1,0,0,0,2-3.25c.44-2.83-.86-4.7-3.37-5.09a10.32,10.32,0,0,0-1.7-.13.29.29,0,0,0-.23.24Z" fill="red"/>
      <path d="M216,22.45c.92-3.44,1.09-4.07,1.22-4.79s.12-1.17-.61-1.48a7.65,7.65,0,0,0-.77-.26.23.23,0,0,1-.13-.23c0-.13.15-.15.41-.08,1,.28,2.52.73,2.65.76s4.95,1.35,5.48,1.46.89.13,1.08.15a1.53,1.53,0,0,1,.34,0c.08,0,.08.13,0,.24s-.24.38-.46,1c-.08.2-.4,1.18-.52,1.43s-.17.21-.27.18-.15-.15-.11-.34a2.52,2.52,0,0,0,.08-.82c-.06-.41-.25-.63-1.46-1.12-.38-.16-3-.89-3.29-1-.1,0-.15,0-.19.2l-1.61,6c0,.16-.06.23.07.27.29.08,3.31.89,3.85,1s.91.16,1.21,0,.34-.22.42-.2.12.09.08.22a12.71,12.71,0,0,0-.51,1.18c-.17.43-.45,1.25-.49,1.41s-.16.4-.32.36-.13-.12-.1-.25a2,2,0,0,0,.09-.76c0-.33-.13-.65-1-1-.61-.25-3-.93-3.44-1a.14.14,0,0,0-.2.11l-.5,1.85c-.2.76-.92,3.33-1,3.78-.34,1.5,0,1.9,2.26,2.51a7.93,7.93,0,0,0,2.36.38,1.74,1.74,0,0,0,1.45-1.26c.12-.25.2-.31.33-.28s.11.22.07.38a19.08,19.08,0,0,1-.88,2.05c-.31.53-.54.47-1.43.23-1.72-.46-3-.87-4-1.15s-1.55-.47-1.89-.56c-.05,0-.5-.13-1-.24s-1-.21-1.34-.3-.35-.15-.32-.28a.18.18,0,0,1,.23-.13,6.83,6.83,0,0,0,.73.08c.46,0,.64-.39.91-1A46.84,46.84,0,0,0,215,26.36Z" fill="red"/>
      <path d="M248.57,26.62c4.84,2.27,7.12,6.95,4.85,11.79a9.19,9.19,0,0,1-12.61,4.44,8.8,8.8,0,0,1-4.58-12.11A9.09,9.09,0,0,1,248.57,26.62Zm-6.74,15.65c1.93.91,6.3,1.7,9.12-4.31,2.34-5,.53-9-2.87-10.62-3.59-1.68-7.24-.65-9.36,3.87C236.45,36.06,237.94,40.45,241.83,42.28Z" fill="red"/>
      <path d="M265.53,36.72c.65-.48.82-.54,1-.45s.1.45,0,1c-.15,1.05-2,11.11-2.58,14.83-.36,2.2,0,2.79.38,3.2a3.28,3.28,0,0,0,.73.62c.11.07.22.2.15.32s-.33,0-.56-.13-1.78-1.12-3.15-2c-.37-.27-.69-.47-.62-.58s.1-.06.22-.05a.43.43,0,0,0,.51-.41l1-5.59a.19.19,0,0,0-.11-.23l-4.64-2.91a.25.25,0,0,0-.31,0l-3.1,2.39a4.74,4.74,0,0,0-1.12,1.12c-.24.39,0,.74.36,1l.18.11c.16.1.16.2.1.29s-.21.09-.4,0c-.48-.3-1.54-1.06-1.76-1.2s-1.26-.69-2.08-1.21c-.25-.16-.36-.29-.29-.4a.21.21,0,0,1,.28,0,6.61,6.61,0,0,0,.62.33c1,.46,1.81,0,2.81-.72Zm-2.84,9.5c.09.06.12,0,.16-.09l1.36-6.58q.11-.55-.34-.22l-5.22,4.15q-.12.12,0,.18Z" fill="red"/>
      <path d="M265.89,56.86c-.16-.33-.13-.41.25-.9.7-.89,1.35-1.55,1.6-1.83s.28-.26.38-.18.12.2,0,.35a3.42,3.42,0,0,0-.45.71c-.73,1.55.31,3.12,1.56,4.1,1.85,1.44,3.62,1.15,4.69-.21s.79-2.46.09-5l-.35-1.3c-.84-3.09-.64-4.71.34-6,1.66-2.13,4.34-2.09,6.81-.17a11.51,11.51,0,0,1,1.77,1.72,3.08,3.08,0,0,0,.59.6c.15.12.18.17.09.28a24.26,24.26,0,0,0-1.58,1.85c-.22.28-.34.39-.46.29s-.08-.2,0-.37a4.22,4.22,0,0,0,.42-1.11c0-.31,0-1.48-1.73-2.79-1.36-1.06-3-1.26-4,0s-.84,2.26,0,5l.25.78c1.07,3.33.87,5.2-.34,6.75a4.47,4.47,0,0,1-4.15,1.73,7.28,7.28,0,0,1-3.48-1.69A8.71,8.71,0,0,1,265.89,56.86Z" fill="red"/>
      <path d="M283.56,63.27c-1.49,1.64-2.71,3-3.26,3.75-.39.55-.62.93-.18,1.48a9.72,9.72,0,0,0,.73.81.18.18,0,0,1,0,.27c-.07.08-.21.07-.41-.11-1-.89-2.06-2-2.14-2.06s-1.25-1-1.79-1.52c-.18-.16-.24-.29-.15-.39a.18.18,0,0,1,.27,0,3.4,3.4,0,0,0,.61.41c.41.23.76,0,1.28-.48.72-.63,2-1.95,3.44-3.58l2.73-3c2.4-2.64,2.83-3.12,3.29-3.69s.58-1,.28-1.43a4.2,4.2,0,0,0-.48-.55.2.2,0,0,1,0-.27c.09-.1.21-.07.41.12.58.53,1.64,1.57,1.74,1.66s1.25,1.07,1.79,1.56c.2.18.24.29.15.39a.23.23,0,0,1-.27,0,2.61,2.61,0,0,0-.48-.36c-.57-.34-.89-.19-1.47.38s-.95,1-3.35,3.64Z" fill="red"/>
      <path d="M283.66,72.06c-.1-.35-.06-.42.39-.85.83-.78,1.57-1.32,1.87-1.56s.31-.22.4-.12.09.21,0,.34a3.46,3.46,0,0,0-.56.63c-1,1.42-.18,3.13.91,4.29,1.61,1.71,3.4,1.7,4.66.51s1.16-2.31.87-4.92L292,69c-.36-3.18.1-4.75,1.26-5.84,2-1.85,4.61-1.4,6.75.89a11.48,11.48,0,0,1,1.48,2,3.07,3.07,0,0,0,.49.68c.13.14.15.2,0,.29s-.7.51-1.85,1.58c-.26.24-.39.33-.5.21s-.05-.21.07-.36a4.23,4.23,0,0,0,.59-1c.09-.3.18-1.46-1.28-3-1.18-1.26-2.79-1.71-4-.61s-1.18,2.1-.73,4.9l.13.81c.54,3.46.06,5.27-1.38,6.62a4.47,4.47,0,0,1-4.37,1.06,7.28,7.28,0,0,1-3.18-2.2A8.73,8.73,0,0,1,283.66,72.06Z" fill="red"/>
      <path d="M334.57,111.81c2.37,5.6.6,11.27-5.2,13.72-5.57,2.35-11.83.37-14.37-5.62-2.88-6.81,1.22-11.89,5.7-13.78A10.45,10.45,0,0,1,334.57,111.81Zm-18.33,8.37c.95,2.24,4.19,6.32,11.43,3.26,6-2.52,7.64-7.51,6-11.44-1.76-4.15-5.81-6.11-11.25-3.8C316.61,110.64,314.35,115.7,316.24,120.17Z" fill="red"/>
      <path d="M331,131.12c3.44-.94,4.06-1.11,4.75-1.35s1.07-.49,1-1.27a7.63,7.63,0,0,0-.16-.8.23.23,0,0,1,.13-.23c.13,0,.21.05.28.31.28,1,.65,2.59.69,2.72s.64,2.15.83,2.85a7.78,7.78,0,0,1,.2,4.53,4,4,0,0,1-2.59,2.41c-1.64.45-3.41.2-5.82-1.44-1.83,2.51-3.41,4.65-4.42,6.35a4.35,4.35,0,0,0-.84,3,4.45,4.45,0,0,0,.14.83.21.21,0,0,1-.12.26c-.13,0-.22-.08-.33-.5l-.39-1.43a4.79,4.79,0,0,1-.22-2.57c.25-1.13,1.09-2.26,2.41-4,.94-1.29,2.09-2.7,2.56-3.35a.37.37,0,0,0,0-.35l-.74-2.93c0-.1-.09-.14-.22-.11l-.52.14c-2.14.58-3.86,1.05-4.74,1.4-.63.26-1,.5-.92,1.23a8.75,8.75,0,0,0,.17,1,.17.17,0,0,1-.13.23c-.1,0-.21-.05-.28-.32-.34-1.25-.66-2.73-.69-2.83s-.5-1.54-.7-2.24c-.06-.23,0-.38.08-.41a.18.18,0,0,1,.23.13,3.37,3.37,0,0,0,.3.67c.22.41.66.35,1.33.28a46.93,46.93,0,0,0,4.83-1.18Zm-1.34,2.49a.34.34,0,0,0-.24.23,8.07,8.07,0,0,0,.35,2.62,3.09,3.09,0,0,0,.86,1.61,4.09,4.09,0,0,0,3.76.46c2.76-.75,3.94-2.7,3.27-5.14a10.44,10.44,0,0,0-.58-1.61.3.3,0,0,0-.31-.11Z" fill="red"/>
      <path d="M335.47,149.5c3.53-.48,4.17-.57,4.89-.72s1.12-.34,1.13-1.13a7.68,7.68,0,0,0-.06-.81.23.23,0,0,1,.16-.21c.13,0,.2.08.24.35.15,1.07.3,2.6.32,2.74s.29,1.76.48,3.15c.32,2.35,1.12,6.63-1.31,9.8a8.06,8.06,0,0,1-5.46,3.09,9.19,9.19,0,0,1-6.74-1.67c-1.18-.87-3-2.77-3.6-6.78-.14-1-.23-2.28-.31-3.31s-.11-1.84-.13-1.94-.09-.48-.16-1-.2-1-.25-1.41,0-.38.14-.4a.18.18,0,0,1,.21.16,3.38,3.38,0,0,0,.21.71c.17.44.6.44,1.29.45a46.83,46.83,0,0,0,4.94-.54ZM333.3,152c-2.41.33-4.52.62-4.95.7a4.33,4.33,0,0,0-1.59.49c-.39.35-.76,1.25-.38,4a8,8,0,0,0,2.81,5.23c1.32,1.07,3.57,1.39,5.65,1.11a8,8,0,0,0,5.4-3c1.94-2.53,1.88-5.16,1.5-8a6.31,6.31,0,0,0-.35-1.4.4.4,0,0,0-.5-.23Z" fill="red"/>
      <path d="M344.81,178.92c-.09,5.34-3.42,9.34-8.76,9.25a9.19,9.19,0,0,1-9.21-9.68,8.8,8.8,0,0,1,9.17-9.14A9.09,9.09,0,0,1,344.81,178.92Zm-17,.26c0,2.13,1,6.44,7.67,6.55,5.51.09,8.45-3.21,8.51-7,.07-4-2.37-6.87-7.36-7C331.24,171.73,327.84,174.89,327.77,179.18Z" fill="red"/>
      <path d="M330.94,207.94c-2.18-.41-4-.74-4.9-.81-.68,0-1.12,0-1.36.68a9,9,0,0,0-.3,1,.17.17,0,0,1-.22.15c-.11,0-.17-.14-.12-.41.24-1.27.59-2.74.62-2.88s.24-1.74.37-2.43c0-.26.12-.36.26-.34a.16.16,0,0,1,.12.22,3.18,3.18,0,0,0,0,.71c0,.5.44.71,1.09.92.91.28,2.69.61,4.86,1l9.47,1.77.58-3.38c.25-1.46.19-2.05-.28-2.5a3.72,3.72,0,0,0-.65-.5c-.18-.09-.19-.17-.17-.28a.18.18,0,0,1,.22-.12c.24,0,2.17.87,2.35,1s.39.24.38.32a8.46,8.46,0,0,0-.46,1c-.2.65-.4,1.55-.45,1.81l-1.65,8.81a11.88,11.88,0,0,0-.21,1.69c0,.36,0,.58,0,.68s-.15.08-.29.06c-.69-.13-2.29-.51-2.56-.56s-.27-.16-.25-.27.11-.14.43-.11l.24,0c.71,0,1.3-.36,1.77-2.58l.6-2.91Z" fill="red"/>
      <path d="M332.25,220.26c3.42,1,4,1.19,4.75,1.35s1.17.15,1.49-.57a7.85,7.85,0,0,0,.28-.76.23.23,0,0,1,.23-.13c.13,0,.15.16.07.42-.31,1-.79,2.5-.83,2.63s-1.48,4.91-1.61,5.44-.15.88-.18,1.07a1.5,1.5,0,0,1,0,.34c0,.08-.13.07-.24,0s-.38-.25-1-.49c-.2-.09-1.17-.43-1.41-.56s-.2-.17-.17-.28.16-.15.34-.1a2.51,2.51,0,0,0,.81.1c.41,0,.63-.24,1.16-1.43.17-.37,1-3,1-3.27,0-.1,0-.15-.2-.2l-6-1.77c-.16,0-.23-.07-.27.06-.08.28-1,3.29-1.07,3.82s-.18.9,0,1.21.21.34.19.42-.09.11-.22.08a12.57,12.57,0,0,0-1.16-.54c-.42-.18-1.24-.48-1.39-.52s-.4-.17-.35-.33.12-.13.25-.09a2,2,0,0,0,.76.11c.33,0,.65-.12,1-1,.26-.6,1-3,1.12-3.41a.14.14,0,0,0-.11-.2l-1.84-.54c-.75-.22-3.31-1-3.75-1.11-1.49-.38-1.9-.05-2.56,2.2a7.93,7.93,0,0,0-.44,2.35,1.74,1.74,0,0,0,1.22,1.49c.24.13.31.2.27.33s-.23.1-.38.06a19.12,19.12,0,0,1-2-.94c-.52-.32-.46-.56-.2-1.44.5-1.71.95-3,1.25-3.94s.51-1.54.61-1.87c0-.05.14-.49.26-1s.23-1,.34-1.34.16-.35.29-.31a.18.18,0,0,1,.13.24,6.66,6.66,0,0,0-.1.73c-.05.46.37.64,1,.94a46.77,46.77,0,0,0,4.73,1.54Z" fill="red"/>
      <path d="M313.26,248.31c-.77-.25-2-.61-2.66.15a5,5,0,0,0-.82,1.32.16.16,0,0,1-.22.11c-.12-.05-.11-.28,0-.53.22-.49,1.31-2.9,1.74-3.66.28-.5.4-.56.5-.52a.2.2,0,0,1,.11.22c0,.13.28.3.7.43l11.13,3.68,0,0-8.4-10c-.72-.85-.86-1.06-.77-1.26s.34-.23,1.29-.31c1.29-.11,4.61-.35,6-.39,1.62-.05,5.92-.24,7-.23l0-.1-9.11-5c-.31-.17-.7-.34-1-.49a.64.64,0,0,0-.82.26,3.86,3.86,0,0,0-.5.79.2.2,0,0,1-.22.11c-.15-.07-.13-.24,0-.48.36-.81.89-1.82,1-2s.47-1.27.73-1.86c.1-.22.21-.35.36-.28s.1.17,0,.29a4.66,4.66,0,0,0-.21.67c-.19.77.56,1.13,1.31,1.58l13,7.64c.21.12.32.29.26.41a.54.54,0,0,1-.52.3l-15.94.8L327.34,252c.15.19.26.35.19.5s-.29.19-.71.07Z" fill="red"/>
      <path d="M316.34,258.31c3,1.86,3.59,2.2,4.24,2.53s1.09.45,1.59-.17a7.91,7.91,0,0,0,.47-.66.23.23,0,0,1,.26-.06c.12.07.1.19,0,.42-.56.92-1.39,2.16-1.48,2.32-.27.44-1.15,2-1.72,2.91-1.59,2.6-3,3-3.47,3.19a3.87,3.87,0,0,1-3-.42c-2.81-1.72-3.38-5-1.47-8.09a5.74,5.74,0,0,1,.38-.56.26.26,0,0,1,.31-.09c.16.1.14.24-.12.66-1.34,2.19-.92,4.6.86,5.68a4.66,4.66,0,0,0,3.68.67,4,4,0,0,0,2.62-2.16,7.93,7.93,0,0,0,.55-1.21c0-.13-.06-.26-.27-.39l-8-4.88c-1.89-1.16-3.43-2.1-4.29-2.5-.62-.28-1.06-.39-1.53.17a8.65,8.65,0,0,0-.64.84.18.18,0,0,1-.26.06c-.09-.06-.1-.19,0-.42.68-1.1,1.56-2.4,1.62-2.49s.78-1.42,1.16-2c.13-.21.24-.29.36-.22a.18.18,0,0,1,.06.26,3.32,3.32,0,0,0-.29.68c-.15.45.19.72.71,1.16a47,47,0,0,0,4.17,2.71Z" fill="red"/>
      <path d="M303,271c-2.7-2-3.83-2.81-4.41-2.71s-1.21.71-2.33,2.2c-.75,1-1.36,1.85-1.16,2.71a2.82,2.82,0,0,0,.7,1.23c.11.12.17.26.09.37s-.18.06-.38-.08a14.5,14.5,0,0,1-1.62-1.66c-.33-.45-.35-.57.41-1.58,1-1.36,1.84-2.4,2.55-3.25s1.18-1.48,1.6-2c.06-.09.31-.41.56-.79s.56-.83.78-1.13.27-.27.38-.19a.18.18,0,0,1,0,.26,3.41,3.41,0,0,0-.35.65c-.19.43.12.73.6,1.23a47.11,47.11,0,0,0,3.89,3.09l3.24,2.43c2.85,2.14,3.37,2.53,4,2.92s1,.55,1.6,0a7.65,7.65,0,0,0,.53-.61.23.23,0,0,1,.26,0c.11.08.09.2-.08.42-.65.86-1.58,2-1.67,2.13s-1.09,1.54-1.53,2.13c-.15.19-.27.27-.38.19a.2.2,0,0,1,0-.25c.1-.13.29-.43.43-.66.31-.64.11-1-.5-1.49s-1.08-.85-3.93-3Z" fill="red"/>
      <path d="M293.86,282.29c-1.66-1.47-3-2.67-3.79-3.21-.56-.39-.94-.61-1.48-.16a9.85,9.85,0,0,0-.8.74.18.18,0,0,1-.27,0c-.08-.07-.07-.21.11-.41.88-1,2-2.09,2-2.17s1-1.27,1.5-1.81c.16-.18.29-.25.39-.16a.18.18,0,0,1,0,.27,3.39,3.39,0,0,0-.4.62c-.22.42,0,.76.5,1.27.64.71,2,1.93,3.63,3.39l3,2.68c2.67,2.36,3.15,2.79,3.73,3.24s1,.57,1.43.26a4.22,4.22,0,0,0,.54-.49.2.2,0,0,1,.27,0c.1.09.07.21-.11.41-.52.59-1.54,1.66-1.63,1.76s-1.05,1.27-1.54,1.81c-.18.2-.29.25-.39.16a.23.23,0,0,1,0-.27,2.64,2.64,0,0,0,.35-.48c.33-.57.18-.89-.39-1.47s-1-.93-3.68-3.3Z" fill="red"/>
      <path d="M283.39,307.46c-4.14,3.38-9.34,3.42-12.73-.72a9.2,9.2,0,0,1,1.45-13.29,8.8,8.8,0,0,1,12.9,1.1A9.09,9.09,0,0,1,283.39,307.46Zm-11.2-12.85c-1.65,1.35-4.26,4.95-.05,10.09,3.49,4.26,7.91,4.38,10.81,2,3.07-2.51,3.72-6.25.55-10.11C280.12,292.45,275.51,291.89,272.19,294.61Z" fill="red"/>
      <path d="M266.9,311.12c1.89,3,2.24,3.57,2.67,4.16s.78.88,1.5.56a7.6,7.6,0,0,0,.71-.39.23.23,0,0,1,.26.06c.07.11,0,.22-.22.36-.92.57-2.29,1.38-2.41,1.45s-1.87,1.24-2.49,1.63a7.79,7.79,0,0,1-4.28,1.51,4,4,0,0,1-3.06-1.78c-.91-1.44-1.19-3.21-.32-6-2.94-1-5.44-1.91-7.37-2.39a4.48,4.48,0,0,0-3.84.43.21.21,0,0,1-.28,0c-.07-.11,0-.23.38-.46l1.26-.79a4.79,4.79,0,0,1,2.39-1c1.16-.09,2.48.39,4.54,1.14,1.51.52,3.19,1.22,4,1.47a.36.36,0,0,0,.35-.06l2.59-1.56c.09-.06.11-.13,0-.25l-.29-.46c-1.18-1.88-2.12-3.39-2.72-4.13-.43-.53-.77-.82-1.45-.53a8.73,8.73,0,0,0-1,.47.17.17,0,0,1-.26-.06c-.06-.09,0-.22.22-.36,1.1-.69,2.42-1.42,2.51-1.48s1.33-.93,1.95-1.32c.21-.13.35-.16.42,0a.18.18,0,0,1-.06.26,3.37,3.37,0,0,0-.56.48c-.33.33-.15.73.12,1.36a47,47,0,0,0,2.53,4.28Zm-2.77-.56a.34.34,0,0,0-.29-.17,8,8,0,0,0-2.41,1.1,3.08,3.08,0,0,0-1.29,1.29,4.1,4.1,0,0,0,.65,3.73c1.52,2.42,3.72,3,5.88,1.64a10.33,10.33,0,0,0,1.37-1,.3.3,0,0,0,0-.33Z" fill="red"/>
      <path d="M247,317.9c-1-2-1.81-3.59-2.34-4.38-.38-.57-.64-.91-1.32-.69a9.69,9.69,0,0,0-1,.39.18.18,0,0,1-.25-.08c0-.1,0-.22.25-.34,1.18-.6,2.59-1.22,2.69-1.27s1.41-.8,2.06-1.13c.22-.11.36-.12.42,0a.18.18,0,0,1-.08.25,3.42,3.42,0,0,0-.6.43c-.36.3-.24.72,0,1.36.33.89,1.12,2.52,2.12,4.49l1.83,3.61c1.61,3.18,1.9,3.76,2.28,4.38s.73.9,1.23.77a4.29,4.29,0,0,0,.69-.26.2.2,0,0,1,.25.08c.06.12,0,.22-.25.34-.7.35-2,1-2.17,1s-1.45.79-2.1,1.12c-.24.12-.36.12-.42,0a.23.23,0,0,1,.08-.25,2.67,2.67,0,0,0,.51-.32c.52-.41.49-.76.17-1.51s-.6-1.24-2.2-4.42Z" fill="red"/>
      <path d="M241.34,325c1.35,3.3,1.59,3.9,1.92,4.55s.61,1,1.38.81a7.42,7.42,0,0,0,.77-.26.23.23,0,0,1,.25.1c.05.13,0,.22-.28.32-1,.41-2.44.94-2.57,1s-4.76,1.92-5.25,2.15-.78.44-.95.53-.16.18-.26.22-.14-.06-.18-.16,0-.45-.23-1.07c-.06-.21-.4-1.18-.45-1.45,0-.11,0-.27.11-.31s.22,0,.29.2a2.52,2.52,0,0,0,.43.7c.29.29.58.35,1.84,0,.4-.1,3-1.12,3.21-1.22.1,0,.09-.13,0-.28L239,325.1c-.06-.15-.09-.22-.22-.17-.28.11-3.17,1.3-3.65,1.55s-.82.42-1,.74-.14.38-.21.41-.15,0-.2-.12a12.76,12.76,0,0,0-.31-1.25c-.12-.45-.4-1.27-.46-1.42s-.11-.42,0-.48.18,0,.23.14a2,2,0,0,0,.39.66c.2.27.5.44,1.39.19.63-.17,3-1.11,3.36-1.26a.14.14,0,0,0,.09-.21l-.73-1.77c-.3-.72-1.28-3.21-1.48-3.62-.63-1.4-1.15-1.52-3.32-.63A7.91,7.91,0,0,0,230.9,319a1.74,1.74,0,0,0-.4,1.88c.05.27,0,.37-.09.42s-.22-.11-.28-.26a19,19,0,0,1-.54-2.17c-.07-.61.15-.7,1-1.05,1.65-.67,2.94-1.15,3.85-1.49s1.52-.56,1.85-.7c0,0,.47-.19.94-.41s.9-.43,1.25-.57.37-.09.42,0a.18.18,0,0,1-.1.25,6.84,6.84,0,0,0-.63.38c-.39.25-.27.69-.12,1.36a47.14,47.14,0,0,0,1.76,4.65Z" fill="red"/>
      <path d="M223.85,323.58c-.55-1.81-.91-2.3-1.58-2.29a5.67,5.67,0,0,0-1.18.18.18.18,0,0,1-.23-.13c0-.13.11-.23.37-.3,1.3-.36,2.24-.53,2.44-.58s1.15-.4,2.19-.68c.23-.06.37-.07.42.08a.18.18,0,0,1-.13.23,3.75,3.75,0,0,0-.9.39c-.53.31-.44.93.1,2.94l3.46,12.68c.24.89.18,1.16,0,1.21s-.77-.26-1.07-.44c-.46-.26-4.76-2.9-9.3-5.58-2.91-1.73-6.07-3.69-7-4.22l3.26,11c.42,1.43.68,1.88,1.42,1.82a7.57,7.57,0,0,0,1.15-.2.19.19,0,0,1,.24.16c0,.13-.14.21-.4.28-1,.28-2.15.53-2.41.6s-1,.33-1.94.58c-.23.06-.42.09-.46,0a.27.27,0,0,1,.2-.28,2.7,2.7,0,0,0,.53-.2c.71-.36.64-.82.28-2.15l-3.49-13c-.4-1.46-.41-1.6-.25-1.64s.52.05,2.12.88c.29.14,4.49,2.5,7.6,4.36,3.42,2.06,6.74,4.07,7.65,4.66Z" fill="red"/>
      <path d="M198.51,332.72c-.31-2.19-.56-4-.8-4.9-.17-.66-.34-1.07-1.08-1.08a9.14,9.14,0,0,0-1.08,0,.17.17,0,0,1-.21-.16c0-.11.08-.2.35-.24,1.28-.18,2.79-.31,2.92-.33s1.73-.32,2.42-.42c.27,0,.38,0,.4.13s0,.17-.17.19a3.19,3.19,0,0,0-.68.2c-.47.17-.54.65-.52,1.33,0,1,.28,2.74.58,4.93L202,342l3.39-.53c1.47-.23,2-.47,2.28-1.06a3.71,3.71,0,0,0,.27-.77c0-.2.1-.23.21-.25a.18.18,0,0,1,.19.17c0,.24-.14,2.34-.16,2.53s-.1.45-.18.46a8.24,8.24,0,0,0-1.08-.12c-.68,0-1.59.11-1.86.15l-8.87,1.25a11.87,11.87,0,0,0-1.67.34c-.34.1-.55.19-.65.2s-.12-.12-.14-.25c-.1-.7-.25-2.34-.28-2.6s.07-.31.17-.32.17.06.24.38l.06.24c.18.68.76,1.12,3,.86l2.95-.36Z" fill="red"/>
      <path d="M185,333.93c-.12-2.21-.21-4-.37-5-.12-.67-.22-1.1-.93-1.17a9.65,9.65,0,0,0-1.08-.05.18.18,0,0,1-.2-.18c0-.11.1-.2.37-.21,1.32-.07,2.86-.07,3-.08s1.61-.17,2.34-.2c.24,0,.38,0,.39.17a.18.18,0,0,1-.18.2,3.41,3.41,0,0,0-.72.15c-.45.13-.51.57-.56,1.25-.06.95,0,2.76.13,5l.21,4c.19,3.56.22,4.21.31,4.93s.3,1.12.82,1.2a4.2,4.2,0,0,0,.73,0,.2.2,0,0,1,.2.18c0,.13-.1.19-.37.21-.78,0-2.27.06-2.4.07s-1.64.14-2.37.18c-.27,0-.38,0-.39-.17a.23.23,0,0,1,.18-.2,2.59,2.59,0,0,0,.59-.08c.64-.17.76-.5.77-1.31s0-1.38-.23-4.94Z" fill="red"/>
      <path d="M178.65,327.82c.32.17.34.25.33.87,0,1.13-.16,2-.2,2.43s-.06.38-.2.37-.21-.09-.21-.28a3.46,3.46,0,0,0-.06-.84c-.33-1.68-2.1-2.32-3.69-2.36-2.35-.06-3.6,1.23-3.64,3s.83,2.45,2.89,4.07l1.06.84c2.51,2,3.31,3.41,3.27,5-.07,2.7-2.24,4.26-5.38,4.18a11.45,11.45,0,0,1-2.45-.33,3.07,3.07,0,0,0-.83-.13c-.19,0-.24,0-.24-.17a24.17,24.17,0,0,0,.17-2.43c0-.35,0-.51.2-.51s.19.11.21.3a4.25,4.25,0,0,0,.32,1.14c.15.27.92,1.16,3,1.21,1.73,0,3.18-.78,3.22-2.4,0-1.46-.67-2.31-3-4l-.66-.48c-2.84-2-3.79-3.66-3.74-5.63a4.47,4.47,0,0,1,2.32-3.86,7.29,7.29,0,0,1,3.8-.71A8.72,8.72,0,0,1,178.65,327.82Z" fill="red"/>
      <path d="M117.27,321.89c1.33-3.1,1.82-4.39,1.58-4.93s-1-1-2.69-1.74c-1.14-.49-2.12-.88-2.91-.48a2.82,2.82,0,0,0-1,1c-.09.14-.22.23-.34.18s-.11-.16,0-.39a14.47,14.47,0,0,1,1.22-2c.36-.43.47-.48,1.63,0,1.56.67,2.77,1.21,3.77,1.7s1.72.79,2.36,1.07c.1,0,.47.2.9.36s.94.34,1.29.49.33.2.27.32a.18.18,0,0,1-.25.1,3.39,3.39,0,0,0-.71-.19c-.46-.08-.68.29-1,.87a47,47,0,0,0-2.08,4.52l-1.59,3.72c-1.4,3.28-1.65,3.87-1.89,4.56s-.28,1.14.4,1.55a7.75,7.75,0,0,0,.72.37.23.23,0,0,1,.1.25c-.05.12-.17.13-.42,0-1-.42-2.34-1.06-2.46-1.11s-1.76-.69-2.43-1c-.22-.1-.33-.2-.27-.32a.2.2,0,0,1,.24-.08c.15.06.48.18.74.26.7.15,1-.12,1.33-.84s.57-1.26,2-4.53Z" fill="red"/>
      <path d="M95.1,323.28c-4.64-2.65-6.54-7.49-3.9-12.13a9.19,9.19,0,0,1,12.92-3.42,8.8,8.8,0,0,1,3.6,12.43A9.09,9.09,0,0,1,95.1,323.28Zm8-15.07c-1.85-1.06-6.14-2.2-9.43,3.57-2.73,4.78-1.25,9,2,10.81,3.45,2,7.16,1.22,9.64-3.11C107.93,314.84,106.8,310.34,103.07,308.21Z" fill="red"/>
      <path d="M89.48,302.61c1.11-1.53,1.29-2.11.87-2.63a5.62,5.62,0,0,0-.86-.83.19.19,0,0,1,0-.27c.08-.11.24-.05.46.11,1.07.82,1.77,1.46,1.94,1.6s1,.68,1.87,1.34c.19.15.28.25.18.38a.18.18,0,0,1-.27,0,3.72,3.72,0,0,0-.85-.49c-.57-.23-1,.21-2.28,1.86l-8,10.42c-.56.73-.82.84-1,.72s-.25-.78-.3-1.12c-.07-.53-.57-5.55-1.17-10.79-.38-3.36-.72-7.07-.84-8.11l-6.83,9.26c-.88,1.19-1.09,1.68-.6,2.23a7.56,7.56,0,0,0,.85.79.19.19,0,0,1,0,.29c-.08.11-.25,0-.46-.15-.86-.66-1.72-1.39-1.94-1.56s-.87-.6-1.64-1.19c-.19-.15-.33-.29-.24-.39a.27.27,0,0,1,.35,0,2.67,2.67,0,0,0,.48.3c.72.35,1,0,1.88-1.07l8.25-10.62c.92-1.2,1-1.29,1.15-1.19s.27.45.58,2.22c.06.32.72,5.09,1.11,8.69.42,4,.82,7.83.91,8.91Z" fill="red"/>
      <path d="M68,294.85c-2.55,2.49-3,2.95-3.49,3.5s-.7.95-.23,1.58a7.76,7.76,0,0,0,.53.62.23.23,0,0,1,0,.27c-.1.09-.21.05-.4-.14-.76-.77-1.79-1.91-1.89-2s-1.29-1.24-2.27-2.24c-1.66-1.7-4.86-4.65-4.8-8.64A8.06,8.06,0,0,1,58,282.05a9.19,9.19,0,0,1,6.4-2.68c1.47,0,4.1.41,6.93,3.3.72.73,1.55,1.7,2.23,2.47s1.19,1.41,1.26,1.48.36.33.7.68.77.71,1,1,.23.31.13.4a.18.18,0,0,1-.27,0,3.39,3.39,0,0,0-.59-.45c-.4-.25-.74,0-1.3.41A46.65,46.65,0,0,0,70.91,292Zm.26-3.28c1.74-1.7,3.26-3.19,3.55-3.51a4.34,4.34,0,0,0,1-1.34c.1-.51-.14-1.45-2.1-3.46a8,8,0,0,0-5.38-2.52c-1.7-.08-3.69,1-5.2,2.48a8,8,0,0,0-2.54,5.63c-.05,3.19,1.57,5.27,3.55,7.29a6.34,6.34,0,0,0,1.12.91.4.4,0,0,0,.54-.11Z" fill="red"/>
      <path d="M43,276.94c-3.17-4.3-2.94-9.5,1.37-12.67a9.2,9.2,0,0,1,13.2,2.12,8.8,8.8,0,0,1-1.76,12.83A9.09,9.09,0,0,1,43,276.94Zm13.4-10.53c-1.26-1.72-4.72-4.5-10.07-.57-4.44,3.27-4.78,7.67-2.55,10.7,2.35,3.2,6,4,10.07,1.07C58.19,274.43,59,269.86,56.43,266.41Z" fill="red"/>
      <path d="M46.3,255.74c1.64-.95,2-1.41,1.87-2.05a5.66,5.66,0,0,0-.45-1.11.18.18,0,0,1,.08-.26c.12-.06.24.05.37.29.64,1.19,1,2.06,1.12,2.25s.65,1,1.16,2c.12.21.16.35,0,.42a.19.19,0,0,1-.26-.08,3.71,3.71,0,0,0-.58-.79c-.42-.45-1-.22-2.84.77l-11.57,6.25c-.81.44-1.09.43-1.18.27s.08-.81.18-1.14c.15-.51,1.74-5.3,3.32-10.33,1-3.22,2.21-6.75,2.53-7.75l-10,5.68c-1.29.73-1.68,1.09-1.45,1.8a7.63,7.63,0,0,0,.46,1.07.19.19,0,0,1-.1.27c-.12.06-.23-.09-.36-.33-.51-1-1-2-1.13-2.21s-.55-.9-1-1.75c-.12-.21-.18-.39-.06-.46a.27.27,0,0,1,.32.13,2.7,2.7,0,0,0,.32.47c.51.61.94.44,2.16-.21l11.86-6.34c1.33-.72,1.46-.76,1.54-.62s.06.52-.38,2.26c-.07.32-1.41,4.94-2.53,8.39-1.23,3.8-2.43,7.48-2.8,8.51Z" fill="red"/>
      <path d="M17.75,226.45c-1.55-5.12.41-9.94,5.53-11.49A9.2,9.2,0,0,1,35,221.38a8.8,8.8,0,0,1-5.95,11.5A9.09,9.09,0,0,1,17.75,226.45ZM33.9,221c-.62-2-2.94-5.82-9.3-3.9-5.27,1.59-7.07,5.63-6,9.23,1.15,3.8,4.35,5.82,9.14,4.38C32.87,229.16,35.15,225.11,33.9,221Z" fill="red"/>
      <path d="M27.91,207.6c1.86-.34,2.39-.64,2.45-1.31a5.63,5.63,0,0,0,0-1.19.18.18,0,0,1,.16-.22c.13,0,.21.13.25.4.21,1.33.27,2.28.31,2.49s.27,1.19.43,2.25c0,.24,0,.38-.13.4a.18.18,0,0,1-.22-.16,3.73,3.73,0,0,0-.28-.94c-.25-.56-.88-.55-2.93-.23l-13,2c-.91.14-1.17,0-1.2-.14s.35-.74.55-1c.32-.43,3.41-4.41,6.58-8.62,2-2.69,4.34-5.62,5-6.46l-11.32,2c-1.46.26-1.95.47-2,1.21a7.56,7.56,0,0,0,.07,1.16c0,.16-.1.21-.18.22s-.19-.16-.23-.43c-.17-1.07-.29-2.2-.33-2.46s-.21-1-.36-2c0-.24,0-.43.09-.45a.27.27,0,0,1,.25.23,2.71,2.71,0,0,0,.14.55c.28.75.74.73,2.1.52l13.29-2c1.49-.23,1.63-.23,1.66-.07s-.11.51-1.11,2c-.18.27-3,4.18-5.18,7.06-2.43,3.17-4.79,6.24-5.48,7.08Z" fill="red"/>
      <path d="M21.66,181.39c2.21-.06,4-.11,5-.25.67-.1,1.1-.22,1.19-1a9.13,9.13,0,0,0,.08-1.08.17.17,0,0,1,.18-.19c.11,0,.19.1.2.37,0,1.3,0,2.81,0,2.95s.13,1.75.15,2.46c0,.27,0,.38-.18.38s-.16,0-.17-.18a3.19,3.19,0,0,0-.13-.7c-.12-.48-.58-.6-1.26-.67-.95-.08-2.76,0-5,0l-9.64.27.15,3.43c.07,1.48.25,2,.8,2.38a3.7,3.7,0,0,0,.74.36c.19,0,.22.13.22.24a.18.18,0,0,1-.18.17c-.24,0-2.31-.39-2.5-.44s-.44-.15-.44-.23a8.16,8.16,0,0,0,.24-1.06c.06-.68.06-1.6.06-1.87l-.25-9a11.73,11.73,0,0,0-.16-1.7c-.06-.35-.12-.56-.13-.67s.13-.11.27-.12c.7,0,2.35,0,2.62,0s.3.1.3.21-.08.16-.4.2l-.24,0c-.7.1-1.2.63-1.19,2.9l0,3Z" fill="red"/>
      <path d="M11.77,166.73c-.73-.35-.86-.47-.85-.63s.35-.3.88-.51c1-.36,10.72-3.49,14.3-4.7,2.11-.72,2.45-1.34,2.65-1.84a3.3,3.3,0,0,0,.2-.93c0-.13.07-.29.21-.28s.17.28.15.55-.15,2.1-.32,3.74c-.06.46-.09.83-.22.82s-.1-.06-.15-.17a.43.43,0,0,0-.6-.26l-5.4,1.76c-.11,0-.14.07-.15.21l-.39,5.47a.25.25,0,0,0,.17.26l3.57,1.61a4.76,4.76,0,0,0,1.51.46c.46,0,.65-.36.68-.76l0-.22c0-.19.1-.24.21-.23s.18.15.16.36c0,.57-.21,1.85-.23,2.12s0,1.43-.09,2.4c0,.3-.09.45-.22.44a.21.21,0,0,1-.17-.23,6.68,6.68,0,0,0,0-.7c-.06-1.09-.83-1.6-2-2.14Zm9.72-2c0-.11,0-.11-.16-.09l-6.44,1.9q-.54.16,0,.4L21,169.63c.11,0,.16,0,.17-.07Z" fill="red"/>
      <path d="M19.39,153.33c-3.5-.65-4.14-.77-4.87-.85s-1.18,0-1.43.72a7.57,7.57,0,0,0-.2.79.23.23,0,0,1-.22.15c-.13,0-.17-.14-.12-.41.2-1.06.54-2.62.57-2.75s.36-2.21.49-2.93a7.78,7.78,0,0,1,1.79-4.17,4,4,0,0,1,3.38-1c1.67.31,3.16,1.3,4.62,3.83,2.75-1.47,5.09-2.71,6.75-3.8a4.49,4.49,0,0,0,2.28-3.12.21.21,0,0,1,.23-.18c.13,0,.16.17.08.59l-.27,1.46a4.79,4.79,0,0,1-.92,2.41c-.72.91-2,1.56-3.91,2.57-1.4.75-3.06,1.52-3.76,1.91a.36.36,0,0,0-.19.29l-.61,3c0,.11,0,.17.16.19l.53.1c2.18.41,3.93.73,4.88.8.68,0,1.13,0,1.37-.71a8.82,8.82,0,0,0,.3-1,.17.17,0,0,1,.22-.15c.11,0,.17.14.12.4-.24,1.27-.59,2.75-.61,2.85s-.22,1.61-.35,2.33c0,.24-.12.36-.26.34a.18.18,0,0,1-.15-.22,3.39,3.39,0,0,0,0-.74c0-.47-.44-.6-1.08-.83a47,47,0,0,0-4.86-1Zm2.29-1.66a.34.34,0,0,0,.32-.1,8.06,8.06,0,0,0,.82-2.51,3.09,3.09,0,0,0-.07-1.83,4.1,4.1,0,0,0-3.19-2c-2.81-.52-4.72.71-5.19,3.21a10.35,10.35,0,0,0-.18,1.7.29.29,0,0,0,.23.24Z" fill="red"/>
      <path d="M27.87,134.13c2.13.61,3.87,1.1,4.81,1.26.67.11,1.11.15,1.4-.5a9.64,9.64,0,0,0,.4-1,.18.18,0,0,1,.23-.13c.1,0,.15.16.08.42-.36,1.27-.86,2.73-.89,2.83s-.37,1.58-.56,2.28c-.07.23-.16.35-.29.31a.18.18,0,0,1-.13-.23,3.41,3.41,0,0,0,.1-.73c0-.47-.37-.67-1-.93-.88-.36-2.61-.88-4.74-1.49l-3.9-1.11c-3.43-1-4.05-1.15-4.77-1.3s-1.16-.08-1.4.39a4.23,4.23,0,0,0-.28.68.2.2,0,0,1-.23.13c-.13,0-.15-.16-.08-.42.21-.75.67-2.17.71-2.3s.4-1.6.6-2.3c.07-.26.16-.35.29-.31a.23.23,0,0,1,.13.23,2.64,2.64,0,0,0-.11.59c0,.66.23.88,1,1.15s1.32.4,4.75,1.38Z" fill="red"/>
      <path d="M22.5,116c2-5,6.52-7.51,11.49-5.53a9.2,9.2,0,0,1,5.16,12.33,8.8,8.8,0,0,1-11.82,5.28A9.09,9.09,0,0,1,22.5,116Zm16,5.82c.79-2,1.33-6.39-4.83-8.85-5.11-2-9,0-10.43,3.48-1.47,3.69-.23,7.27,4.41,9.12C32.63,127.53,36.93,125.79,38.52,121.81Z" fill="red"/>
    </g>
  </g>
</svg>
